{"glyphs":{"0":{"ha":521,"x_min":0,"x_max":446,"o":"m 149 744 l 223 744 l 223 670 l 149 670 l 149 744 m 74 744 l 149 744 l 149 670 l 74 670 l 74 744 m 74 670 l 149 670 l 149 595 l 74 595 l 74 670 m 149 670 l 223 670 l 223 595 l 149 595 l 149 670 m 223 670 l 298 670 l 298 595 l 223 595 l 223 670 m 223 744 l 298 744 l 298 670 l 223 670 l 223 744 m 298 744 l 372 744 l 372 670 l 298 670 l 298 744 m 372 670 l 446 670 l 446 595 l 372 595 l 372 670 m 298 670 l 372 670 l 372 595 l 298 595 l 298 670 m 372 595 l 446 595 l 446 521 l 372 521 l 372 595 m 372 149 l 446 149 l 446 74 l 372 74 l 372 149 m 372 223 l 446 223 l 446 149 l 372 149 l 372 223 m 372 298 l 446 298 l 446 223 l 372 223 l 372 298 m 372 372 l 446 372 l 446 298 l 372 298 l 372 372 m 372 446 l 446 446 l 446 372 l 372 372 l 372 446 m 372 521 l 446 521 l 446 446 l 372 446 l 372 521 m 298 149 l 372 149 l 372 74 l 298 74 l 298 149 m 298 74 l 372 74 l 372 0 l 298 0 l 298 74 m 223 74 l 298 74 l 298 0 l 223 0 l 223 74 m 223 149 l 298 149 l 298 74 l 223 74 l 223 149 m 149 74 l 223 74 l 223 0 l 149 0 l 149 74 m 74 74 l 149 74 l 149 0 l 74 0 l 74 74 m 74 149 l 149 149 l 149 74 l 74 74 l 74 149 m 149 149 l 223 149 l 223 74 l 149 74 l 149 149 m 74 223 l 149 223 l 149 149 l 74 149 l 74 223 m 0 149 l 74 149 l 74 74 l 0 74 l 0 149 m 0 223 l 74 223 l 74 149 l 0 149 l 0 223 m 0 298 l 74 298 l 74 223 l 0 223 l 0 298 m 0 372 l 74 372 l 74 298 l 0 298 l 0 372 m 0 446 l 74 446 l 74 372 l 0 372 l 0 446 m 0 521 l 74 521 l 74 446 l 0 446 l 0 521 m 0 595 l 74 595 l 74 521 l 0 521 l 0 595 m 74 595 l 149 595 l 149 521 l 74 521 l 74 595 m 0 670 l 74 670 l 74 595 l 0 595 l 0 670 m 74 521 l 149 521 l 149 446 l 74 446 l 74 521 m 74 446 l 149 446 l 149 372 l 74 372 l 74 446 m 74 372 l 149 372 l 149 298 l 74 298 l 74 372 m 74 298 l 149 298 l 149 223 l 74 223 l 74 298 m 298 595 l 372 595 l 372 521 l 298 521 l 298 595 m 298 521 l 372 521 l 372 446 l 298 446 l 298 521 m 298 446 l 372 446 l 372 372 l 298 372 l 298 446 m 298 372 l 372 372 l 372 298 l 298 298 l 298 372 m 298 298 l 372 298 l 372 223 l 298 223 l 298 298 m 298 223 l 372 223 l 372 149 l 298 149 l 298 223 z "},"1":{"ha":298,"x_min":0,"x_max":223,"o":"m 149 149 l 223 149 l 223 74 l 149 74 l 149 149 m 149 74 l 223 74 l 223 0 l 149 0 l 149 74 m 74 74 l 149 74 l 149 0 l 74 0 l 74 74 m 74 149 l 149 149 l 149 74 l 74 74 l 74 149 m 74 223 l 149 223 l 149 149 l 74 149 l 74 223 m 74 298 l 149 298 l 149 223 l 74 223 l 74 298 m 74 372 l 149 372 l 149 298 l 74 298 l 74 372 m 74 446 l 149 446 l 149 372 l 74 372 l 74 446 m 74 521 l 149 521 l 149 446 l 74 446 l 74 521 m 74 595 l 149 595 l 149 521 l 74 521 l 74 595 m 149 521 l 223 521 l 223 446 l 149 446 l 149 521 m 149 446 l 223 446 l 223 372 l 149 372 l 149 446 m 149 372 l 223 372 l 223 298 l 149 298 l 149 372 m 149 298 l 223 298 l 223 223 l 149 223 l 149 298 m 149 223 l 223 223 l 223 149 l 149 149 l 149 223 m 149 595 l 223 595 l 223 521 l 149 521 l 149 595 m 149 670 l 223 670 l 223 595 l 149 595 l 149 670 m 74 744 l 149 744 l 149 670 l 74 670 l 74 744 m 149 744 l 223 744 l 223 670 l 149 670 l 149 744 m 74 670 l 149 670 l 149 595 l 74 595 l 74 670 m 0 744 l 74 744 l 74 670 l 0 670 l 0 744 m 0 670 l 74 670 l 74 595 l 0 595 l 0 670 z "},"2":{"ha":595,"x_min":0,"x_max":521,"o":"m 0 670 l 74 670 l 74 595 l 0 595 l 0 670 m 0 595 l 74 595 l 74 521 l 0 521 l 0 595 m 74 595 l 149 595 l 149 521 l 74 521 l 74 595 m 74 670 l 149 670 l 149 595 l 74 595 l 74 670 m 74 744 l 149 744 l 149 670 l 74 670 l 74 744 m 149 744 l 223 744 l 223 670 l 149 670 l 149 744 m 223 744 l 298 744 l 298 670 l 223 670 l 223 744 m 298 744 l 372 744 l 372 670 l 298 670 l 298 744 m 372 744 l 446 744 l 446 670 l 372 670 l 372 744 m 372 670 l 446 670 l 446 595 l 372 595 l 372 670 m 298 670 l 372 670 l 372 595 l 298 595 l 298 670 m 223 670 l 298 670 l 298 595 l 223 595 l 223 670 m 149 670 l 223 670 l 223 595 l 149 595 l 149 670 m 372 595 l 446 595 l 446 521 l 372 521 l 372 595 m 446 595 l 521 595 l 521 521 l 446 521 l 446 595 m 446 670 l 521 670 l 521 595 l 446 595 l 446 670 m 446 521 l 521 521 l 521 446 l 446 446 l 446 521 m 372 521 l 446 521 l 446 446 l 372 446 l 372 521 m 298 521 l 372 521 l 372 446 l 298 446 l 298 521 m 298 446 l 372 446 l 372 372 l 298 372 l 298 446 m 372 446 l 446 446 l 446 372 l 372 372 l 372 446 m 223 446 l 298 446 l 298 372 l 223 372 l 223 446 m 223 372 l 298 372 l 298 298 l 223 298 l 223 372 m 298 372 l 372 372 l 372 298 l 298 298 l 298 372 m 149 372 l 223 372 l 223 298 l 149 298 l 149 372 m 149 298 l 223 298 l 223 223 l 149 223 l 149 298 m 223 298 l 298 298 l 298 223 l 223 223 l 223 298 m 74 298 l 149 298 l 149 223 l 74 223 l 74 298 m 74 223 l 149 223 l 149 149 l 74 149 l 74 223 m 149 223 l 223 223 l 223 149 l 149 149 l 149 223 m 0 223 l 74 223 l 74 149 l 0 149 l 0 223 m 0 149 l 74 149 l 74 74 l 0 74 l 0 149 m 0 74 l 74 74 l 74 0 l 0 0 l 0 74 m 74 74 l 149 74 l 149 0 l 74 0 l 74 74 m 74 149 l 149 149 l 149 74 l 74 74 l 74 149 m 149 149 l 223 149 l 223 74 l 149 74 l 149 149 m 223 149 l 298 149 l 298 74 l 223 74 l 223 149 m 223 74 l 298 74 l 298 0 l 223 0 l 223 74 m 298 74 l 372 74 l 372 0 l 298 0 l 298 74 m 372 74 l 446 74 l 446 0 l 372 0 l 372 74 m 446 74 l 521 74 l 521 0 l 446 0 l 446 74 m 446 149 l 521 149 l 521 74 l 446 74 l 446 149 m 372 149 l 446 149 l 446 74 l 372 74 l 372 149 m 298 149 l 372 149 l 372 74 l 298 74 l 298 149 m 149 74 l 223 74 l 223 0 l 149 0 l 149 74 z "},"3":{"ha":595,"x_min":0,"x_max":521,"o":"m 0 670 l 74 670 l 74 595 l 0 595 l 0 670 m 74 670 l 149 670 l 149 595 l 74 595 l 74 670 m 74 595 l 149 595 l 149 521 l 74 521 l 74 595 m 0 595 l 74 595 l 74 521 l 0 521 l 0 595 m 74 744 l 149 744 l 149 670 l 74 670 l 74 744 m 149 670 l 223 670 l 223 595 l 149 595 l 149 670 m 223 670 l 298 670 l 298 595 l 223 595 l 223 670 m 298 670 l 372 670 l 372 595 l 298 595 l 298 670 m 372 670 l 446 670 l 446 595 l 372 595 l 372 670 m 372 744 l 446 744 l 446 670 l 372 670 l 372 744 m 298 744 l 372 744 l 372 670 l 298 670 l 298 744 m 223 744 l 298 744 l 298 670 l 223 670 l 223 744 m 149 744 l 223 744 l 223 670 l 149 670 l 149 744 m 446 670 l 521 670 l 521 595 l 446 595 l 446 670 m 446 595 l 521 595 l 521 521 l 446 521 l 446 595 m 446 521 l 521 521 l 521 446 l 446 446 l 446 521 m 372 521 l 446 521 l 446 446 l 372 446 l 372 521 m 372 595 l 446 595 l 446 521 l 372 521 l 372 595 m 372 446 l 446 446 l 446 372 l 372 372 l 372 446 m 298 446 l 372 446 l 372 372 l 298 372 l 298 446 m 223 446 l 298 446 l 298 372 l 223 372 l 223 446 m 149 446 l 223 446 l 223 372 l 149 372 l 149 446 m 149 372 l 223 372 l 223 298 l 149 298 l 149 372 m 223 372 l 298 372 l 298 298 l 223 298 l 223 372 m 298 372 l 372 372 l 372 298 l 298 298 l 298 372 m 372 372 l 446 372 l 446 298 l 372 298 l 372 372 m 372 298 l 446 298 l 446 223 l 372 223 l 372 298 m 372 223 l 446 223 l 446 149 l 372 149 l 372 223 m 446 223 l 521 223 l 521 149 l 446 149 l 446 223 m 446 298 l 521 298 l 521 223 l 446 223 l 446 298 m 446 149 l 521 149 l 521 74 l 446 74 l 446 149 m 372 149 l 446 149 l 446 74 l 372 74 l 372 149 m 372 74 l 446 74 l 446 0 l 372 0 l 372 74 m 298 149 l 372 149 l 372 74 l 298 74 l 298 149 m 223 149 l 298 149 l 298 74 l 223 74 l 223 149 m 149 74 l 223 74 l 223 0 l 149 0 l 149 74 m 74 74 l 149 74 l 149 0 l 74 0 l 74 74 m 74 149 l 149 149 l 149 74 l 74 74 l 74 149 m 149 149 l 223 149 l 223 74 l 149 74 l 149 149 m 223 74 l 298 74 l 298 0 l 223 0 l 223 74 m 298 74 l 372 74 l 372 0 l 298 0 l 298 74 m 74 223 l 149 223 l 149 149 l 74 149 l 74 223 m 0 223 l 74 223 l 74 149 l 0 149 l 0 223 m 0 149 l 74 149 l 74 74 l 0 74 l 0 149 z "},"4":{"ha":521,"x_min":0,"x_max":446,"o":"m 372 74 l 446 74 l 446 0 l 372 0 l 372 74 m 298 149 l 372 149 l 372 74 l 298 74 l 298 149 m 298 74 l 372 74 l 372 0 l 298 0 l 298 74 m 372 149 l 446 149 l 446 74 l 372 74 l 372 149 m 372 223 l 446 223 l 446 149 l 372 149 l 372 223 m 298 223 l 372 223 l 372 149 l 298 149 l 298 223 m 223 223 l 298 223 l 298 149 l 223 149 l 223 223 m 149 223 l 223 223 l 223 149 l 149 149 l 149 223 m 74 223 l 149 223 l 149 149 l 74 149 l 74 223 m 0 223 l 74 223 l 74 149 l 0 149 l 0 223 m 0 298 l 74 298 l 74 223 l 0 223 l 0 298 m 74 298 l 149 298 l 149 223 l 74 223 l 74 298 m 149 298 l 223 298 l 223 223 l 149 223 l 149 298 m 223 298 l 298 298 l 298 223 l 223 223 l 223 298 m 298 298 l 372 298 l 372 223 l 298 223 l 298 298 m 372 298 l 446 298 l 446 223 l 372 223 l 372 298 m 372 372 l 446 372 l 446 298 l 372 298 l 372 372 m 372 446 l 446 446 l 446 372 l 372 372 l 372 446 m 298 446 l 372 446 l 372 372 l 298 372 l 298 446 m 298 372 l 372 372 l 372 298 l 298 298 l 298 372 m 372 744 l 446 744 l 446 670 l 372 670 l 372 744 m 298 744 l 372 744 l 372 670 l 298 670 l 298 744 m 298 670 l 372 670 l 372 595 l 298 595 l 298 670 m 298 595 l 372 595 l 372 521 l 298 521 l 298 595 m 298 521 l 372 521 l 372 446 l 298 446 l 298 521 m 372 521 l 446 521 l 446 446 l 372 446 l 372 521 m 372 595 l 446 595 l 446 521 l 372 521 l 372 595 m 372 670 l 446 670 l 446 595 l 372 595 l 372 670 m 223 670 l 298 670 l 298 595 l 223 595 l 223 670 m 223 595 l 298 595 l 298 521 l 223 521 l 223 595 m 149 595 l 223 595 l 223 521 l 149 521 l 149 595 m 149 521 l 223 521 l 223 446 l 149 446 l 149 521 m 74 446 l 149 446 l 149 372 l 74 372 l 74 446 m 74 521 l 149 521 l 149 446 l 74 446 l 74 521 m 74 372 l 149 372 l 149 298 l 74 298 l 74 372 m 0 372 l 74 372 l 74 298 l 0 298 l 0 372 m 0 446 l 74 446 l 74 372 l 0 372 l 0 446 z "},"5":{"ha":521,"x_min":0,"x_max":446,"o":"m 372 744 l 446 744 l 446 670 l 372 670 l 372 744 m 298 744 l 372 744 l 372 670 l 298 670 l 298 744 m 298 670 l 372 670 l 372 595 l 298 595 l 298 670 m 223 670 l 298 670 l 298 595 l 223 595 l 223 670 m 149 670 l 223 670 l 223 595 l 149 595 l 149 670 m 149 744 l 223 744 l 223 670 l 149 670 l 149 744 m 74 744 l 149 744 l 149 670 l 74 670 l 74 744 m 0 744 l 74 744 l 74 670 l 0 670 l 0 744 m 223 744 l 298 744 l 298 670 l 223 670 l 223 744 m 372 670 l 446 670 l 446 595 l 372 595 l 372 670 m 74 670 l 149 670 l 149 595 l 74 595 l 74 670 m 0 670 l 74 670 l 74 595 l 0 595 l 0 670 m 0 595 l 74 595 l 74 521 l 0 521 l 0 595 m 0 521 l 74 521 l 74 446 l 0 446 l 0 521 m 74 521 l 149 521 l 149 446 l 74 446 l 74 521 m 74 595 l 149 595 l 149 521 l 74 521 l 74 595 m 74 446 l 149 446 l 149 372 l 74 372 l 74 446 m 0 446 l 74 446 l 74 372 l 0 372 l 0 446 m 74 372 l 149 372 l 149 298 l 74 298 l 74 372 m 149 372 l 223 372 l 223 298 l 149 298 l 149 372 m 223 372 l 298 372 l 298 298 l 223 298 l 223 372 m 298 372 l 372 372 l 372 298 l 298 298 l 298 372 m 298 446 l 372 446 l 372 372 l 298 372 l 298 446 m 223 446 l 298 446 l 298 372 l 223 372 l 223 446 m 149 446 l 223 446 l 223 372 l 149 372 l 149 446 m 372 372 l 446 372 l 446 298 l 372 298 l 372 372 m 372 298 l 446 298 l 446 223 l 372 223 l 372 298 m 372 223 l 446 223 l 446 149 l 372 149 l 372 223 m 372 149 l 446 149 l 446 74 l 372 74 l 372 149 m 298 223 l 372 223 l 372 149 l 298 149 l 298 223 m 298 298 l 372 298 l 372 223 l 298 223 l 298 298 m 298 149 l 372 149 l 372 74 l 298 74 l 298 149 m 298 74 l 372 74 l 372 0 l 298 0 l 298 74 m 223 74 l 298 74 l 298 0 l 223 0 l 223 74 m 149 74 l 223 74 l 223 0 l 149 0 l 149 74 m 149 149 l 223 149 l 223 74 l 149 74 l 149 149 m 74 149 l 149 149 l 149 74 l 74 74 l 74 149 m 74 74 l 149 74 l 149 0 l 74 0 l 74 74 m 223 149 l 298 149 l 298 74 l 223 74 l 223 149 m 0 149 l 74 149 l 74 74 l 0 74 l 0 149 m 0 223 l 74 223 l 74 149 l 0 149 l 0 223 m 74 223 l 149 223 l 149 149 l 74 149 l 74 223 z "},"6":{"ha":595,"x_min":0,"x_max":521,"o":"m 74 744 l 149 744 l 149 670 l 74 670 l 74 744 m 149 744 l 223 744 l 223 670 l 149 670 l 149 744 m 298 744 l 372 744 l 372 670 l 298 670 l 298 744 m 372 744 l 446 744 l 446 670 l 372 670 l 372 744 m 372 670 l 446 670 l 446 595 l 372 595 l 372 670 m 372 595 l 446 595 l 446 521 l 372 521 l 372 595 m 446 595 l 521 595 l 521 521 l 446 521 l 446 595 m 446 670 l 521 670 l 521 595 l 446 595 l 446 670 m 298 670 l 372 670 l 372 595 l 298 595 l 298 670 m 149 670 l 223 670 l 223 595 l 149 595 l 149 670 m 74 670 l 149 670 l 149 595 l 74 595 l 74 670 m 0 670 l 74 670 l 74 595 l 0 595 l 0 670 m 0 595 l 74 595 l 74 521 l 0 521 l 0 595 m 74 595 l 149 595 l 149 521 l 74 521 l 74 595 m 74 521 l 149 521 l 149 446 l 74 446 l 74 521 m 0 521 l 74 521 l 74 446 l 0 446 l 0 521 m 0 446 l 74 446 l 74 372 l 0 372 l 0 446 m 0 372 l 74 372 l 74 298 l 0 298 l 0 372 m 74 372 l 149 372 l 149 298 l 74 298 l 74 372 m 74 446 l 149 446 l 149 372 l 74 372 l 74 446 m 149 446 l 223 446 l 223 372 l 149 372 l 149 446 m 149 372 l 223 372 l 223 298 l 149 298 l 149 372 m 298 372 l 372 372 l 372 298 l 298 298 l 298 372 m 298 446 l 372 446 l 372 372 l 298 372 l 298 446 m 372 446 l 446 446 l 446 372 l 372 372 l 372 446 m 372 372 l 446 372 l 446 298 l 372 298 l 372 372 m 446 372 l 521 372 l 521 298 l 446 298 l 446 372 m 446 298 l 521 298 l 521 223 l 446 223 l 446 298 m 446 223 l 521 223 l 521 149 l 446 149 l 446 223 m 372 223 l 446 223 l 446 149 l 372 149 l 372 223 m 372 298 l 446 298 l 446 223 l 372 223 l 372 298 m 446 149 l 521 149 l 521 74 l 446 74 l 446 149 m 372 149 l 446 149 l 446 74 l 372 74 l 372 149 m 372 74 l 446 74 l 446 0 l 372 0 l 372 74 m 298 74 l 372 74 l 372 0 l 298 0 l 298 74 m 298 149 l 372 149 l 372 74 l 298 74 l 298 149 m 149 149 l 223 149 l 223 74 l 149 74 l 149 149 m 149 74 l 223 74 l 223 0 l 149 0 l 149 74 m 74 74 l 149 74 l 149 0 l 74 0 l 74 74 m 74 149 l 149 149 l 149 74 l 74 74 l 74 149 m 0 149 l 74 149 l 74 74 l 0 74 l 0 149 m 0 223 l 74 223 l 74 149 l 0 149 l 0 223 m 0 298 l 74 298 l 74 223 l 0 223 l 0 298 m 74 298 l 149 298 l 149 223 l 74 223 l 74 298 m 74 223 l 149 223 l 149 149 l 74 149 l 74 223 m 223 670 l 298 670 l 298 595 l 223 595 l 223 670 m 223 744 l 298 744 l 298 670 l 223 670 l 223 744 m 223 446 l 298 446 l 298 372 l 223 372 l 223 446 m 223 372 l 298 372 l 298 298 l 223 298 l 223 372 m 223 149 l 298 149 l 298 74 l 223 74 l 223 149 m 223 74 l 298 74 l 298 0 l 223 0 l 223 74 z "},"7":{"ha":521,"x_min":0,"x_max":446,"o":"m 0 744 l 74 744 l 74 670 l 0 670 l 0 744 m 74 744 l 149 744 l 149 670 l 74 670 l 74 744 m 149 744 l 223 744 l 223 670 l 149 670 l 149 744 m 223 744 l 298 744 l 298 670 l 223 670 l 223 744 m 298 744 l 372 744 l 372 670 l 298 670 l 298 744 m 372 744 l 446 744 l 446 670 l 372 670 l 372 744 m 372 670 l 446 670 l 446 595 l 372 595 l 372 670 m 298 670 l 372 670 l 372 595 l 298 595 l 298 670 m 223 670 l 298 670 l 298 595 l 223 595 l 223 670 m 149 670 l 223 670 l 223 595 l 149 595 l 149 670 m 74 670 l 149 670 l 149 595 l 74 595 l 74 670 m 0 670 l 74 670 l 74 595 l 0 595 l 0 670 m 298 595 l 372 595 l 372 521 l 298 521 l 298 595 m 372 595 l 446 595 l 446 521 l 372 521 l 372 595 m 372 521 l 446 521 l 446 446 l 372 446 l 372 521 m 298 521 l 372 521 l 372 446 l 298 446 l 298 521 m 372 446 l 446 446 l 446 372 l 372 372 l 372 446 m 298 446 l 372 446 l 372 372 l 298 372 l 298 446 m 223 446 l 298 446 l 298 372 l 223 372 l 223 446 m 298 298 l 372 298 l 372 223 l 298 223 l 298 298 m 298 372 l 372 372 l 372 298 l 298 298 l 298 372 m 223 372 l 298 372 l 298 298 l 223 298 l 223 372 m 149 372 l 223 372 l 223 298 l 149 298 l 149 372 m 149 298 l 223 298 l 223 223 l 149 223 l 149 298 m 223 298 l 298 298 l 298 223 l 223 223 l 223 298 m 223 223 l 298 223 l 298 149 l 223 149 l 223 223 m 223 149 l 298 149 l 298 74 l 223 74 l 223 149 m 223 74 l 298 74 l 298 0 l 223 0 l 223 74 m 149 74 l 223 74 l 223 0 l 149 0 l 149 74 m 149 149 l 223 149 l 223 74 l 149 74 l 149 149 m 149 223 l 223 223 l 223 149 l 149 149 l 149 223 z "},"8":{"ha":595,"x_min":0,"x_max":521,"o":"m 74 744 l 149 744 l 149 670 l 74 670 l 74 744 m 149 744 l 223 744 l 223 670 l 149 670 l 149 744 m 298 744 l 372 744 l 372 670 l 298 670 l 298 744 m 372 744 l 446 744 l 446 670 l 372 670 l 372 744 m 372 670 l 446 670 l 446 595 l 372 595 l 372 670 m 372 595 l 446 595 l 446 521 l 372 521 l 372 595 m 446 595 l 521 595 l 521 521 l 446 521 l 446 595 m 446 670 l 521 670 l 521 595 l 446 595 l 446 670 m 298 670 l 372 670 l 372 595 l 298 595 l 298 670 m 149 670 l 223 670 l 223 595 l 149 595 l 149 670 m 74 670 l 149 670 l 149 595 l 74 595 l 74 670 m 0 670 l 74 670 l 74 595 l 0 595 l 0 670 m 0 595 l 74 595 l 74 521 l 0 521 l 0 595 m 74 595 l 149 595 l 149 521 l 74 521 l 74 595 m 74 521 l 149 521 l 149 446 l 74 446 l 74 521 m 0 521 l 74 521 l 74 446 l 0 446 l 0 521 m 0 372 l 74 372 l 74 298 l 0 298 l 0 372 m 74 372 l 149 372 l 149 298 l 74 298 l 74 372 m 74 446 l 149 446 l 149 372 l 74 372 l 74 446 m 149 446 l 223 446 l 223 372 l 149 372 l 149 446 m 149 372 l 223 372 l 223 298 l 149 298 l 149 372 m 298 372 l 372 372 l 372 298 l 298 298 l 298 372 m 298 446 l 372 446 l 372 372 l 298 372 l 298 446 m 372 446 l 446 446 l 446 372 l 372 372 l 372 446 m 372 372 l 446 372 l 446 298 l 372 298 l 372 372 m 446 372 l 521 372 l 521 298 l 446 298 l 446 372 m 446 298 l 521 298 l 521 223 l 446 223 l 446 298 m 446 223 l 521 223 l 521 149 l 446 149 l 446 223 m 372 223 l 446 223 l 446 149 l 372 149 l 372 223 m 372 298 l 446 298 l 446 223 l 372 223 l 372 298 m 446 149 l 521 149 l 521 74 l 446 74 l 446 149 m 372 149 l 446 149 l 446 74 l 372 74 l 372 149 m 372 74 l 446 74 l 446 0 l 372 0 l 372 74 m 298 74 l 372 74 l 372 0 l 298 0 l 298 74 m 298 149 l 372 149 l 372 74 l 298 74 l 298 149 m 149 149 l 223 149 l 223 74 l 149 74 l 149 149 m 149 74 l 223 74 l 223 0 l 149 0 l 149 74 m 74 74 l 149 74 l 149 0 l 74 0 l 74 74 m 74 149 l 149 149 l 149 74 l 74 74 l 74 149 m 0 149 l 74 149 l 74 74 l 0 74 l 0 149 m 0 223 l 74 223 l 74 149 l 0 149 l 0 223 m 0 298 l 74 298 l 74 223 l 0 223 l 0 298 m 74 298 l 149 298 l 149 223 l 74 223 l 74 298 m 74 223 l 149 223 l 149 149 l 74 149 l 74 223 m 446 521 l 521 521 l 521 446 l 446 446 l 446 521 m 372 521 l 446 521 l 446 446 l 372 446 l 372 521 m 223 744 l 298 744 l 298 670 l 223 670 l 223 744 m 223 670 l 298 670 l 298 595 l 223 595 l 223 670 m 223 446 l 298 446 l 298 372 l 223 372 l 223 446 m 223 372 l 298 372 l 298 298 l 223 298 l 223 372 m 223 149 l 298 149 l 298 74 l 223 74 l 223 149 m 223 74 l 298 74 l 298 0 l 223 0 l 223 74 z "},"9":{"ha":595,"x_min":0,"x_max":521,"o":"m 446 0 l 372 0 l 372 74 l 446 74 l 446 0 m 372 0 l 298 0 l 298 74 l 372 74 l 372 0 m 223 0 l 149 0 l 149 74 l 223 74 l 223 0 m 149 0 l 74 0 l 74 74 l 149 74 l 149 0 m 149 74 l 74 74 l 74 149 l 149 149 l 149 74 m 149 149 l 74 149 l 74 223 l 149 223 l 149 149 m 74 149 l 0 149 l 0 223 l 74 223 l 74 149 m 74 74 l 0 74 l 0 149 l 74 149 l 74 74 m 223 74 l 149 74 l 149 149 l 223 149 l 223 74 m 372 74 l 298 74 l 298 149 l 372 149 l 372 74 m 446 74 l 372 74 l 372 149 l 446 149 l 446 74 m 521 74 l 446 74 l 446 149 l 521 149 l 521 74 m 521 149 l 446 149 l 446 223 l 521 223 l 521 149 m 446 149 l 372 149 l 372 223 l 446 223 l 446 149 m 446 223 l 372 223 l 372 298 l 446 298 l 446 223 m 521 223 l 446 223 l 446 298 l 521 298 l 521 223 m 521 298 l 446 298 l 446 372 l 521 372 l 521 298 m 521 372 l 446 372 l 446 446 l 521 446 l 521 372 m 446 372 l 372 372 l 372 446 l 446 446 l 446 372 m 446 298 l 372 298 l 372 372 l 446 372 l 446 298 m 372 298 l 298 298 l 298 372 l 372 372 l 372 298 m 372 372 l 298 372 l 298 446 l 372 446 l 372 372 m 223 372 l 149 372 l 149 446 l 223 446 l 223 372 m 223 298 l 149 298 l 149 372 l 223 372 l 223 298 m 149 298 l 74 298 l 74 372 l 149 372 l 149 298 m 149 372 l 74 372 l 74 446 l 149 446 l 149 372 m 74 372 l 0 372 l 0 446 l 74 446 l 74 372 m 74 446 l 0 446 l 0 521 l 74 521 l 74 446 m 74 521 l 0 521 l 0 595 l 74 595 l 74 521 m 149 521 l 74 521 l 74 595 l 149 595 l 149 521 m 149 446 l 74 446 l 74 521 l 149 521 l 149 446 m 74 595 l 0 595 l 0 670 l 74 670 l 74 595 m 149 595 l 74 595 l 74 670 l 149 670 l 149 595 m 149 670 l 74 670 l 74 744 l 149 744 l 149 670 m 223 670 l 149 670 l 149 744 l 223 744 l 223 670 m 223 595 l 149 595 l 149 670 l 223 670 l 223 595 m 372 595 l 298 595 l 298 670 l 372 670 l 372 595 m 372 670 l 298 670 l 298 744 l 372 744 l 372 670 m 446 670 l 372 670 l 372 744 l 446 744 l 446 670 m 446 595 l 372 595 l 372 670 l 446 670 l 446 595 m 521 595 l 446 595 l 446 670 l 521 670 l 521 595 m 521 521 l 446 521 l 446 595 l 521 595 l 521 521 m 521 446 l 446 446 l 446 521 l 521 521 l 521 446 m 446 446 l 372 446 l 372 521 l 446 521 l 446 446 m 446 521 l 372 521 l 372 595 l 446 595 l 446 521 m 223 744 l 298 744 l 298 670 l 223 670 l 223 744 m 223 670 l 298 670 l 298 595 l 223 595 l 223 670 m 223 446 l 298 446 l 298 372 l 223 372 l 223 446 m 223 372 l 298 372 l 298 298 l 223 298 l 223 372 m 223 149 l 298 149 l 298 74 l 223 74 l 223 149 m 223 74 l 298 74 l 298 0 l 223 0 l 223 74 z "},"A":{"ha":595,"x_min":0,"x_max":521,"o":"m 149 670 l 223 670 l 223 595 l 149 595 l 149 670 m 223 670 l 298 670 l 298 595 l 223 595 l 223 670 m 223 744 l 298 744 l 298 670 l 223 670 l 223 744 m 298 670 l 372 670 l 372 595 l 298 595 l 298 670 m 298 595 l 372 595 l 372 521 l 298 521 l 298 595 m 372 595 l 446 595 l 446 521 l 372 521 l 372 595 m 223 595 l 298 595 l 298 521 l 223 521 l 223 595 m 149 595 l 223 595 l 223 521 l 149 521 l 149 595 m 74 595 l 149 595 l 149 521 l 74 521 l 74 595 m 74 521 l 149 521 l 149 446 l 74 446 l 74 521 m 0 521 l 74 521 l 74 446 l 0 446 l 0 521 m 149 521 l 223 521 l 223 446 l 149 446 l 149 521 m 74 446 l 149 446 l 149 372 l 74 372 l 74 446 m 74 372 l 149 372 l 149 298 l 74 298 l 74 372 m 74 298 l 149 298 l 149 223 l 74 223 l 74 298 m 149 298 l 223 298 l 223 223 l 149 223 l 149 298 m 223 298 l 298 298 l 298 223 l 223 223 l 223 298 m 298 298 l 372 298 l 372 223 l 298 223 l 298 298 m 372 298 l 446 298 l 446 223 l 372 223 l 372 298 m 446 298 l 521 298 l 521 223 l 446 223 l 446 298 m 446 372 l 521 372 l 521 298 l 446 298 l 446 372 m 446 446 l 521 446 l 521 372 l 446 372 l 446 446 m 446 521 l 521 521 l 521 446 l 446 446 l 446 521 m 372 521 l 446 521 l 446 446 l 372 446 l 372 521 m 298 521 l 372 521 l 372 446 l 298 446 l 298 521 m 372 446 l 446 446 l 446 372 l 372 372 l 372 446 m 372 372 l 446 372 l 446 298 l 372 298 l 372 372 m 372 223 l 446 223 l 446 149 l 372 149 l 372 223 m 446 223 l 521 223 l 521 149 l 446 149 l 446 223 m 446 149 l 521 149 l 521 74 l 446 74 l 446 149 m 446 74 l 521 74 l 521 0 l 446 0 l 446 74 m 372 74 l 446 74 l 446 0 l 372 0 l 372 74 m 372 149 l 446 149 l 446 74 l 372 74 l 372 149 m 298 223 l 372 223 l 372 149 l 298 149 l 298 223 m 223 223 l 298 223 l 298 149 l 223 149 l 223 223 m 149 223 l 223 223 l 223 149 l 149 149 l 149 223 m 74 223 l 149 223 l 149 149 l 74 149 l 74 223 m 74 149 l 149 149 l 149 74 l 74 74 l 74 149 m 74 74 l 149 74 l 149 0 l 74 0 l 74 74 m 0 74 l 74 74 l 74 0 l 0 0 l 0 74 m 0 149 l 74 149 l 74 74 l 0 74 l 0 149 m 0 223 l 74 223 l 74 149 l 0 149 l 0 223 m 0 298 l 74 298 l 74 223 l 0 223 l 0 298 m 0 372 l 74 372 l 74 298 l 0 298 l 0 372 m 0 446 l 74 446 l 74 372 l 0 372 l 0 446 z "},"Á":{"ha":595,"x_min":0,"x_max":521,"o":"m 149 670 l 223 670 l 223 595 l 149 595 l 149 670 m 223 670 l 298 670 l 298 595 l 223 595 l 223 670 m 223 744 l 298 744 l 298 670 l 223 670 l 223 744 m 298 670 l 372 670 l 372 595 l 298 595 l 298 670 m 298 595 l 372 595 l 372 521 l 298 521 l 298 595 m 372 595 l 446 595 l 446 521 l 372 521 l 372 595 m 223 595 l 298 595 l 298 521 l 223 521 l 223 595 m 149 595 l 223 595 l 223 521 l 149 521 l 149 595 m 74 595 l 149 595 l 149 521 l 74 521 l 74 595 m 74 521 l 149 521 l 149 446 l 74 446 l 74 521 m 0 521 l 74 521 l 74 446 l 0 446 l 0 521 m 149 521 l 223 521 l 223 446 l 149 446 l 149 521 m 74 446 l 149 446 l 149 372 l 74 372 l 74 446 m 74 372 l 149 372 l 149 298 l 74 298 l 74 372 m 74 298 l 149 298 l 149 223 l 74 223 l 74 298 m 149 298 l 223 298 l 223 223 l 149 223 l 149 298 m 223 298 l 298 298 l 298 223 l 223 223 l 223 298 m 298 298 l 372 298 l 372 223 l 298 223 l 298 298 m 372 298 l 446 298 l 446 223 l 372 223 l 372 298 m 446 298 l 521 298 l 521 223 l 446 223 l 446 298 m 446 372 l 521 372 l 521 298 l 446 298 l 446 372 m 446 446 l 521 446 l 521 372 l 446 372 l 446 446 m 446 521 l 521 521 l 521 446 l 446 446 l 446 521 m 372 521 l 446 521 l 446 446 l 372 446 l 372 521 m 298 521 l 372 521 l 372 446 l 298 446 l 298 521 m 372 446 l 446 446 l 446 372 l 372 372 l 372 446 m 372 372 l 446 372 l 446 298 l 372 298 l 372 372 m 372 223 l 446 223 l 446 149 l 372 149 l 372 223 m 446 223 l 521 223 l 521 149 l 446 149 l 446 223 m 446 149 l 521 149 l 521 74 l 446 74 l 446 149 m 446 74 l 521 74 l 521 0 l 446 0 l 446 74 m 372 74 l 446 74 l 446 0 l 372 0 l 372 74 m 372 149 l 446 149 l 446 74 l 372 74 l 372 149 m 298 223 l 372 223 l 372 149 l 298 149 l 298 223 m 223 223 l 298 223 l 298 149 l 223 149 l 223 223 m 149 223 l 223 223 l 223 149 l 149 149 l 149 223 m 74 223 l 149 223 l 149 149 l 74 149 l 74 223 m 74 149 l 149 149 l 149 74 l 74 74 l 74 149 m 74 74 l 149 74 l 149 0 l 74 0 l 74 74 m 0 74 l 74 74 l 74 0 l 0 0 l 0 74 m 0 149 l 74 149 l 74 74 l 0 74 l 0 149 m 0 223 l 74 223 l 74 149 l 0 149 l 0 223 m 0 298 l 74 298 l 74 223 l 0 223 l 0 298 m 0 372 l 74 372 l 74 298 l 0 298 l 0 372 m 0 446 l 74 446 l 74 372 l 0 372 l 0 446 m 298 967 l 298 893 l 223 893 l 223 967 l 298 967 m 298 893 l 298 818 l 223 818 l 223 893 l 298 893 m 372 967 l 372 893 l 298 893 l 298 967 l 372 967 m 372 1042 l 372 967 l 298 967 l 298 1042 l 372 1042 z "},"Ă":{"ha":595,"x_min":0,"x_max":521,"o":"m 149 670 l 223 670 l 223 595 l 149 595 l 149 670 m 223 670 l 298 670 l 298 595 l 223 595 l 223 670 m 223 744 l 298 744 l 298 670 l 223 670 l 223 744 m 298 670 l 372 670 l 372 595 l 298 595 l 298 670 m 298 595 l 372 595 l 372 521 l 298 521 l 298 595 m 372 595 l 446 595 l 446 521 l 372 521 l 372 595 m 223 595 l 298 595 l 298 521 l 223 521 l 223 595 m 149 595 l 223 595 l 223 521 l 149 521 l 149 595 m 74 595 l 149 595 l 149 521 l 74 521 l 74 595 m 74 521 l 149 521 l 149 446 l 74 446 l 74 521 m 0 521 l 74 521 l 74 446 l 0 446 l 0 521 m 149 521 l 223 521 l 223 446 l 149 446 l 149 521 m 74 446 l 149 446 l 149 372 l 74 372 l 74 446 m 74 372 l 149 372 l 149 298 l 74 298 l 74 372 m 74 298 l 149 298 l 149 223 l 74 223 l 74 298 m 149 298 l 223 298 l 223 223 l 149 223 l 149 298 m 223 298 l 298 298 l 298 223 l 223 223 l 223 298 m 298 298 l 372 298 l 372 223 l 298 223 l 298 298 m 372 298 l 446 298 l 446 223 l 372 223 l 372 298 m 446 298 l 521 298 l 521 223 l 446 223 l 446 298 m 446 372 l 521 372 l 521 298 l 446 298 l 446 372 m 446 446 l 521 446 l 521 372 l 446 372 l 446 446 m 446 521 l 521 521 l 521 446 l 446 446 l 446 521 m 372 521 l 446 521 l 446 446 l 372 446 l 372 521 m 298 521 l 372 521 l 372 446 l 298 446 l 298 521 m 372 446 l 446 446 l 446 372 l 372 372 l 372 446 m 372 372 l 446 372 l 446 298 l 372 298 l 372 372 m 372 223 l 446 223 l 446 149 l 372 149 l 372 223 m 446 223 l 521 223 l 521 149 l 446 149 l 446 223 m 446 149 l 521 149 l 521 74 l 446 74 l 446 149 m 446 74 l 521 74 l 521 0 l 446 0 l 446 74 m 372 74 l 446 74 l 446 0 l 372 0 l 372 74 m 372 149 l 446 149 l 446 74 l 372 74 l 372 149 m 298 223 l 372 223 l 372 149 l 298 149 l 298 223 m 223 223 l 298 223 l 298 149 l 223 149 l 223 223 m 149 223 l 223 223 l 223 149 l 149 149 l 149 223 m 74 223 l 149 223 l 149 149 l 74 149 l 74 223 m 74 149 l 149 149 l 149 74 l 74 74 l 74 149 m 74 74 l 149 74 l 149 0 l 74 0 l 74 74 m 0 74 l 74 74 l 74 0 l 0 0 l 0 74 m 0 149 l 74 149 l 74 74 l 0 74 l 0 149 m 0 223 l 74 223 l 74 149 l 0 149 l 0 223 m 0 298 l 74 298 l 74 223 l 0 223 l 0 298 m 0 372 l 74 372 l 74 298 l 0 298 l 0 372 m 0 446 l 74 446 l 74 372 l 0 372 l 0 446 m 149 893 l 149 967 l 223 967 l 223 893 l 149 893 m 74 967 l 74 1042 l 149 1042 l 149 967 l 74 967 m 298 893 l 298 967 l 372 967 l 372 893 l 298 893 m 74 893 l 74 967 l 149 967 l 149 893 l 74 893 m 223 818 l 223 893 l 298 893 l 298 818 l 223 818 m 149 818 l 149 893 l 223 893 l 223 818 l 149 818 m 372 1042 l 446 1042 l 446 967 l 372 967 l 372 1042 m 372 967 l 446 967 l 446 893 l 372 893 l 372 967 m 298 893 l 372 893 l 372 818 l 298 818 l 298 893 m 223 967 l 298 967 l 298 893 l 223 893 l 223 967 z "},"Â":{"ha":595,"x_min":0,"x_max":521,"o":"m 149 670 l 223 670 l 223 595 l 149 595 l 149 670 m 223 670 l 298 670 l 298 595 l 223 595 l 223 670 m 223 744 l 298 744 l 298 670 l 223 670 l 223 744 m 298 670 l 372 670 l 372 595 l 298 595 l 298 670 m 298 595 l 372 595 l 372 521 l 298 521 l 298 595 m 372 595 l 446 595 l 446 521 l 372 521 l 372 595 m 223 595 l 298 595 l 298 521 l 223 521 l 223 595 m 149 595 l 223 595 l 223 521 l 149 521 l 149 595 m 74 595 l 149 595 l 149 521 l 74 521 l 74 595 m 74 521 l 149 521 l 149 446 l 74 446 l 74 521 m 0 521 l 74 521 l 74 446 l 0 446 l 0 521 m 149 521 l 223 521 l 223 446 l 149 446 l 149 521 m 74 446 l 149 446 l 149 372 l 74 372 l 74 446 m 74 372 l 149 372 l 149 298 l 74 298 l 74 372 m 74 298 l 149 298 l 149 223 l 74 223 l 74 298 m 149 298 l 223 298 l 223 223 l 149 223 l 149 298 m 223 298 l 298 298 l 298 223 l 223 223 l 223 298 m 298 298 l 372 298 l 372 223 l 298 223 l 298 298 m 372 298 l 446 298 l 446 223 l 372 223 l 372 298 m 446 298 l 521 298 l 521 223 l 446 223 l 446 298 m 446 372 l 521 372 l 521 298 l 446 298 l 446 372 m 446 446 l 521 446 l 521 372 l 446 372 l 446 446 m 446 521 l 521 521 l 521 446 l 446 446 l 446 521 m 372 521 l 446 521 l 446 446 l 372 446 l 372 521 m 298 521 l 372 521 l 372 446 l 298 446 l 298 521 m 372 446 l 446 446 l 446 372 l 372 372 l 372 446 m 372 372 l 446 372 l 446 298 l 372 298 l 372 372 m 372 223 l 446 223 l 446 149 l 372 149 l 372 223 m 446 223 l 521 223 l 521 149 l 446 149 l 446 223 m 446 149 l 521 149 l 521 74 l 446 74 l 446 149 m 446 74 l 521 74 l 521 0 l 446 0 l 446 74 m 372 74 l 446 74 l 446 0 l 372 0 l 372 74 m 372 149 l 446 149 l 446 74 l 372 74 l 372 149 m 298 223 l 372 223 l 372 149 l 298 149 l 298 223 m 223 223 l 298 223 l 298 149 l 223 149 l 223 223 m 149 223 l 223 223 l 223 149 l 149 149 l 149 223 m 74 223 l 149 223 l 149 149 l 74 149 l 74 223 m 74 149 l 149 149 l 149 74 l 74 74 l 74 149 m 74 74 l 149 74 l 149 0 l 74 0 l 74 74 m 0 74 l 74 74 l 74 0 l 0 0 l 0 74 m 0 149 l 74 149 l 74 74 l 0 74 l 0 149 m 0 223 l 74 223 l 74 149 l 0 149 l 0 223 m 0 298 l 74 298 l 74 223 l 0 223 l 0 298 m 0 372 l 74 372 l 74 298 l 0 298 l 0 372 m 0 446 l 74 446 l 74 372 l 0 372 l 0 446 m 149 893 l 223 893 l 223 818 l 149 818 l 149 893 m 298 893 l 372 893 l 372 818 l 298 818 l 298 893 m 74 893 l 149 893 l 149 818 l 74 818 l 74 893 m 223 967 l 298 967 l 298 893 l 223 893 l 223 967 m 149 967 l 223 967 l 223 893 l 149 893 l 149 967 m 372 893 l 446 893 l 446 818 l 372 818 l 372 893 m 298 967 l 372 967 l 372 893 l 298 893 l 298 967 m 223 1042 l 298 1042 l 298 967 l 223 967 l 223 1042 z "},"Ä":{"ha":595,"x_min":0,"x_max":521,"o":"m 149 670 l 223 670 l 223 595 l 149 595 l 149 670 m 223 670 l 298 670 l 298 595 l 223 595 l 223 670 m 223 744 l 298 744 l 298 670 l 223 670 l 223 744 m 298 670 l 372 670 l 372 595 l 298 595 l 298 670 m 298 595 l 372 595 l 372 521 l 298 521 l 298 595 m 372 595 l 446 595 l 446 521 l 372 521 l 372 595 m 223 595 l 298 595 l 298 521 l 223 521 l 223 595 m 149 595 l 223 595 l 223 521 l 149 521 l 149 595 m 74 595 l 149 595 l 149 521 l 74 521 l 74 595 m 74 521 l 149 521 l 149 446 l 74 446 l 74 521 m 0 521 l 74 521 l 74 446 l 0 446 l 0 521 m 149 521 l 223 521 l 223 446 l 149 446 l 149 521 m 74 446 l 149 446 l 149 372 l 74 372 l 74 446 m 74 372 l 149 372 l 149 298 l 74 298 l 74 372 m 74 298 l 149 298 l 149 223 l 74 223 l 74 298 m 149 298 l 223 298 l 223 223 l 149 223 l 149 298 m 223 298 l 298 298 l 298 223 l 223 223 l 223 298 m 298 298 l 372 298 l 372 223 l 298 223 l 298 298 m 372 298 l 446 298 l 446 223 l 372 223 l 372 298 m 446 298 l 521 298 l 521 223 l 446 223 l 446 298 m 446 372 l 521 372 l 521 298 l 446 298 l 446 372 m 446 446 l 521 446 l 521 372 l 446 372 l 446 446 m 446 521 l 521 521 l 521 446 l 446 446 l 446 521 m 372 521 l 446 521 l 446 446 l 372 446 l 372 521 m 298 521 l 372 521 l 372 446 l 298 446 l 298 521 m 372 446 l 446 446 l 446 372 l 372 372 l 372 446 m 372 372 l 446 372 l 446 298 l 372 298 l 372 372 m 372 223 l 446 223 l 446 149 l 372 149 l 372 223 m 446 223 l 521 223 l 521 149 l 446 149 l 446 223 m 446 149 l 521 149 l 521 74 l 446 74 l 446 149 m 446 74 l 521 74 l 521 0 l 446 0 l 446 74 m 372 74 l 446 74 l 446 0 l 372 0 l 372 74 m 372 149 l 446 149 l 446 74 l 372 74 l 372 149 m 298 223 l 372 223 l 372 149 l 298 149 l 298 223 m 223 223 l 298 223 l 298 149 l 223 149 l 223 223 m 149 223 l 223 223 l 223 149 l 149 149 l 149 223 m 74 223 l 149 223 l 149 149 l 74 149 l 74 223 m 74 149 l 149 149 l 149 74 l 74 74 l 74 149 m 74 74 l 149 74 l 149 0 l 74 0 l 74 74 m 0 74 l 74 74 l 74 0 l 0 0 l 0 74 m 0 149 l 74 149 l 74 74 l 0 74 l 0 149 m 0 223 l 74 223 l 74 149 l 0 149 l 0 223 m 0 298 l 74 298 l 74 223 l 0 223 l 0 298 m 0 372 l 74 372 l 74 298 l 0 298 l 0 372 m 0 446 l 74 446 l 74 372 l 0 372 l 0 446 m 298 967 l 372 967 l 372 893 l 298 893 l 298 967 m 372 967 l 446 967 l 446 893 l 372 893 l 372 967 m 372 893 l 446 893 l 446 818 l 372 818 l 372 893 m 298 893 l 372 893 l 372 818 l 298 818 l 298 893 m 74 893 l 149 893 l 149 818 l 74 818 l 74 893 m 149 893 l 223 893 l 223 818 l 149 818 l 149 893 m 149 967 l 223 967 l 223 893 l 149 893 l 149 967 m 74 967 l 149 967 l 149 893 l 74 893 l 74 967 z "},"À":{"ha":595,"x_min":0,"x_max":521,"o":"m 149 670 l 223 670 l 223 595 l 149 595 l 149 670 m 223 670 l 298 670 l 298 595 l 223 595 l 223 670 m 223 744 l 298 744 l 298 670 l 223 670 l 223 744 m 298 670 l 372 670 l 372 595 l 298 595 l 298 670 m 298 595 l 372 595 l 372 521 l 298 521 l 298 595 m 372 595 l 446 595 l 446 521 l 372 521 l 372 595 m 223 595 l 298 595 l 298 521 l 223 521 l 223 595 m 149 595 l 223 595 l 223 521 l 149 521 l 149 595 m 74 595 l 149 595 l 149 521 l 74 521 l 74 595 m 74 521 l 149 521 l 149 446 l 74 446 l 74 521 m 0 521 l 74 521 l 74 446 l 0 446 l 0 521 m 149 521 l 223 521 l 223 446 l 149 446 l 149 521 m 74 446 l 149 446 l 149 372 l 74 372 l 74 446 m 74 372 l 149 372 l 149 298 l 74 298 l 74 372 m 74 298 l 149 298 l 149 223 l 74 223 l 74 298 m 149 298 l 223 298 l 223 223 l 149 223 l 149 298 m 223 298 l 298 298 l 298 223 l 223 223 l 223 298 m 298 298 l 372 298 l 372 223 l 298 223 l 298 298 m 372 298 l 446 298 l 446 223 l 372 223 l 372 298 m 446 298 l 521 298 l 521 223 l 446 223 l 446 298 m 446 372 l 521 372 l 521 298 l 446 298 l 446 372 m 446 446 l 521 446 l 521 372 l 446 372 l 446 446 m 446 521 l 521 521 l 521 446 l 446 446 l 446 521 m 372 521 l 446 521 l 446 446 l 372 446 l 372 521 m 298 521 l 372 521 l 372 446 l 298 446 l 298 521 m 372 446 l 446 446 l 446 372 l 372 372 l 372 446 m 372 372 l 446 372 l 446 298 l 372 298 l 372 372 m 372 223 l 446 223 l 446 149 l 372 149 l 372 223 m 446 223 l 521 223 l 521 149 l 446 149 l 446 223 m 446 149 l 521 149 l 521 74 l 446 74 l 446 149 m 446 74 l 521 74 l 521 0 l 446 0 l 446 74 m 372 74 l 446 74 l 446 0 l 372 0 l 372 74 m 372 149 l 446 149 l 446 74 l 372 74 l 372 149 m 298 223 l 372 223 l 372 149 l 298 149 l 298 223 m 223 223 l 298 223 l 298 149 l 223 149 l 223 223 m 149 223 l 223 223 l 223 149 l 149 149 l 149 223 m 74 223 l 149 223 l 149 149 l 74 149 l 74 223 m 74 149 l 149 149 l 149 74 l 74 74 l 74 149 m 74 74 l 149 74 l 149 0 l 74 0 l 74 74 m 0 74 l 74 74 l 74 0 l 0 0 l 0 74 m 0 149 l 74 149 l 74 74 l 0 74 l 0 149 m 0 223 l 74 223 l 74 149 l 0 149 l 0 223 m 0 298 l 74 298 l 74 223 l 0 223 l 0 298 m 0 372 l 74 372 l 74 298 l 0 298 l 0 372 m 0 446 l 74 446 l 74 372 l 0 372 l 0 446 m 223 967 l 298 967 l 298 893 l 223 893 l 223 967 m 223 893 l 298 893 l 298 818 l 223 818 l 223 893 m 149 967 l 223 967 l 223 893 l 149 893 l 149 967 m 298 893 l 372 893 l 372 818 l 298 818 l 298 893 m 149 1042 l 223 1042 l 223 967 l 149 967 l 149 1042 z "},"Ā":{"ha":595,"x_min":0,"x_max":521,"o":"m 149 670 l 223 670 l 223 595 l 149 595 l 149 670 m 223 670 l 298 670 l 298 595 l 223 595 l 223 670 m 223 744 l 298 744 l 298 670 l 223 670 l 223 744 m 298 670 l 372 670 l 372 595 l 298 595 l 298 670 m 298 595 l 372 595 l 372 521 l 298 521 l 298 595 m 372 595 l 446 595 l 446 521 l 372 521 l 372 595 m 223 595 l 298 595 l 298 521 l 223 521 l 223 595 m 149 595 l 223 595 l 223 521 l 149 521 l 149 595 m 74 595 l 149 595 l 149 521 l 74 521 l 74 595 m 74 521 l 149 521 l 149 446 l 74 446 l 74 521 m 0 521 l 74 521 l 74 446 l 0 446 l 0 521 m 149 521 l 223 521 l 223 446 l 149 446 l 149 521 m 74 446 l 149 446 l 149 372 l 74 372 l 74 446 m 74 372 l 149 372 l 149 298 l 74 298 l 74 372 m 74 298 l 149 298 l 149 223 l 74 223 l 74 298 m 149 298 l 223 298 l 223 223 l 149 223 l 149 298 m 223 298 l 298 298 l 298 223 l 223 223 l 223 298 m 298 298 l 372 298 l 372 223 l 298 223 l 298 298 m 372 298 l 446 298 l 446 223 l 372 223 l 372 298 m 446 298 l 521 298 l 521 223 l 446 223 l 446 298 m 446 372 l 521 372 l 521 298 l 446 298 l 446 372 m 446 446 l 521 446 l 521 372 l 446 372 l 446 446 m 446 521 l 521 521 l 521 446 l 446 446 l 446 521 m 372 521 l 446 521 l 446 446 l 372 446 l 372 521 m 298 521 l 372 521 l 372 446 l 298 446 l 298 521 m 372 446 l 446 446 l 446 372 l 372 372 l 372 446 m 372 372 l 446 372 l 446 298 l 372 298 l 372 372 m 372 223 l 446 223 l 446 149 l 372 149 l 372 223 m 446 223 l 521 223 l 521 149 l 446 149 l 446 223 m 446 149 l 521 149 l 521 74 l 446 74 l 446 149 m 446 74 l 521 74 l 521 0 l 446 0 l 446 74 m 372 74 l 446 74 l 446 0 l 372 0 l 372 74 m 372 149 l 446 149 l 446 74 l 372 74 l 372 149 m 298 223 l 372 223 l 372 149 l 298 149 l 298 223 m 223 223 l 298 223 l 298 149 l 223 149 l 223 223 m 149 223 l 223 223 l 223 149 l 149 149 l 149 223 m 74 223 l 149 223 l 149 149 l 74 149 l 74 223 m 74 149 l 149 149 l 149 74 l 74 74 l 74 149 m 74 74 l 149 74 l 149 0 l 74 0 l 74 74 m 0 74 l 74 74 l 74 0 l 0 0 l 0 74 m 0 149 l 74 149 l 74 74 l 0 74 l 0 149 m 0 223 l 74 223 l 74 149 l 0 149 l 0 223 m 0 298 l 74 298 l 74 223 l 0 223 l 0 298 m 0 372 l 74 372 l 74 298 l 0 298 l 0 372 m 0 446 l 74 446 l 74 372 l 0 372 l 0 446 m 149 967 l 223 967 l 223 893 l 149 893 l 149 967 m 223 967 l 298 967 l 298 893 l 223 893 l 223 967 m 223 893 l 298 893 l 298 818 l 223 818 l 223 893 m 149 893 l 223 893 l 223 818 l 149 818 l 149 893 m 74 967 l 149 967 l 149 893 l 74 893 l 74 967 m 74 893 l 149 893 l 149 818 l 74 818 l 74 893 m 298 967 l 372 967 l 372 893 l 298 893 l 298 967 m 298 893 l 372 893 l 372 818 l 298 818 l 298 893 m 372 967 l 446 967 l 446 893 l 372 893 l 372 967 m 372 893 l 446 893 l 446 818 l 372 818 l 372 893 z "},"Ą":{"ha":595,"x_min":0,"x_max":521,"o":"m 149 670 l 223 670 l 223 595 l 149 595 l 149 670 m 223 670 l 298 670 l 298 595 l 223 595 l 223 670 m 223 744 l 298 744 l 298 670 l 223 670 l 223 744 m 298 670 l 372 670 l 372 595 l 298 595 l 298 670 m 298 595 l 372 595 l 372 521 l 298 521 l 298 595 m 372 595 l 446 595 l 446 521 l 372 521 l 372 595 m 223 595 l 298 595 l 298 521 l 223 521 l 223 595 m 149 595 l 223 595 l 223 521 l 149 521 l 149 595 m 74 595 l 149 595 l 149 521 l 74 521 l 74 595 m 74 521 l 149 521 l 149 446 l 74 446 l 74 521 m 0 521 l 74 521 l 74 446 l 0 446 l 0 521 m 149 521 l 223 521 l 223 446 l 149 446 l 149 521 m 74 446 l 149 446 l 149 372 l 74 372 l 74 446 m 74 372 l 149 372 l 149 298 l 74 298 l 74 372 m 74 298 l 149 298 l 149 223 l 74 223 l 74 298 m 149 298 l 223 298 l 223 223 l 149 223 l 149 298 m 223 298 l 298 298 l 298 223 l 223 223 l 223 298 m 298 298 l 372 298 l 372 223 l 298 223 l 298 298 m 372 298 l 446 298 l 446 223 l 372 223 l 372 298 m 446 298 l 521 298 l 521 223 l 446 223 l 446 298 m 446 372 l 521 372 l 521 298 l 446 298 l 446 372 m 446 446 l 521 446 l 521 372 l 446 372 l 446 446 m 446 521 l 521 521 l 521 446 l 446 446 l 446 521 m 372 521 l 446 521 l 446 446 l 372 446 l 372 521 m 298 521 l 372 521 l 372 446 l 298 446 l 298 521 m 372 446 l 446 446 l 446 372 l 372 372 l 372 446 m 372 372 l 446 372 l 446 298 l 372 298 l 372 372 m 372 223 l 446 223 l 446 149 l 372 149 l 372 223 m 446 223 l 521 223 l 521 149 l 446 149 l 446 223 m 446 149 l 521 149 l 521 74 l 446 74 l 446 149 m 446 74 l 521 74 l 521 0 l 446 0 l 446 74 m 372 74 l 446 74 l 446 0 l 372 0 l 372 74 m 372 149 l 446 149 l 446 74 l 372 74 l 372 149 m 298 223 l 372 223 l 372 149 l 298 149 l 298 223 m 223 223 l 298 223 l 298 149 l 223 149 l 223 223 m 149 223 l 223 223 l 223 149 l 149 149 l 149 223 m 74 223 l 149 223 l 149 149 l 74 149 l 74 223 m 74 149 l 149 149 l 149 74 l 74 74 l 74 149 m 74 74 l 149 74 l 149 0 l 74 0 l 74 74 m 0 74 l 74 74 l 74 0 l 0 0 l 0 74 m 0 149 l 74 149 l 74 74 l 0 74 l 0 149 m 0 223 l 74 223 l 74 149 l 0 149 l 0 223 m 0 298 l 74 298 l 74 223 l 0 223 l 0 298 m 0 372 l 74 372 l 74 298 l 0 298 l 0 372 m 0 446 l 74 446 l 74 372 l 0 372 l 0 446 m 521 0 l 521 -74 l 446 -74 l 446 0 l 521 0 m 446 -74 l 446 -149 l 372 -149 l 372 -74 l 446 -74 m 446 -149 l 446 -223 l 372 -223 l 372 -149 l 446 -149 m 521 -149 l 521 -223 l 446 -223 l 446 -149 l 521 -149 m 372 -223 l 446 -223 l 446 -298 l 372 -298 l 372 -223 m 446 -223 l 521 -223 l 521 -298 l 446 -298 l 446 -223 z "},"Å":{"ha":595,"x_min":0,"x_max":521,"o":"m 149 670 l 223 670 l 223 595 l 149 595 l 149 670 m 223 670 l 298 670 l 298 595 l 223 595 l 223 670 m 223 744 l 298 744 l 298 670 l 223 670 l 223 744 m 298 670 l 372 670 l 372 595 l 298 595 l 298 670 m 298 595 l 372 595 l 372 521 l 298 521 l 298 595 m 372 595 l 446 595 l 446 521 l 372 521 l 372 595 m 223 595 l 298 595 l 298 521 l 223 521 l 223 595 m 149 595 l 223 595 l 223 521 l 149 521 l 149 595 m 74 595 l 149 595 l 149 521 l 74 521 l 74 595 m 74 521 l 149 521 l 149 446 l 74 446 l 74 521 m 0 521 l 74 521 l 74 446 l 0 446 l 0 521 m 149 521 l 223 521 l 223 446 l 149 446 l 149 521 m 74 446 l 149 446 l 149 372 l 74 372 l 74 446 m 74 372 l 149 372 l 149 298 l 74 298 l 74 372 m 74 298 l 149 298 l 149 223 l 74 223 l 74 298 m 149 298 l 223 298 l 223 223 l 149 223 l 149 298 m 223 298 l 298 298 l 298 223 l 223 223 l 223 298 m 298 298 l 372 298 l 372 223 l 298 223 l 298 298 m 372 298 l 446 298 l 446 223 l 372 223 l 372 298 m 446 298 l 521 298 l 521 223 l 446 223 l 446 298 m 446 372 l 521 372 l 521 298 l 446 298 l 446 372 m 446 446 l 521 446 l 521 372 l 446 372 l 446 446 m 446 521 l 521 521 l 521 446 l 446 446 l 446 521 m 372 521 l 446 521 l 446 446 l 372 446 l 372 521 m 298 521 l 372 521 l 372 446 l 298 446 l 298 521 m 372 446 l 446 446 l 446 372 l 372 372 l 372 446 m 372 372 l 446 372 l 446 298 l 372 298 l 372 372 m 372 223 l 446 223 l 446 149 l 372 149 l 372 223 m 446 223 l 521 223 l 521 149 l 446 149 l 446 223 m 446 149 l 521 149 l 521 74 l 446 74 l 446 149 m 446 74 l 521 74 l 521 0 l 446 0 l 446 74 m 372 74 l 446 74 l 446 0 l 372 0 l 372 74 m 372 149 l 446 149 l 446 74 l 372 74 l 372 149 m 298 223 l 372 223 l 372 149 l 298 149 l 298 223 m 223 223 l 298 223 l 298 149 l 223 149 l 223 223 m 149 223 l 223 223 l 223 149 l 149 149 l 149 223 m 74 223 l 149 223 l 149 149 l 74 149 l 74 223 m 74 149 l 149 149 l 149 74 l 74 74 l 74 149 m 74 74 l 149 74 l 149 0 l 74 0 l 74 74 m 0 74 l 74 74 l 74 0 l 0 0 l 0 74 m 0 149 l 74 149 l 74 74 l 0 74 l 0 149 m 0 223 l 74 223 l 74 149 l 0 149 l 0 223 m 0 298 l 74 298 l 74 223 l 0 223 l 0 298 m 0 372 l 74 372 l 74 298 l 0 298 l 0 372 m 0 446 l 74 446 l 74 372 l 0 372 l 0 446 m 149 893 l 223 893 l 223 818 l 149 818 l 149 893 m 223 893 l 298 893 l 298 818 l 223 818 l 223 893 m 223 1042 l 298 1042 l 298 967 l 223 967 l 223 1042 m 149 1042 l 223 1042 l 223 967 l 149 967 l 149 1042 m 298 1042 l 372 1042 l 372 967 l 298 967 l 298 1042 m 298 967 l 372 967 l 372 893 l 298 893 l 298 967 m 298 893 l 372 893 l 372 818 l 298 818 l 298 893 m 149 967 l 223 967 l 223 893 l 149 893 l 149 967 z "},"Ã":{"ha":595,"x_min":0,"x_max":521,"o":"m 149 670 l 223 670 l 223 595 l 149 595 l 149 670 m 223 670 l 298 670 l 298 595 l 223 595 l 223 670 m 223 744 l 298 744 l 298 670 l 223 670 l 223 744 m 298 670 l 372 670 l 372 595 l 298 595 l 298 670 m 298 595 l 372 595 l 372 521 l 298 521 l 298 595 m 372 595 l 446 595 l 446 521 l 372 521 l 372 595 m 223 595 l 298 595 l 298 521 l 223 521 l 223 595 m 149 595 l 223 595 l 223 521 l 149 521 l 149 595 m 74 595 l 149 595 l 149 521 l 74 521 l 74 595 m 74 521 l 149 521 l 149 446 l 74 446 l 74 521 m 0 521 l 74 521 l 74 446 l 0 446 l 0 521 m 149 521 l 223 521 l 223 446 l 149 446 l 149 521 m 74 446 l 149 446 l 149 372 l 74 372 l 74 446 m 74 372 l 149 372 l 149 298 l 74 298 l 74 372 m 74 298 l 149 298 l 149 223 l 74 223 l 74 298 m 149 298 l 223 298 l 223 223 l 149 223 l 149 298 m 223 298 l 298 298 l 298 223 l 223 223 l 223 298 m 298 298 l 372 298 l 372 223 l 298 223 l 298 298 m 372 298 l 446 298 l 446 223 l 372 223 l 372 298 m 446 298 l 521 298 l 521 223 l 446 223 l 446 298 m 446 372 l 521 372 l 521 298 l 446 298 l 446 372 m 446 446 l 521 446 l 521 372 l 446 372 l 446 446 m 446 521 l 521 521 l 521 446 l 446 446 l 446 521 m 372 521 l 446 521 l 446 446 l 372 446 l 372 521 m 298 521 l 372 521 l 372 446 l 298 446 l 298 521 m 372 446 l 446 446 l 446 372 l 372 372 l 372 446 m 372 372 l 446 372 l 446 298 l 372 298 l 372 372 m 372 223 l 446 223 l 446 149 l 372 149 l 372 223 m 446 223 l 521 223 l 521 149 l 446 149 l 446 223 m 446 149 l 521 149 l 521 74 l 446 74 l 446 149 m 446 74 l 521 74 l 521 0 l 446 0 l 446 74 m 372 74 l 446 74 l 446 0 l 372 0 l 372 74 m 372 149 l 446 149 l 446 74 l 372 74 l 372 149 m 298 223 l 372 223 l 372 149 l 298 149 l 298 223 m 223 223 l 298 223 l 298 149 l 223 149 l 223 223 m 149 223 l 223 223 l 223 149 l 149 149 l 149 223 m 74 223 l 149 223 l 149 149 l 74 149 l 74 223 m 74 149 l 149 149 l 149 74 l 74 74 l 74 149 m 74 74 l 149 74 l 149 0 l 74 0 l 74 74 m 0 74 l 74 74 l 74 0 l 0 0 l 0 74 m 0 149 l 74 149 l 74 74 l 0 74 l 0 149 m 0 223 l 74 223 l 74 149 l 0 149 l 0 223 m 0 298 l 74 298 l 74 223 l 0 223 l 0 298 m 0 372 l 74 372 l 74 298 l 0 298 l 0 372 m 0 446 l 74 446 l 74 372 l 0 372 l 0 446 m 223 967 l 298 967 l 298 893 l 223 893 l 223 967 m 74 1042 l 149 1042 l 149 967 l 74 967 l 74 1042 m 149 1042 l 223 1042 l 223 967 l 149 967 l 149 1042 m 298 967 l 372 967 l 372 893 l 298 893 l 298 967 m 372 967 l 446 967 l 446 893 l 372 893 l 372 967 m 372 1042 l 446 1042 l 446 967 l 372 967 l 372 1042 m 298 893 l 372 893 l 372 818 l 298 818 l 298 893 m 223 1042 l 298 1042 l 298 967 l 223 967 l 223 1042 m 149 1116 l 223 1116 l 223 1042 l 149 1042 l 149 1116 m 74 967 l 149 967 l 149 893 l 74 893 l 74 967 z "},"Æ":{"ha":967,"x_min":0,"x_max":893,"o":"m 149 670 l 223 670 l 223 595 l 149 595 l 149 670 m 223 670 l 298 670 l 298 595 l 223 595 l 223 670 m 223 744 l 298 744 l 298 670 l 223 670 l 223 744 m 298 670 l 372 670 l 372 595 l 298 595 l 298 670 m 298 595 l 372 595 l 372 521 l 298 521 l 298 595 m 372 595 l 446 595 l 446 521 l 372 521 l 372 595 m 223 595 l 298 595 l 298 521 l 223 521 l 223 595 m 149 595 l 223 595 l 223 521 l 149 521 l 149 595 m 74 595 l 149 595 l 149 521 l 74 521 l 74 595 m 74 521 l 149 521 l 149 446 l 74 446 l 74 521 m 0 521 l 74 521 l 74 446 l 0 446 l 0 521 m 149 521 l 223 521 l 223 446 l 149 446 l 149 521 m 74 446 l 149 446 l 149 372 l 74 372 l 74 446 m 74 372 l 149 372 l 149 298 l 74 298 l 74 372 m 74 298 l 149 298 l 149 223 l 74 223 l 74 298 m 149 298 l 223 298 l 223 223 l 149 223 l 149 298 m 223 298 l 298 298 l 298 223 l 223 223 l 223 298 m 298 298 l 372 298 l 372 223 l 298 223 l 298 298 m 372 298 l 446 298 l 446 223 l 372 223 l 372 298 m 372 521 l 446 521 l 446 446 l 372 446 l 372 521 m 298 521 l 372 521 l 372 446 l 298 446 l 298 521 m 372 446 l 446 446 l 446 372 l 372 372 l 372 446 m 372 372 l 446 372 l 446 298 l 372 298 l 372 372 m 372 223 l 446 223 l 446 149 l 372 149 l 372 223 m 372 74 l 446 74 l 446 0 l 372 0 l 372 74 m 372 149 l 446 149 l 446 74 l 372 74 l 372 149 m 298 223 l 372 223 l 372 149 l 298 149 l 298 223 m 223 223 l 298 223 l 298 149 l 223 149 l 223 223 m 149 223 l 223 223 l 223 149 l 149 149 l 149 223 m 74 223 l 149 223 l 149 149 l 74 149 l 74 223 m 74 149 l 149 149 l 149 74 l 74 74 l 74 149 m 74 74 l 149 74 l 149 0 l 74 0 l 74 74 m 0 74 l 74 74 l 74 0 l 0 0 l 0 74 m 0 149 l 74 149 l 74 74 l 0 74 l 0 149 m 0 223 l 74 223 l 74 149 l 0 149 l 0 223 m 0 298 l 74 298 l 74 223 l 0 223 l 0 298 m 0 372 l 74 372 l 74 298 l 0 298 l 0 372 m 0 446 l 74 446 l 74 372 l 0 372 l 0 446 m 446 744 l 521 744 l 521 670 l 446 670 l 446 744 m 521 744 l 595 744 l 595 670 l 521 670 l 521 744 m 521 670 l 595 670 l 595 595 l 521 595 l 521 670 m 521 595 l 595 595 l 595 521 l 521 521 l 521 595 m 521 521 l 595 521 l 595 446 l 521 446 l 521 521 m 446 521 l 521 521 l 521 446 l 446 446 l 446 521 m 446 595 l 521 595 l 521 521 l 446 521 l 446 595 m 446 670 l 521 670 l 521 595 l 446 595 l 446 670 m 446 446 l 521 446 l 521 372 l 446 372 l 446 446 m 446 372 l 521 372 l 521 298 l 446 298 l 446 372 m 446 298 l 521 298 l 521 223 l 446 223 l 446 298 m 521 372 l 595 372 l 595 298 l 521 298 l 521 372 m 521 446 l 595 446 l 595 372 l 521 372 l 521 446 m 521 298 l 595 298 l 595 223 l 521 223 l 521 298 m 521 223 l 595 223 l 595 149 l 521 149 l 521 223 m 446 149 l 521 149 l 521 74 l 446 74 l 446 149 m 446 223 l 521 223 l 521 149 l 446 149 l 446 223 m 446 74 l 521 74 l 521 0 l 446 0 l 446 74 m 521 74 l 595 74 l 595 0 l 521 0 l 521 74 m 521 149 l 595 149 l 595 74 l 521 74 l 521 149 m 595 74 l 670 74 l 670 0 l 595 0 l 595 74 m 670 74 l 744 74 l 744 0 l 670 0 l 670 74 m 744 74 l 818 74 l 818 0 l 744 0 l 744 74 m 744 149 l 818 149 l 818 74 l 744 74 l 744 149 m 670 149 l 744 149 l 744 74 l 670 74 l 670 149 m 595 149 l 670 149 l 670 74 l 595 74 l 595 149 m 595 744 l 670 744 l 670 670 l 595 670 l 595 744 m 670 744 l 744 744 l 744 670 l 670 670 l 670 744 m 744 744 l 818 744 l 818 670 l 744 670 l 744 744 m 818 744 l 893 744 l 893 670 l 818 670 l 818 744 m 744 670 l 818 670 l 818 595 l 744 595 l 744 670 m 670 670 l 744 670 l 744 595 l 670 595 l 670 670 m 595 670 l 670 670 l 670 595 l 595 595 l 595 670 m 595 372 l 670 372 l 670 298 l 595 298 l 595 372 m 670 446 l 744 446 l 744 372 l 670 372 l 670 446 m 595 446 l 670 446 l 670 372 l 595 372 l 595 446 m 670 372 l 744 372 l 744 298 l 670 298 l 670 372 m 818 670 l 893 670 l 893 595 l 818 595 l 818 670 m 818 149 l 893 149 l 893 74 l 818 74 l 818 149 m 818 74 l 893 74 l 893 0 l 818 0 l 818 74 m 744 446 l 818 446 l 818 372 l 744 372 l 744 446 m 744 372 l 818 372 l 818 298 l 744 298 l 744 372 z "},"B":{"ha":595,"x_min":0,"x_max":521,"o":"m 0 744 l 74 744 l 74 670 l 0 670 l 0 744 m 74 744 l 149 744 l 149 670 l 74 670 l 74 744 m 149 744 l 223 744 l 223 670 l 149 670 l 149 744 m 223 744 l 298 744 l 298 670 l 223 670 l 223 744 m 298 744 l 372 744 l 372 670 l 298 670 l 298 744 m 372 744 l 446 744 l 446 670 l 372 670 l 372 744 m 372 670 l 446 670 l 446 595 l 372 595 l 372 670 m 298 670 l 372 670 l 372 595 l 298 595 l 298 670 m 223 670 l 298 670 l 298 595 l 223 595 l 223 670 m 149 670 l 223 670 l 223 595 l 149 595 l 149 670 m 74 670 l 149 670 l 149 595 l 74 595 l 74 670 m 0 670 l 74 670 l 74 595 l 0 595 l 0 670 m 446 670 l 521 670 l 521 595 l 446 595 l 446 670 m 446 595 l 521 595 l 521 521 l 446 521 l 446 595 m 446 521 l 521 521 l 521 446 l 446 446 l 446 521 m 372 521 l 446 521 l 446 446 l 372 446 l 372 521 m 372 595 l 446 595 l 446 521 l 372 521 l 372 595 m 372 446 l 446 446 l 446 372 l 372 372 l 372 446 m 298 446 l 372 446 l 372 372 l 298 372 l 298 446 m 223 446 l 298 446 l 298 372 l 223 372 l 223 446 m 149 446 l 223 446 l 223 372 l 149 372 l 149 446 m 74 446 l 149 446 l 149 372 l 74 372 l 74 446 m 74 521 l 149 521 l 149 446 l 74 446 l 74 521 m 74 595 l 149 595 l 149 521 l 74 521 l 74 595 m 0 595 l 74 595 l 74 521 l 0 521 l 0 595 m 0 521 l 74 521 l 74 446 l 0 446 l 0 521 m 0 446 l 74 446 l 74 372 l 0 372 l 0 446 m 0 372 l 74 372 l 74 298 l 0 298 l 0 372 m 74 372 l 149 372 l 149 298 l 74 298 l 74 372 m 149 372 l 223 372 l 223 298 l 149 298 l 149 372 m 223 372 l 298 372 l 298 298 l 223 298 l 223 372 m 298 372 l 372 372 l 372 298 l 298 298 l 298 372 m 372 372 l 446 372 l 446 298 l 372 298 l 372 372 m 446 372 l 521 372 l 521 298 l 446 298 l 446 372 m 446 298 l 521 298 l 521 223 l 446 223 l 446 298 m 372 298 l 446 298 l 446 223 l 372 223 l 372 298 m 372 149 l 446 149 l 446 74 l 372 74 l 372 149 m 446 149 l 521 149 l 521 74 l 446 74 l 446 149 m 446 223 l 521 223 l 521 149 l 446 149 l 446 223 m 372 223 l 446 223 l 446 149 l 372 149 l 372 223 m 372 74 l 446 74 l 446 0 l 372 0 l 372 74 m 298 74 l 372 74 l 372 0 l 298 0 l 298 74 m 223 74 l 298 74 l 298 0 l 223 0 l 223 74 m 149 74 l 223 74 l 223 0 l 149 0 l 149 74 m 74 74 l 149 74 l 149 0 l 74 0 l 74 74 m 0 74 l 74 74 l 74 0 l 0 0 l 0 74 m 0 149 l 74 149 l 74 74 l 0 74 l 0 149 m 0 223 l 74 223 l 74 149 l 0 149 l 0 223 m 0 298 l 74 298 l 74 223 l 0 223 l 0 298 m 74 298 l 149 298 l 149 223 l 74 223 l 74 298 m 74 223 l 149 223 l 149 149 l 74 149 l 74 223 m 74 149 l 149 149 l 149 74 l 74 74 l 74 149 m 149 149 l 223 149 l 223 74 l 149 74 l 149 149 m 223 149 l 298 149 l 298 74 l 223 74 l 223 149 m 298 149 l 372 149 l 372 74 l 298 74 l 298 149 z "},"C":{"ha":595,"x_min":0,"x_max":521,"o":"m 149 744 l 223 744 l 223 670 l 149 670 l 149 744 m 74 744 l 149 744 l 149 670 l 74 670 l 74 744 m 74 670 l 149 670 l 149 595 l 74 595 l 74 670 m 149 670 l 223 670 l 223 595 l 149 595 l 149 670 m 223 670 l 298 670 l 298 595 l 223 595 l 223 670 m 223 744 l 298 744 l 298 670 l 223 670 l 223 744 m 298 744 l 372 744 l 372 670 l 298 670 l 298 744 m 372 744 l 446 744 l 446 670 l 372 670 l 372 744 m 372 670 l 446 670 l 446 595 l 372 595 l 372 670 m 298 670 l 372 670 l 372 595 l 298 595 l 298 670 m 372 595 l 446 595 l 446 521 l 372 521 l 372 595 m 446 670 l 521 670 l 521 595 l 446 595 l 446 670 m 446 595 l 521 595 l 521 521 l 446 521 l 446 595 m 446 223 l 521 223 l 521 149 l 446 149 l 446 223 m 446 149 l 521 149 l 521 74 l 446 74 l 446 149 m 372 149 l 446 149 l 446 74 l 372 74 l 372 149 m 372 223 l 446 223 l 446 149 l 372 149 l 372 223 m 298 149 l 372 149 l 372 74 l 298 74 l 298 149 m 372 74 l 446 74 l 446 0 l 372 0 l 372 74 m 298 74 l 372 74 l 372 0 l 298 0 l 298 74 m 223 74 l 298 74 l 298 0 l 223 0 l 223 74 m 223 149 l 298 149 l 298 74 l 223 74 l 223 149 m 149 74 l 223 74 l 223 0 l 149 0 l 149 74 m 74 74 l 149 74 l 149 0 l 74 0 l 74 74 m 74 149 l 149 149 l 149 74 l 74 74 l 74 149 m 149 149 l 223 149 l 223 74 l 149 74 l 149 149 m 149 223 l 223 223 l 223 149 l 149 149 l 149 223 m 74 223 l 149 223 l 149 149 l 74 149 l 74 223 m 0 149 l 74 149 l 74 74 l 0 74 l 0 149 m 0 223 l 74 223 l 74 149 l 0 149 l 0 223 m 0 298 l 74 298 l 74 223 l 0 223 l 0 298 m 0 372 l 74 372 l 74 298 l 0 298 l 0 372 m 0 446 l 74 446 l 74 372 l 0 372 l 0 446 m 0 521 l 74 521 l 74 446 l 0 446 l 0 521 m 0 595 l 74 595 l 74 521 l 0 521 l 0 595 m 74 595 l 149 595 l 149 521 l 74 521 l 74 595 m 0 670 l 74 670 l 74 595 l 0 595 l 0 670 m 149 595 l 223 595 l 223 521 l 149 521 l 149 595 m 74 521 l 149 521 l 149 446 l 74 446 l 74 521 m 74 446 l 149 446 l 149 372 l 74 372 l 74 446 m 74 372 l 149 372 l 149 298 l 74 298 l 74 372 m 74 298 l 149 298 l 149 223 l 74 223 l 74 298 z "},"Ć":{"ha":595,"x_min":0,"x_max":521,"o":"m 149 744 l 223 744 l 223 670 l 149 670 l 149 744 m 74 744 l 149 744 l 149 670 l 74 670 l 74 744 m 74 670 l 149 670 l 149 595 l 74 595 l 74 670 m 149 670 l 223 670 l 223 595 l 149 595 l 149 670 m 223 670 l 298 670 l 298 595 l 223 595 l 223 670 m 223 744 l 298 744 l 298 670 l 223 670 l 223 744 m 298 744 l 372 744 l 372 670 l 298 670 l 298 744 m 372 744 l 446 744 l 446 670 l 372 670 l 372 744 m 372 670 l 446 670 l 446 595 l 372 595 l 372 670 m 298 670 l 372 670 l 372 595 l 298 595 l 298 670 m 372 595 l 446 595 l 446 521 l 372 521 l 372 595 m 446 670 l 521 670 l 521 595 l 446 595 l 446 670 m 446 595 l 521 595 l 521 521 l 446 521 l 446 595 m 446 223 l 521 223 l 521 149 l 446 149 l 446 223 m 446 149 l 521 149 l 521 74 l 446 74 l 446 149 m 372 149 l 446 149 l 446 74 l 372 74 l 372 149 m 372 223 l 446 223 l 446 149 l 372 149 l 372 223 m 298 149 l 372 149 l 372 74 l 298 74 l 298 149 m 372 74 l 446 74 l 446 0 l 372 0 l 372 74 m 298 74 l 372 74 l 372 0 l 298 0 l 298 74 m 223 74 l 298 74 l 298 0 l 223 0 l 223 74 m 223 149 l 298 149 l 298 74 l 223 74 l 223 149 m 149 74 l 223 74 l 223 0 l 149 0 l 149 74 m 74 74 l 149 74 l 149 0 l 74 0 l 74 74 m 74 149 l 149 149 l 149 74 l 74 74 l 74 149 m 149 149 l 223 149 l 223 74 l 149 74 l 149 149 m 149 223 l 223 223 l 223 149 l 149 149 l 149 223 m 74 223 l 149 223 l 149 149 l 74 149 l 74 223 m 0 149 l 74 149 l 74 74 l 0 74 l 0 149 m 0 223 l 74 223 l 74 149 l 0 149 l 0 223 m 0 298 l 74 298 l 74 223 l 0 223 l 0 298 m 0 372 l 74 372 l 74 298 l 0 298 l 0 372 m 0 446 l 74 446 l 74 372 l 0 372 l 0 446 m 0 521 l 74 521 l 74 446 l 0 446 l 0 521 m 0 595 l 74 595 l 74 521 l 0 521 l 0 595 m 74 595 l 149 595 l 149 521 l 74 521 l 74 595 m 0 670 l 74 670 l 74 595 l 0 595 l 0 670 m 149 595 l 223 595 l 223 521 l 149 521 l 149 595 m 74 521 l 149 521 l 149 446 l 74 446 l 74 521 m 74 446 l 149 446 l 149 372 l 74 372 l 74 446 m 74 372 l 149 372 l 149 298 l 74 298 l 74 372 m 74 298 l 149 298 l 149 223 l 74 223 l 74 298 m 298 967 l 298 893 l 223 893 l 223 967 l 298 967 m 298 893 l 298 818 l 223 818 l 223 893 l 298 893 m 372 967 l 372 893 l 298 893 l 298 967 l 372 967 m 372 1042 l 372 967 l 298 967 l 298 1042 l 372 1042 z "},"Č":{"ha":595,"x_min":0,"x_max":521,"o":"m 149 744 l 223 744 l 223 670 l 149 670 l 149 744 m 74 744 l 149 744 l 149 670 l 74 670 l 74 744 m 74 670 l 149 670 l 149 595 l 74 595 l 74 670 m 149 670 l 223 670 l 223 595 l 149 595 l 149 670 m 223 670 l 298 670 l 298 595 l 223 595 l 223 670 m 223 744 l 298 744 l 298 670 l 223 670 l 223 744 m 298 744 l 372 744 l 372 670 l 298 670 l 298 744 m 372 744 l 446 744 l 446 670 l 372 670 l 372 744 m 372 670 l 446 670 l 446 595 l 372 595 l 372 670 m 298 670 l 372 670 l 372 595 l 298 595 l 298 670 m 372 595 l 446 595 l 446 521 l 372 521 l 372 595 m 446 670 l 521 670 l 521 595 l 446 595 l 446 670 m 446 595 l 521 595 l 521 521 l 446 521 l 446 595 m 446 223 l 521 223 l 521 149 l 446 149 l 446 223 m 446 149 l 521 149 l 521 74 l 446 74 l 446 149 m 372 149 l 446 149 l 446 74 l 372 74 l 372 149 m 372 223 l 446 223 l 446 149 l 372 149 l 372 223 m 298 149 l 372 149 l 372 74 l 298 74 l 298 149 m 372 74 l 446 74 l 446 0 l 372 0 l 372 74 m 298 74 l 372 74 l 372 0 l 298 0 l 298 74 m 223 74 l 298 74 l 298 0 l 223 0 l 223 74 m 223 149 l 298 149 l 298 74 l 223 74 l 223 149 m 149 74 l 223 74 l 223 0 l 149 0 l 149 74 m 74 74 l 149 74 l 149 0 l 74 0 l 74 74 m 74 149 l 149 149 l 149 74 l 74 74 l 74 149 m 149 149 l 223 149 l 223 74 l 149 74 l 149 149 m 149 223 l 223 223 l 223 149 l 149 149 l 149 223 m 74 223 l 149 223 l 149 149 l 74 149 l 74 223 m 0 149 l 74 149 l 74 74 l 0 74 l 0 149 m 0 223 l 74 223 l 74 149 l 0 149 l 0 223 m 0 298 l 74 298 l 74 223 l 0 223 l 0 298 m 0 372 l 74 372 l 74 298 l 0 298 l 0 372 m 0 446 l 74 446 l 74 372 l 0 372 l 0 446 m 0 521 l 74 521 l 74 446 l 0 446 l 0 521 m 0 595 l 74 595 l 74 521 l 0 521 l 0 595 m 74 595 l 149 595 l 149 521 l 74 521 l 74 595 m 0 670 l 74 670 l 74 595 l 0 595 l 0 670 m 149 595 l 223 595 l 223 521 l 149 521 l 149 595 m 74 521 l 149 521 l 149 446 l 74 446 l 74 521 m 74 446 l 149 446 l 149 372 l 74 372 l 74 446 m 74 372 l 149 372 l 149 298 l 74 298 l 74 372 m 74 298 l 149 298 l 149 223 l 74 223 l 74 298 m 149 967 l 149 1042 l 223 1042 l 223 967 l 149 967 m 298 967 l 298 1042 l 372 1042 l 372 967 l 298 967 m 74 967 l 74 1042 l 149 1042 l 149 967 l 74 967 m 223 893 l 223 967 l 298 967 l 298 893 l 223 893 m 149 893 l 149 967 l 223 967 l 223 893 l 149 893 m 372 1042 l 446 1042 l 446 967 l 372 967 l 372 1042 m 298 967 l 372 967 l 372 893 l 298 893 l 298 967 m 223 893 l 298 893 l 298 818 l 223 818 l 223 893 z "},"Ç":{"ha":595,"x_min":0,"x_max":521,"o":"m 149 744 l 223 744 l 223 670 l 149 670 l 149 744 m 74 744 l 149 744 l 149 670 l 74 670 l 74 744 m 74 670 l 149 670 l 149 595 l 74 595 l 74 670 m 149 670 l 223 670 l 223 595 l 149 595 l 149 670 m 223 670 l 298 670 l 298 595 l 223 595 l 223 670 m 223 744 l 298 744 l 298 670 l 223 670 l 223 744 m 298 744 l 372 744 l 372 670 l 298 670 l 298 744 m 372 744 l 446 744 l 446 670 l 372 670 l 372 744 m 372 670 l 446 670 l 446 595 l 372 595 l 372 670 m 298 670 l 372 670 l 372 595 l 298 595 l 298 670 m 372 595 l 446 595 l 446 521 l 372 521 l 372 595 m 446 670 l 521 670 l 521 595 l 446 595 l 446 670 m 446 595 l 521 595 l 521 521 l 446 521 l 446 595 m 446 223 l 521 223 l 521 149 l 446 149 l 446 223 m 446 149 l 521 149 l 521 74 l 446 74 l 446 149 m 372 149 l 446 149 l 446 74 l 372 74 l 372 149 m 372 223 l 446 223 l 446 149 l 372 149 l 372 223 m 298 149 l 372 149 l 372 74 l 298 74 l 298 149 m 372 74 l 446 74 l 446 0 l 372 0 l 372 74 m 298 74 l 372 74 l 372 0 l 298 0 l 298 74 m 223 74 l 298 74 l 298 0 l 223 0 l 223 74 m 223 149 l 298 149 l 298 74 l 223 74 l 223 149 m 149 74 l 223 74 l 223 0 l 149 0 l 149 74 m 74 74 l 149 74 l 149 0 l 74 0 l 74 74 m 74 149 l 149 149 l 149 74 l 74 74 l 74 149 m 149 149 l 223 149 l 223 74 l 149 74 l 149 149 m 149 223 l 223 223 l 223 149 l 149 149 l 149 223 m 74 223 l 149 223 l 149 149 l 74 149 l 74 223 m 0 149 l 74 149 l 74 74 l 0 74 l 0 149 m 0 223 l 74 223 l 74 149 l 0 149 l 0 223 m 0 298 l 74 298 l 74 223 l 0 223 l 0 298 m 0 372 l 74 372 l 74 298 l 0 298 l 0 372 m 0 446 l 74 446 l 74 372 l 0 372 l 0 446 m 0 521 l 74 521 l 74 446 l 0 446 l 0 521 m 0 595 l 74 595 l 74 521 l 0 521 l 0 595 m 74 595 l 149 595 l 149 521 l 74 521 l 74 595 m 0 670 l 74 670 l 74 595 l 0 595 l 0 670 m 149 595 l 223 595 l 223 521 l 149 521 l 149 595 m 74 521 l 149 521 l 149 446 l 74 446 l 74 521 m 74 446 l 149 446 l 149 372 l 74 372 l 74 446 m 74 372 l 149 372 l 149 298 l 74 298 l 74 372 m 74 298 l 149 298 l 149 223 l 74 223 l 74 298 m 223 0 l 298 0 l 298 -74 l 223 -74 l 223 0 m 298 -74 l 372 -74 l 372 -149 l 298 -149 l 298 -74 m 298 -149 l 372 -149 l 372 -223 l 298 -223 l 298 -149 m 223 -149 l 298 -149 l 298 -223 l 223 -223 l 223 -149 m 223 -223 l 298 -223 l 298 -298 l 223 -298 l 223 -223 m 298 -223 l 372 -223 l 372 -298 l 298 -298 l 298 -223 z "},"Ċ":{"ha":595,"x_min":0,"x_max":521,"o":"m 149 744 l 223 744 l 223 670 l 149 670 l 149 744 m 74 744 l 149 744 l 149 670 l 74 670 l 74 744 m 74 670 l 149 670 l 149 595 l 74 595 l 74 670 m 149 670 l 223 670 l 223 595 l 149 595 l 149 670 m 223 670 l 298 670 l 298 595 l 223 595 l 223 670 m 223 744 l 298 744 l 298 670 l 223 670 l 223 744 m 298 744 l 372 744 l 372 670 l 298 670 l 298 744 m 372 744 l 446 744 l 446 670 l 372 670 l 372 744 m 372 670 l 446 670 l 446 595 l 372 595 l 372 670 m 298 670 l 372 670 l 372 595 l 298 595 l 298 670 m 372 595 l 446 595 l 446 521 l 372 521 l 372 595 m 446 670 l 521 670 l 521 595 l 446 595 l 446 670 m 446 595 l 521 595 l 521 521 l 446 521 l 446 595 m 446 223 l 521 223 l 521 149 l 446 149 l 446 223 m 446 149 l 521 149 l 521 74 l 446 74 l 446 149 m 372 149 l 446 149 l 446 74 l 372 74 l 372 149 m 372 223 l 446 223 l 446 149 l 372 149 l 372 223 m 298 149 l 372 149 l 372 74 l 298 74 l 298 149 m 372 74 l 446 74 l 446 0 l 372 0 l 372 74 m 298 74 l 372 74 l 372 0 l 298 0 l 298 74 m 223 74 l 298 74 l 298 0 l 223 0 l 223 74 m 223 149 l 298 149 l 298 74 l 223 74 l 223 149 m 149 74 l 223 74 l 223 0 l 149 0 l 149 74 m 74 74 l 149 74 l 149 0 l 74 0 l 74 74 m 74 149 l 149 149 l 149 74 l 74 74 l 74 149 m 149 149 l 223 149 l 223 74 l 149 74 l 149 149 m 149 223 l 223 223 l 223 149 l 149 149 l 149 223 m 74 223 l 149 223 l 149 149 l 74 149 l 74 223 m 0 149 l 74 149 l 74 74 l 0 74 l 0 149 m 0 223 l 74 223 l 74 149 l 0 149 l 0 223 m 0 298 l 74 298 l 74 223 l 0 223 l 0 298 m 0 372 l 74 372 l 74 298 l 0 298 l 0 372 m 0 446 l 74 446 l 74 372 l 0 372 l 0 446 m 0 521 l 74 521 l 74 446 l 0 446 l 0 521 m 0 595 l 74 595 l 74 521 l 0 521 l 0 595 m 74 595 l 149 595 l 149 521 l 74 521 l 74 595 m 0 670 l 74 670 l 74 595 l 0 595 l 0 670 m 149 595 l 223 595 l 223 521 l 149 521 l 149 595 m 74 521 l 149 521 l 149 446 l 74 446 l 74 521 m 74 446 l 149 446 l 149 372 l 74 372 l 74 446 m 74 372 l 149 372 l 149 298 l 74 298 l 74 372 m 74 298 l 149 298 l 149 223 l 74 223 l 74 298 m 149 967 l 223 967 l 223 893 l 149 893 l 149 967 m 223 967 l 298 967 l 298 893 l 223 893 l 223 967 m 223 893 l 298 893 l 298 818 l 223 818 l 223 893 m 149 893 l 223 893 l 223 818 l 149 818 l 149 893 z "},"D":{"ha":595,"x_min":0,"x_max":521,"o":"m 149 744 l 223 744 l 223 670 l 149 670 l 149 744 m 74 744 l 149 744 l 149 670 l 74 670 l 74 744 m 74 670 l 149 670 l 149 595 l 74 595 l 74 670 m 149 670 l 223 670 l 223 595 l 149 595 l 149 670 m 223 670 l 298 670 l 298 595 l 223 595 l 223 670 m 223 744 l 298 744 l 298 670 l 223 670 l 223 744 m 298 744 l 372 744 l 372 670 l 298 670 l 298 744 m 372 744 l 446 744 l 446 670 l 372 670 l 372 744 m 372 670 l 446 670 l 446 595 l 372 595 l 372 670 m 298 670 l 372 670 l 372 595 l 298 595 l 298 670 m 298 595 l 372 595 l 372 521 l 298 521 l 298 595 m 372 595 l 446 595 l 446 521 l 372 521 l 372 595 m 446 670 l 521 670 l 521 595 l 446 595 l 446 670 m 446 595 l 521 595 l 521 521 l 446 521 l 446 595 m 446 521 l 521 521 l 521 446 l 446 446 l 446 521 m 446 446 l 521 446 l 521 372 l 446 372 l 446 446 m 446 372 l 521 372 l 521 298 l 446 298 l 446 372 m 446 298 l 521 298 l 521 223 l 446 223 l 446 298 m 446 223 l 521 223 l 521 149 l 446 149 l 446 223 m 446 149 l 521 149 l 521 74 l 446 74 l 446 149 m 372 149 l 446 149 l 446 74 l 372 74 l 372 149 m 372 223 l 446 223 l 446 149 l 372 149 l 372 223 m 372 298 l 446 298 l 446 223 l 372 223 l 372 298 m 372 372 l 446 372 l 446 298 l 372 298 l 372 372 m 372 446 l 446 446 l 446 372 l 372 372 l 372 446 m 372 521 l 446 521 l 446 446 l 372 446 l 372 521 m 298 223 l 372 223 l 372 149 l 298 149 l 298 223 m 298 149 l 372 149 l 372 74 l 298 74 l 298 149 m 372 74 l 446 74 l 446 0 l 372 0 l 372 74 m 298 74 l 372 74 l 372 0 l 298 0 l 298 74 m 223 74 l 298 74 l 298 0 l 223 0 l 223 74 m 223 149 l 298 149 l 298 74 l 223 74 l 223 149 m 149 74 l 223 74 l 223 0 l 149 0 l 149 74 m 74 74 l 149 74 l 149 0 l 74 0 l 74 74 m 74 149 l 149 149 l 149 74 l 74 74 l 74 149 m 149 149 l 223 149 l 223 74 l 149 74 l 149 149 m 74 223 l 149 223 l 149 149 l 74 149 l 74 223 m 0 149 l 74 149 l 74 74 l 0 74 l 0 149 m 0 223 l 74 223 l 74 149 l 0 149 l 0 223 m 0 298 l 74 298 l 74 223 l 0 223 l 0 298 m 0 372 l 74 372 l 74 298 l 0 298 l 0 372 m 0 446 l 74 446 l 74 372 l 0 372 l 0 446 m 0 521 l 74 521 l 74 446 l 0 446 l 0 521 m 0 595 l 74 595 l 74 521 l 0 521 l 0 595 m 74 595 l 149 595 l 149 521 l 74 521 l 74 595 m 0 670 l 74 670 l 74 595 l 0 595 l 0 670 m 74 521 l 149 521 l 149 446 l 74 446 l 74 521 m 74 446 l 149 446 l 149 372 l 74 372 l 74 446 m 74 372 l 149 372 l 149 298 l 74 298 l 74 372 m 74 298 l 149 298 l 149 223 l 74 223 l 74 298 m 0 74 l 74 74 l 74 0 l 0 0 l 0 74 m 0 744 l 74 744 l 74 670 l 0 670 l 0 744 z "},"Ð":{"ha":670,"x_min":0,"x_max":595,"o":"m 223 744 l 298 744 l 298 670 l 223 670 l 223 744 m 149 744 l 223 744 l 223 670 l 149 670 l 149 744 m 149 670 l 223 670 l 223 595 l 149 595 l 149 670 m 223 670 l 298 670 l 298 595 l 223 595 l 223 670 m 298 670 l 372 670 l 372 595 l 298 595 l 298 670 m 298 744 l 372 744 l 372 670 l 298 670 l 298 744 m 372 744 l 446 744 l 446 670 l 372 670 l 372 744 m 446 744 l 521 744 l 521 670 l 446 670 l 446 744 m 446 670 l 521 670 l 521 595 l 446 595 l 446 670 m 372 670 l 446 670 l 446 595 l 372 595 l 372 670 m 372 595 l 446 595 l 446 521 l 372 521 l 372 595 m 446 595 l 521 595 l 521 521 l 446 521 l 446 595 m 521 670 l 595 670 l 595 595 l 521 595 l 521 670 m 521 595 l 595 595 l 595 521 l 521 521 l 521 595 m 521 521 l 595 521 l 595 446 l 521 446 l 521 521 m 521 446 l 595 446 l 595 372 l 521 372 l 521 446 m 521 372 l 595 372 l 595 298 l 521 298 l 521 372 m 521 298 l 595 298 l 595 223 l 521 223 l 521 298 m 521 223 l 595 223 l 595 149 l 521 149 l 521 223 m 521 149 l 595 149 l 595 74 l 521 74 l 521 149 m 446 149 l 521 149 l 521 74 l 446 74 l 446 149 m 446 223 l 521 223 l 521 149 l 446 149 l 446 223 m 446 298 l 521 298 l 521 223 l 446 223 l 446 298 m 446 372 l 521 372 l 521 298 l 446 298 l 446 372 m 446 446 l 521 446 l 521 372 l 446 372 l 446 446 m 446 521 l 521 521 l 521 446 l 446 446 l 446 521 m 372 223 l 446 223 l 446 149 l 372 149 l 372 223 m 372 149 l 446 149 l 446 74 l 372 74 l 372 149 m 446 74 l 521 74 l 521 0 l 446 0 l 446 74 m 372 74 l 446 74 l 446 0 l 372 0 l 372 74 m 298 74 l 372 74 l 372 0 l 298 0 l 298 74 m 298 149 l 372 149 l 372 74 l 298 74 l 298 149 m 223 74 l 298 74 l 298 0 l 223 0 l 223 74 m 149 74 l 223 74 l 223 0 l 149 0 l 149 74 m 149 149 l 223 149 l 223 74 l 149 74 l 149 149 m 223 149 l 298 149 l 298 74 l 223 74 l 223 149 m 149 223 l 223 223 l 223 149 l 149 149 l 149 223 m 74 149 l 149 149 l 149 74 l 74 74 l 74 149 m 74 223 l 149 223 l 149 149 l 74 149 l 74 223 m 74 298 l 149 298 l 149 223 l 74 223 l 74 298 m 74 372 l 149 372 l 149 298 l 74 298 l 74 372 m 74 446 l 149 446 l 149 372 l 74 372 l 74 446 m 74 521 l 149 521 l 149 446 l 74 446 l 74 521 m 74 595 l 149 595 l 149 521 l 74 521 l 74 595 m 149 595 l 223 595 l 223 521 l 149 521 l 149 595 m 74 670 l 149 670 l 149 595 l 74 595 l 74 670 m 149 521 l 223 521 l 223 446 l 149 446 l 149 521 m 149 446 l 223 446 l 223 372 l 149 372 l 149 446 m 149 372 l 223 372 l 223 298 l 149 298 l 149 372 m 149 298 l 223 298 l 223 223 l 149 223 l 149 298 m 74 74 l 149 74 l 149 0 l 74 0 l 74 74 m 74 744 l 149 744 l 149 670 l 74 670 l 74 744 m 0 446 l 74 446 l 74 372 l 0 372 l 0 446 m 0 372 l 74 372 l 74 298 l 0 298 l 0 372 m 223 372 l 298 372 l 298 298 l 223 298 l 223 372 m 223 446 l 298 446 l 298 372 l 223 372 l 223 446 m 298 446 l 372 446 l 372 372 l 298 372 l 298 446 m 298 372 l 372 372 l 372 298 l 298 298 l 298 372 z "},"Ď":{"ha":595,"x_min":0,"x_max":521,"o":"m 149 744 l 223 744 l 223 670 l 149 670 l 149 744 m 74 744 l 149 744 l 149 670 l 74 670 l 74 744 m 74 670 l 149 670 l 149 595 l 74 595 l 74 670 m 149 670 l 223 670 l 223 595 l 149 595 l 149 670 m 223 670 l 298 670 l 298 595 l 223 595 l 223 670 m 223 744 l 298 744 l 298 670 l 223 670 l 223 744 m 298 744 l 372 744 l 372 670 l 298 670 l 298 744 m 372 744 l 446 744 l 446 670 l 372 670 l 372 744 m 372 670 l 446 670 l 446 595 l 372 595 l 372 670 m 298 670 l 372 670 l 372 595 l 298 595 l 298 670 m 298 595 l 372 595 l 372 521 l 298 521 l 298 595 m 372 595 l 446 595 l 446 521 l 372 521 l 372 595 m 446 670 l 521 670 l 521 595 l 446 595 l 446 670 m 446 595 l 521 595 l 521 521 l 446 521 l 446 595 m 446 521 l 521 521 l 521 446 l 446 446 l 446 521 m 446 446 l 521 446 l 521 372 l 446 372 l 446 446 m 446 372 l 521 372 l 521 298 l 446 298 l 446 372 m 446 298 l 521 298 l 521 223 l 446 223 l 446 298 m 446 223 l 521 223 l 521 149 l 446 149 l 446 223 m 446 149 l 521 149 l 521 74 l 446 74 l 446 149 m 372 149 l 446 149 l 446 74 l 372 74 l 372 149 m 372 223 l 446 223 l 446 149 l 372 149 l 372 223 m 372 298 l 446 298 l 446 223 l 372 223 l 372 298 m 372 372 l 446 372 l 446 298 l 372 298 l 372 372 m 372 446 l 446 446 l 446 372 l 372 372 l 372 446 m 372 521 l 446 521 l 446 446 l 372 446 l 372 521 m 298 223 l 372 223 l 372 149 l 298 149 l 298 223 m 298 149 l 372 149 l 372 74 l 298 74 l 298 149 m 372 74 l 446 74 l 446 0 l 372 0 l 372 74 m 298 74 l 372 74 l 372 0 l 298 0 l 298 74 m 223 74 l 298 74 l 298 0 l 223 0 l 223 74 m 223 149 l 298 149 l 298 74 l 223 74 l 223 149 m 149 74 l 223 74 l 223 0 l 149 0 l 149 74 m 74 74 l 149 74 l 149 0 l 74 0 l 74 74 m 74 149 l 149 149 l 149 74 l 74 74 l 74 149 m 149 149 l 223 149 l 223 74 l 149 74 l 149 149 m 74 223 l 149 223 l 149 149 l 74 149 l 74 223 m 0 149 l 74 149 l 74 74 l 0 74 l 0 149 m 0 223 l 74 223 l 74 149 l 0 149 l 0 223 m 0 298 l 74 298 l 74 223 l 0 223 l 0 298 m 0 372 l 74 372 l 74 298 l 0 298 l 0 372 m 0 446 l 74 446 l 74 372 l 0 372 l 0 446 m 0 521 l 74 521 l 74 446 l 0 446 l 0 521 m 0 595 l 74 595 l 74 521 l 0 521 l 0 595 m 74 595 l 149 595 l 149 521 l 74 521 l 74 595 m 0 670 l 74 670 l 74 595 l 0 595 l 0 670 m 74 521 l 149 521 l 149 446 l 74 446 l 74 521 m 74 446 l 149 446 l 149 372 l 74 372 l 74 446 m 74 372 l 149 372 l 149 298 l 74 298 l 74 372 m 74 298 l 149 298 l 149 223 l 74 223 l 74 298 m 0 74 l 74 74 l 74 0 l 0 0 l 0 74 m 0 744 l 74 744 l 74 670 l 0 670 l 0 744 m 149 967 l 149 1042 l 223 1042 l 223 967 l 149 967 m 298 967 l 298 1042 l 372 1042 l 372 967 l 298 967 m 74 967 l 74 1042 l 149 1042 l 149 967 l 74 967 m 223 893 l 223 967 l 298 967 l 298 893 l 223 893 m 149 893 l 149 967 l 223 967 l 223 893 l 149 893 m 372 1042 l 446 1042 l 446 967 l 372 967 l 372 1042 m 298 967 l 372 967 l 372 893 l 298 893 l 298 967 m 223 893 l 298 893 l 298 818 l 223 818 l 223 893 z "},"Đ":{"ha":670,"x_min":0,"x_max":595,"o":"m 223 744 l 298 744 l 298 670 l 223 670 l 223 744 m 149 744 l 223 744 l 223 670 l 149 670 l 149 744 m 149 670 l 223 670 l 223 595 l 149 595 l 149 670 m 223 670 l 298 670 l 298 595 l 223 595 l 223 670 m 298 670 l 372 670 l 372 595 l 298 595 l 298 670 m 298 744 l 372 744 l 372 670 l 298 670 l 298 744 m 372 744 l 446 744 l 446 670 l 372 670 l 372 744 m 446 744 l 521 744 l 521 670 l 446 670 l 446 744 m 446 670 l 521 670 l 521 595 l 446 595 l 446 670 m 372 670 l 446 670 l 446 595 l 372 595 l 372 670 m 372 595 l 446 595 l 446 521 l 372 521 l 372 595 m 446 595 l 521 595 l 521 521 l 446 521 l 446 595 m 521 670 l 595 670 l 595 595 l 521 595 l 521 670 m 521 595 l 595 595 l 595 521 l 521 521 l 521 595 m 521 521 l 595 521 l 595 446 l 521 446 l 521 521 m 521 446 l 595 446 l 595 372 l 521 372 l 521 446 m 521 372 l 595 372 l 595 298 l 521 298 l 521 372 m 521 298 l 595 298 l 595 223 l 521 223 l 521 298 m 521 223 l 595 223 l 595 149 l 521 149 l 521 223 m 521 149 l 595 149 l 595 74 l 521 74 l 521 149 m 446 149 l 521 149 l 521 74 l 446 74 l 446 149 m 446 223 l 521 223 l 521 149 l 446 149 l 446 223 m 446 298 l 521 298 l 521 223 l 446 223 l 446 298 m 446 372 l 521 372 l 521 298 l 446 298 l 446 372 m 446 446 l 521 446 l 521 372 l 446 372 l 446 446 m 446 521 l 521 521 l 521 446 l 446 446 l 446 521 m 372 223 l 446 223 l 446 149 l 372 149 l 372 223 m 372 149 l 446 149 l 446 74 l 372 74 l 372 149 m 446 74 l 521 74 l 521 0 l 446 0 l 446 74 m 372 74 l 446 74 l 446 0 l 372 0 l 372 74 m 298 74 l 372 74 l 372 0 l 298 0 l 298 74 m 298 149 l 372 149 l 372 74 l 298 74 l 298 149 m 223 74 l 298 74 l 298 0 l 223 0 l 223 74 m 149 74 l 223 74 l 223 0 l 149 0 l 149 74 m 149 149 l 223 149 l 223 74 l 149 74 l 149 149 m 223 149 l 298 149 l 298 74 l 223 74 l 223 149 m 149 223 l 223 223 l 223 149 l 149 149 l 149 223 m 74 149 l 149 149 l 149 74 l 74 74 l 74 149 m 74 223 l 149 223 l 149 149 l 74 149 l 74 223 m 74 298 l 149 298 l 149 223 l 74 223 l 74 298 m 74 372 l 149 372 l 149 298 l 74 298 l 74 372 m 74 446 l 149 446 l 149 372 l 74 372 l 74 446 m 74 521 l 149 521 l 149 446 l 74 446 l 74 521 m 74 595 l 149 595 l 149 521 l 74 521 l 74 595 m 149 595 l 223 595 l 223 521 l 149 521 l 149 595 m 74 670 l 149 670 l 149 595 l 74 595 l 74 670 m 149 521 l 223 521 l 223 446 l 149 446 l 149 521 m 149 446 l 223 446 l 223 372 l 149 372 l 149 446 m 149 372 l 223 372 l 223 298 l 149 298 l 149 372 m 149 298 l 223 298 l 223 223 l 149 223 l 149 298 m 74 74 l 149 74 l 149 0 l 74 0 l 74 74 m 74 744 l 149 744 l 149 670 l 74 670 l 74 744 m 0 446 l 74 446 l 74 372 l 0 372 l 0 446 m 0 372 l 74 372 l 74 298 l 0 298 l 0 372 m 223 372 l 298 372 l 298 298 l 223 298 l 223 372 m 223 446 l 298 446 l 298 372 l 223 372 l 223 446 m 298 446 l 372 446 l 372 372 l 298 372 l 298 446 m 298 372 l 372 372 l 372 298 l 298 298 l 298 372 z "},"E":{"ha":521,"x_min":0,"x_max":446,"o":"m 0 744 l 74 744 l 74 670 l 0 670 l 0 744 m 74 744 l 149 744 l 149 670 l 74 670 l 74 744 m 74 670 l 149 670 l 149 595 l 74 595 l 74 670 m 74 595 l 149 595 l 149 521 l 74 521 l 74 595 m 74 521 l 149 521 l 149 446 l 74 446 l 74 521 m 0 521 l 74 521 l 74 446 l 0 446 l 0 521 m 0 595 l 74 595 l 74 521 l 0 521 l 0 595 m 0 670 l 74 670 l 74 595 l 0 595 l 0 670 m 0 446 l 74 446 l 74 372 l 0 372 l 0 446 m 0 372 l 74 372 l 74 298 l 0 298 l 0 372 m 0 298 l 74 298 l 74 223 l 0 223 l 0 298 m 74 372 l 149 372 l 149 298 l 74 298 l 74 372 m 74 446 l 149 446 l 149 372 l 74 372 l 74 446 m 74 298 l 149 298 l 149 223 l 74 223 l 74 298 m 74 223 l 149 223 l 149 149 l 74 149 l 74 223 m 0 149 l 74 149 l 74 74 l 0 74 l 0 149 m 0 223 l 74 223 l 74 149 l 0 149 l 0 223 m 0 74 l 74 74 l 74 0 l 0 0 l 0 74 m 74 74 l 149 74 l 149 0 l 74 0 l 74 74 m 74 149 l 149 149 l 149 74 l 74 74 l 74 149 m 149 74 l 223 74 l 223 0 l 149 0 l 149 74 m 223 74 l 298 74 l 298 0 l 223 0 l 223 74 m 298 74 l 372 74 l 372 0 l 298 0 l 298 74 m 298 149 l 372 149 l 372 74 l 298 74 l 298 149 m 223 149 l 298 149 l 298 74 l 223 74 l 223 149 m 149 149 l 223 149 l 223 74 l 149 74 l 149 149 m 149 744 l 223 744 l 223 670 l 149 670 l 149 744 m 223 744 l 298 744 l 298 670 l 223 670 l 223 744 m 298 744 l 372 744 l 372 670 l 298 670 l 298 744 m 372 744 l 446 744 l 446 670 l 372 670 l 372 744 m 298 670 l 372 670 l 372 595 l 298 595 l 298 670 m 223 670 l 298 670 l 298 595 l 223 595 l 223 670 m 149 670 l 223 670 l 223 595 l 149 595 l 149 670 m 149 372 l 223 372 l 223 298 l 149 298 l 149 372 m 223 446 l 298 446 l 298 372 l 223 372 l 223 446 m 149 446 l 223 446 l 223 372 l 149 372 l 149 446 m 223 372 l 298 372 l 298 298 l 223 298 l 223 372 m 372 670 l 446 670 l 446 595 l 372 595 l 372 670 m 372 149 l 446 149 l 446 74 l 372 74 l 372 149 m 372 74 l 446 74 l 446 0 l 372 0 l 372 74 m 298 446 l 372 446 l 372 372 l 298 372 l 298 446 m 298 372 l 372 372 l 372 298 l 298 298 l 298 372 z "},"É":{"ha":521,"x_min":0,"x_max":446,"o":"m 0 744 l 74 744 l 74 670 l 0 670 l 0 744 m 74 744 l 149 744 l 149 670 l 74 670 l 74 744 m 74 670 l 149 670 l 149 595 l 74 595 l 74 670 m 74 595 l 149 595 l 149 521 l 74 521 l 74 595 m 74 521 l 149 521 l 149 446 l 74 446 l 74 521 m 0 521 l 74 521 l 74 446 l 0 446 l 0 521 m 0 595 l 74 595 l 74 521 l 0 521 l 0 595 m 0 670 l 74 670 l 74 595 l 0 595 l 0 670 m 0 446 l 74 446 l 74 372 l 0 372 l 0 446 m 0 372 l 74 372 l 74 298 l 0 298 l 0 372 m 0 298 l 74 298 l 74 223 l 0 223 l 0 298 m 74 372 l 149 372 l 149 298 l 74 298 l 74 372 m 74 446 l 149 446 l 149 372 l 74 372 l 74 446 m 74 298 l 149 298 l 149 223 l 74 223 l 74 298 m 74 223 l 149 223 l 149 149 l 74 149 l 74 223 m 0 149 l 74 149 l 74 74 l 0 74 l 0 149 m 0 223 l 74 223 l 74 149 l 0 149 l 0 223 m 0 74 l 74 74 l 74 0 l 0 0 l 0 74 m 74 74 l 149 74 l 149 0 l 74 0 l 74 74 m 74 149 l 149 149 l 149 74 l 74 74 l 74 149 m 149 74 l 223 74 l 223 0 l 149 0 l 149 74 m 223 74 l 298 74 l 298 0 l 223 0 l 223 74 m 298 74 l 372 74 l 372 0 l 298 0 l 298 74 m 298 149 l 372 149 l 372 74 l 298 74 l 298 149 m 223 149 l 298 149 l 298 74 l 223 74 l 223 149 m 149 149 l 223 149 l 223 74 l 149 74 l 149 149 m 149 744 l 223 744 l 223 670 l 149 670 l 149 744 m 223 744 l 298 744 l 298 670 l 223 670 l 223 744 m 298 744 l 372 744 l 372 670 l 298 670 l 298 744 m 372 744 l 446 744 l 446 670 l 372 670 l 372 744 m 298 670 l 372 670 l 372 595 l 298 595 l 298 670 m 223 670 l 298 670 l 298 595 l 223 595 l 223 670 m 149 670 l 223 670 l 223 595 l 149 595 l 149 670 m 149 372 l 223 372 l 223 298 l 149 298 l 149 372 m 223 446 l 298 446 l 298 372 l 223 372 l 223 446 m 149 446 l 223 446 l 223 372 l 149 372 l 149 446 m 223 372 l 298 372 l 298 298 l 223 298 l 223 372 m 372 670 l 446 670 l 446 595 l 372 595 l 372 670 m 372 149 l 446 149 l 446 74 l 372 74 l 372 149 m 372 74 l 446 74 l 446 0 l 372 0 l 372 74 m 298 446 l 372 446 l 372 372 l 298 372 l 298 446 m 298 372 l 372 372 l 372 298 l 298 298 l 298 372 m 298 967 l 298 893 l 223 893 l 223 967 l 298 967 m 298 893 l 298 818 l 223 818 l 223 893 l 298 893 m 372 967 l 372 893 l 298 893 l 298 967 l 372 967 m 372 1042 l 372 967 l 298 967 l 298 1042 l 372 1042 z "},"Ě":{"ha":521,"x_min":0,"x_max":446,"o":"m 0 744 l 74 744 l 74 670 l 0 670 l 0 744 m 74 744 l 149 744 l 149 670 l 74 670 l 74 744 m 74 670 l 149 670 l 149 595 l 74 595 l 74 670 m 74 595 l 149 595 l 149 521 l 74 521 l 74 595 m 74 521 l 149 521 l 149 446 l 74 446 l 74 521 m 0 521 l 74 521 l 74 446 l 0 446 l 0 521 m 0 595 l 74 595 l 74 521 l 0 521 l 0 595 m 0 670 l 74 670 l 74 595 l 0 595 l 0 670 m 0 446 l 74 446 l 74 372 l 0 372 l 0 446 m 0 372 l 74 372 l 74 298 l 0 298 l 0 372 m 0 298 l 74 298 l 74 223 l 0 223 l 0 298 m 74 372 l 149 372 l 149 298 l 74 298 l 74 372 m 74 446 l 149 446 l 149 372 l 74 372 l 74 446 m 74 298 l 149 298 l 149 223 l 74 223 l 74 298 m 74 223 l 149 223 l 149 149 l 74 149 l 74 223 m 0 149 l 74 149 l 74 74 l 0 74 l 0 149 m 0 223 l 74 223 l 74 149 l 0 149 l 0 223 m 0 74 l 74 74 l 74 0 l 0 0 l 0 74 m 74 74 l 149 74 l 149 0 l 74 0 l 74 74 m 74 149 l 149 149 l 149 74 l 74 74 l 74 149 m 149 74 l 223 74 l 223 0 l 149 0 l 149 74 m 223 74 l 298 74 l 298 0 l 223 0 l 223 74 m 298 74 l 372 74 l 372 0 l 298 0 l 298 74 m 298 149 l 372 149 l 372 74 l 298 74 l 298 149 m 223 149 l 298 149 l 298 74 l 223 74 l 223 149 m 149 149 l 223 149 l 223 74 l 149 74 l 149 149 m 149 744 l 223 744 l 223 670 l 149 670 l 149 744 m 223 744 l 298 744 l 298 670 l 223 670 l 223 744 m 298 744 l 372 744 l 372 670 l 298 670 l 298 744 m 372 744 l 446 744 l 446 670 l 372 670 l 372 744 m 298 670 l 372 670 l 372 595 l 298 595 l 298 670 m 223 670 l 298 670 l 298 595 l 223 595 l 223 670 m 149 670 l 223 670 l 223 595 l 149 595 l 149 670 m 149 372 l 223 372 l 223 298 l 149 298 l 149 372 m 223 446 l 298 446 l 298 372 l 223 372 l 223 446 m 149 446 l 223 446 l 223 372 l 149 372 l 149 446 m 223 372 l 298 372 l 298 298 l 223 298 l 223 372 m 372 670 l 446 670 l 446 595 l 372 595 l 372 670 m 372 149 l 446 149 l 446 74 l 372 74 l 372 149 m 372 74 l 446 74 l 446 0 l 372 0 l 372 74 m 298 446 l 372 446 l 372 372 l 298 372 l 298 446 m 298 372 l 372 372 l 372 298 l 298 298 l 298 372 m 149 967 l 149 1042 l 223 1042 l 223 967 l 149 967 m 298 967 l 298 1042 l 372 1042 l 372 967 l 298 967 m 74 967 l 74 1042 l 149 1042 l 149 967 l 74 967 m 223 893 l 223 967 l 298 967 l 298 893 l 223 893 m 149 893 l 149 967 l 223 967 l 223 893 l 149 893 m 372 1042 l 446 1042 l 446 967 l 372 967 l 372 1042 m 298 967 l 372 967 l 372 893 l 298 893 l 298 967 m 223 893 l 298 893 l 298 818 l 223 818 l 223 893 z "},"Ê":{"ha":521,"x_min":0,"x_max":446,"o":"m 0 744 l 74 744 l 74 670 l 0 670 l 0 744 m 74 744 l 149 744 l 149 670 l 74 670 l 74 744 m 74 670 l 149 670 l 149 595 l 74 595 l 74 670 m 74 595 l 149 595 l 149 521 l 74 521 l 74 595 m 74 521 l 149 521 l 149 446 l 74 446 l 74 521 m 0 521 l 74 521 l 74 446 l 0 446 l 0 521 m 0 595 l 74 595 l 74 521 l 0 521 l 0 595 m 0 670 l 74 670 l 74 595 l 0 595 l 0 670 m 0 446 l 74 446 l 74 372 l 0 372 l 0 446 m 0 372 l 74 372 l 74 298 l 0 298 l 0 372 m 0 298 l 74 298 l 74 223 l 0 223 l 0 298 m 74 372 l 149 372 l 149 298 l 74 298 l 74 372 m 74 446 l 149 446 l 149 372 l 74 372 l 74 446 m 74 298 l 149 298 l 149 223 l 74 223 l 74 298 m 74 223 l 149 223 l 149 149 l 74 149 l 74 223 m 0 149 l 74 149 l 74 74 l 0 74 l 0 149 m 0 223 l 74 223 l 74 149 l 0 149 l 0 223 m 0 74 l 74 74 l 74 0 l 0 0 l 0 74 m 74 74 l 149 74 l 149 0 l 74 0 l 74 74 m 74 149 l 149 149 l 149 74 l 74 74 l 74 149 m 149 74 l 223 74 l 223 0 l 149 0 l 149 74 m 223 74 l 298 74 l 298 0 l 223 0 l 223 74 m 298 74 l 372 74 l 372 0 l 298 0 l 298 74 m 298 149 l 372 149 l 372 74 l 298 74 l 298 149 m 223 149 l 298 149 l 298 74 l 223 74 l 223 149 m 149 149 l 223 149 l 223 74 l 149 74 l 149 149 m 149 744 l 223 744 l 223 670 l 149 670 l 149 744 m 223 744 l 298 744 l 298 670 l 223 670 l 223 744 m 298 744 l 372 744 l 372 670 l 298 670 l 298 744 m 372 744 l 446 744 l 446 670 l 372 670 l 372 744 m 298 670 l 372 670 l 372 595 l 298 595 l 298 670 m 223 670 l 298 670 l 298 595 l 223 595 l 223 670 m 149 670 l 223 670 l 223 595 l 149 595 l 149 670 m 149 372 l 223 372 l 223 298 l 149 298 l 149 372 m 223 446 l 298 446 l 298 372 l 223 372 l 223 446 m 149 446 l 223 446 l 223 372 l 149 372 l 149 446 m 223 372 l 298 372 l 298 298 l 223 298 l 223 372 m 372 670 l 446 670 l 446 595 l 372 595 l 372 670 m 372 149 l 446 149 l 446 74 l 372 74 l 372 149 m 372 74 l 446 74 l 446 0 l 372 0 l 372 74 m 298 446 l 372 446 l 372 372 l 298 372 l 298 446 m 298 372 l 372 372 l 372 298 l 298 298 l 298 372 m 149 893 l 223 893 l 223 818 l 149 818 l 149 893 m 298 893 l 372 893 l 372 818 l 298 818 l 298 893 m 74 893 l 149 893 l 149 818 l 74 818 l 74 893 m 223 967 l 298 967 l 298 893 l 223 893 l 223 967 m 149 967 l 223 967 l 223 893 l 149 893 l 149 967 m 372 893 l 446 893 l 446 818 l 372 818 l 372 893 m 298 967 l 372 967 l 372 893 l 298 893 l 298 967 m 223 1042 l 298 1042 l 298 967 l 223 967 l 223 1042 z "},"Ë":{"ha":521,"x_min":0,"x_max":446,"o":"m 0 744 l 74 744 l 74 670 l 0 670 l 0 744 m 74 744 l 149 744 l 149 670 l 74 670 l 74 744 m 74 670 l 149 670 l 149 595 l 74 595 l 74 670 m 74 595 l 149 595 l 149 521 l 74 521 l 74 595 m 74 521 l 149 521 l 149 446 l 74 446 l 74 521 m 0 521 l 74 521 l 74 446 l 0 446 l 0 521 m 0 595 l 74 595 l 74 521 l 0 521 l 0 595 m 0 670 l 74 670 l 74 595 l 0 595 l 0 670 m 0 446 l 74 446 l 74 372 l 0 372 l 0 446 m 0 372 l 74 372 l 74 298 l 0 298 l 0 372 m 0 298 l 74 298 l 74 223 l 0 223 l 0 298 m 74 372 l 149 372 l 149 298 l 74 298 l 74 372 m 74 446 l 149 446 l 149 372 l 74 372 l 74 446 m 74 298 l 149 298 l 149 223 l 74 223 l 74 298 m 74 223 l 149 223 l 149 149 l 74 149 l 74 223 m 0 149 l 74 149 l 74 74 l 0 74 l 0 149 m 0 223 l 74 223 l 74 149 l 0 149 l 0 223 m 0 74 l 74 74 l 74 0 l 0 0 l 0 74 m 74 74 l 149 74 l 149 0 l 74 0 l 74 74 m 74 149 l 149 149 l 149 74 l 74 74 l 74 149 m 149 74 l 223 74 l 223 0 l 149 0 l 149 74 m 223 74 l 298 74 l 298 0 l 223 0 l 223 74 m 298 74 l 372 74 l 372 0 l 298 0 l 298 74 m 298 149 l 372 149 l 372 74 l 298 74 l 298 149 m 223 149 l 298 149 l 298 74 l 223 74 l 223 149 m 149 149 l 223 149 l 223 74 l 149 74 l 149 149 m 149 744 l 223 744 l 223 670 l 149 670 l 149 744 m 223 744 l 298 744 l 298 670 l 223 670 l 223 744 m 298 744 l 372 744 l 372 670 l 298 670 l 298 744 m 372 744 l 446 744 l 446 670 l 372 670 l 372 744 m 298 670 l 372 670 l 372 595 l 298 595 l 298 670 m 223 670 l 298 670 l 298 595 l 223 595 l 223 670 m 149 670 l 223 670 l 223 595 l 149 595 l 149 670 m 149 372 l 223 372 l 223 298 l 149 298 l 149 372 m 223 446 l 298 446 l 298 372 l 223 372 l 223 446 m 149 446 l 223 446 l 223 372 l 149 372 l 149 446 m 223 372 l 298 372 l 298 298 l 223 298 l 223 372 m 372 670 l 446 670 l 446 595 l 372 595 l 372 670 m 372 149 l 446 149 l 446 74 l 372 74 l 372 149 m 372 74 l 446 74 l 446 0 l 372 0 l 372 74 m 298 446 l 372 446 l 372 372 l 298 372 l 298 446 m 298 372 l 372 372 l 372 298 l 298 298 l 298 372 m 298 967 l 372 967 l 372 893 l 298 893 l 298 967 m 372 967 l 446 967 l 446 893 l 372 893 l 372 967 m 372 893 l 446 893 l 446 818 l 372 818 l 372 893 m 298 893 l 372 893 l 372 818 l 298 818 l 298 893 m 74 893 l 149 893 l 149 818 l 74 818 l 74 893 m 149 893 l 223 893 l 223 818 l 149 818 l 149 893 m 149 967 l 223 967 l 223 893 l 149 893 l 149 967 m 74 967 l 149 967 l 149 893 l 74 893 l 74 967 z "},"Ė":{"ha":521,"x_min":0,"x_max":446,"o":"m 0 744 l 74 744 l 74 670 l 0 670 l 0 744 m 74 744 l 149 744 l 149 670 l 74 670 l 74 744 m 74 670 l 149 670 l 149 595 l 74 595 l 74 670 m 74 595 l 149 595 l 149 521 l 74 521 l 74 595 m 74 521 l 149 521 l 149 446 l 74 446 l 74 521 m 0 521 l 74 521 l 74 446 l 0 446 l 0 521 m 0 595 l 74 595 l 74 521 l 0 521 l 0 595 m 0 670 l 74 670 l 74 595 l 0 595 l 0 670 m 0 446 l 74 446 l 74 372 l 0 372 l 0 446 m 0 372 l 74 372 l 74 298 l 0 298 l 0 372 m 0 298 l 74 298 l 74 223 l 0 223 l 0 298 m 74 372 l 149 372 l 149 298 l 74 298 l 74 372 m 74 446 l 149 446 l 149 372 l 74 372 l 74 446 m 74 298 l 149 298 l 149 223 l 74 223 l 74 298 m 74 223 l 149 223 l 149 149 l 74 149 l 74 223 m 0 149 l 74 149 l 74 74 l 0 74 l 0 149 m 0 223 l 74 223 l 74 149 l 0 149 l 0 223 m 0 74 l 74 74 l 74 0 l 0 0 l 0 74 m 74 74 l 149 74 l 149 0 l 74 0 l 74 74 m 74 149 l 149 149 l 149 74 l 74 74 l 74 149 m 149 74 l 223 74 l 223 0 l 149 0 l 149 74 m 223 74 l 298 74 l 298 0 l 223 0 l 223 74 m 298 74 l 372 74 l 372 0 l 298 0 l 298 74 m 298 149 l 372 149 l 372 74 l 298 74 l 298 149 m 223 149 l 298 149 l 298 74 l 223 74 l 223 149 m 149 149 l 223 149 l 223 74 l 149 74 l 149 149 m 149 744 l 223 744 l 223 670 l 149 670 l 149 744 m 223 744 l 298 744 l 298 670 l 223 670 l 223 744 m 298 744 l 372 744 l 372 670 l 298 670 l 298 744 m 372 744 l 446 744 l 446 670 l 372 670 l 372 744 m 298 670 l 372 670 l 372 595 l 298 595 l 298 670 m 223 670 l 298 670 l 298 595 l 223 595 l 223 670 m 149 670 l 223 670 l 223 595 l 149 595 l 149 670 m 149 372 l 223 372 l 223 298 l 149 298 l 149 372 m 223 446 l 298 446 l 298 372 l 223 372 l 223 446 m 149 446 l 223 446 l 223 372 l 149 372 l 149 446 m 223 372 l 298 372 l 298 298 l 223 298 l 223 372 m 372 670 l 446 670 l 446 595 l 372 595 l 372 670 m 372 149 l 446 149 l 446 74 l 372 74 l 372 149 m 372 74 l 446 74 l 446 0 l 372 0 l 372 74 m 298 446 l 372 446 l 372 372 l 298 372 l 298 446 m 298 372 l 372 372 l 372 298 l 298 298 l 298 372 m 149 967 l 223 967 l 223 893 l 149 893 l 149 967 m 223 967 l 298 967 l 298 893 l 223 893 l 223 967 m 223 893 l 298 893 l 298 818 l 223 818 l 223 893 m 149 893 l 223 893 l 223 818 l 149 818 l 149 893 z "},"È":{"ha":521,"x_min":0,"x_max":446,"o":"m 0 744 l 74 744 l 74 670 l 0 670 l 0 744 m 74 744 l 149 744 l 149 670 l 74 670 l 74 744 m 74 670 l 149 670 l 149 595 l 74 595 l 74 670 m 74 595 l 149 595 l 149 521 l 74 521 l 74 595 m 74 521 l 149 521 l 149 446 l 74 446 l 74 521 m 0 521 l 74 521 l 74 446 l 0 446 l 0 521 m 0 595 l 74 595 l 74 521 l 0 521 l 0 595 m 0 670 l 74 670 l 74 595 l 0 595 l 0 670 m 0 446 l 74 446 l 74 372 l 0 372 l 0 446 m 0 372 l 74 372 l 74 298 l 0 298 l 0 372 m 0 298 l 74 298 l 74 223 l 0 223 l 0 298 m 74 372 l 149 372 l 149 298 l 74 298 l 74 372 m 74 446 l 149 446 l 149 372 l 74 372 l 74 446 m 74 298 l 149 298 l 149 223 l 74 223 l 74 298 m 74 223 l 149 223 l 149 149 l 74 149 l 74 223 m 0 149 l 74 149 l 74 74 l 0 74 l 0 149 m 0 223 l 74 223 l 74 149 l 0 149 l 0 223 m 0 74 l 74 74 l 74 0 l 0 0 l 0 74 m 74 74 l 149 74 l 149 0 l 74 0 l 74 74 m 74 149 l 149 149 l 149 74 l 74 74 l 74 149 m 149 74 l 223 74 l 223 0 l 149 0 l 149 74 m 223 74 l 298 74 l 298 0 l 223 0 l 223 74 m 298 74 l 372 74 l 372 0 l 298 0 l 298 74 m 298 149 l 372 149 l 372 74 l 298 74 l 298 149 m 223 149 l 298 149 l 298 74 l 223 74 l 223 149 m 149 149 l 223 149 l 223 74 l 149 74 l 149 149 m 149 744 l 223 744 l 223 670 l 149 670 l 149 744 m 223 744 l 298 744 l 298 670 l 223 670 l 223 744 m 298 744 l 372 744 l 372 670 l 298 670 l 298 744 m 372 744 l 446 744 l 446 670 l 372 670 l 372 744 m 298 670 l 372 670 l 372 595 l 298 595 l 298 670 m 223 670 l 298 670 l 298 595 l 223 595 l 223 670 m 149 670 l 223 670 l 223 595 l 149 595 l 149 670 m 149 372 l 223 372 l 223 298 l 149 298 l 149 372 m 223 446 l 298 446 l 298 372 l 223 372 l 223 446 m 149 446 l 223 446 l 223 372 l 149 372 l 149 446 m 223 372 l 298 372 l 298 298 l 223 298 l 223 372 m 372 670 l 446 670 l 446 595 l 372 595 l 372 670 m 372 149 l 446 149 l 446 74 l 372 74 l 372 149 m 372 74 l 446 74 l 446 0 l 372 0 l 372 74 m 298 446 l 372 446 l 372 372 l 298 372 l 298 446 m 298 372 l 372 372 l 372 298 l 298 298 l 298 372 m 223 967 l 298 967 l 298 893 l 223 893 l 223 967 m 223 893 l 298 893 l 298 818 l 223 818 l 223 893 m 149 967 l 223 967 l 223 893 l 149 893 l 149 967 m 298 893 l 372 893 l 372 818 l 298 818 l 298 893 m 149 1042 l 223 1042 l 223 967 l 149 967 l 149 1042 z "},"Ē":{"ha":521,"x_min":0,"x_max":446,"o":"m 0 744 l 74 744 l 74 670 l 0 670 l 0 744 m 74 744 l 149 744 l 149 670 l 74 670 l 74 744 m 74 670 l 149 670 l 149 595 l 74 595 l 74 670 m 74 595 l 149 595 l 149 521 l 74 521 l 74 595 m 74 521 l 149 521 l 149 446 l 74 446 l 74 521 m 0 521 l 74 521 l 74 446 l 0 446 l 0 521 m 0 595 l 74 595 l 74 521 l 0 521 l 0 595 m 0 670 l 74 670 l 74 595 l 0 595 l 0 670 m 0 446 l 74 446 l 74 372 l 0 372 l 0 446 m 0 372 l 74 372 l 74 298 l 0 298 l 0 372 m 0 298 l 74 298 l 74 223 l 0 223 l 0 298 m 74 372 l 149 372 l 149 298 l 74 298 l 74 372 m 74 446 l 149 446 l 149 372 l 74 372 l 74 446 m 74 298 l 149 298 l 149 223 l 74 223 l 74 298 m 74 223 l 149 223 l 149 149 l 74 149 l 74 223 m 0 149 l 74 149 l 74 74 l 0 74 l 0 149 m 0 223 l 74 223 l 74 149 l 0 149 l 0 223 m 0 74 l 74 74 l 74 0 l 0 0 l 0 74 m 74 74 l 149 74 l 149 0 l 74 0 l 74 74 m 74 149 l 149 149 l 149 74 l 74 74 l 74 149 m 149 74 l 223 74 l 223 0 l 149 0 l 149 74 m 223 74 l 298 74 l 298 0 l 223 0 l 223 74 m 298 74 l 372 74 l 372 0 l 298 0 l 298 74 m 298 149 l 372 149 l 372 74 l 298 74 l 298 149 m 223 149 l 298 149 l 298 74 l 223 74 l 223 149 m 149 149 l 223 149 l 223 74 l 149 74 l 149 149 m 149 744 l 223 744 l 223 670 l 149 670 l 149 744 m 223 744 l 298 744 l 298 670 l 223 670 l 223 744 m 298 744 l 372 744 l 372 670 l 298 670 l 298 744 m 372 744 l 446 744 l 446 670 l 372 670 l 372 744 m 298 670 l 372 670 l 372 595 l 298 595 l 298 670 m 223 670 l 298 670 l 298 595 l 223 595 l 223 670 m 149 670 l 223 670 l 223 595 l 149 595 l 149 670 m 149 372 l 223 372 l 223 298 l 149 298 l 149 372 m 223 446 l 298 446 l 298 372 l 223 372 l 223 446 m 149 446 l 223 446 l 223 372 l 149 372 l 149 446 m 223 372 l 298 372 l 298 298 l 223 298 l 223 372 m 372 670 l 446 670 l 446 595 l 372 595 l 372 670 m 372 149 l 446 149 l 446 74 l 372 74 l 372 149 m 372 74 l 446 74 l 446 0 l 372 0 l 372 74 m 298 446 l 372 446 l 372 372 l 298 372 l 298 446 m 298 372 l 372 372 l 372 298 l 298 298 l 298 372 m 149 967 l 223 967 l 223 893 l 149 893 l 149 967 m 223 967 l 298 967 l 298 893 l 223 893 l 223 967 m 223 893 l 298 893 l 298 818 l 223 818 l 223 893 m 149 893 l 223 893 l 223 818 l 149 818 l 149 893 m 74 967 l 149 967 l 149 893 l 74 893 l 74 967 m 74 893 l 149 893 l 149 818 l 74 818 l 74 893 m 298 967 l 372 967 l 372 893 l 298 893 l 298 967 m 298 893 l 372 893 l 372 818 l 298 818 l 298 893 m 372 967 l 446 967 l 446 893 l 372 893 l 372 967 m 372 893 l 446 893 l 446 818 l 372 818 l 372 893 z "},"Ę":{"ha":521,"x_min":0,"x_max":446,"o":"m 0 744 l 74 744 l 74 670 l 0 670 l 0 744 m 74 744 l 149 744 l 149 670 l 74 670 l 74 744 m 74 670 l 149 670 l 149 595 l 74 595 l 74 670 m 74 595 l 149 595 l 149 521 l 74 521 l 74 595 m 74 521 l 149 521 l 149 446 l 74 446 l 74 521 m 0 521 l 74 521 l 74 446 l 0 446 l 0 521 m 0 595 l 74 595 l 74 521 l 0 521 l 0 595 m 0 670 l 74 670 l 74 595 l 0 595 l 0 670 m 0 446 l 74 446 l 74 372 l 0 372 l 0 446 m 0 372 l 74 372 l 74 298 l 0 298 l 0 372 m 0 298 l 74 298 l 74 223 l 0 223 l 0 298 m 74 372 l 149 372 l 149 298 l 74 298 l 74 372 m 74 446 l 149 446 l 149 372 l 74 372 l 74 446 m 74 298 l 149 298 l 149 223 l 74 223 l 74 298 m 74 223 l 149 223 l 149 149 l 74 149 l 74 223 m 0 149 l 74 149 l 74 74 l 0 74 l 0 149 m 0 223 l 74 223 l 74 149 l 0 149 l 0 223 m 0 74 l 74 74 l 74 0 l 0 0 l 0 74 m 74 74 l 149 74 l 149 0 l 74 0 l 74 74 m 74 149 l 149 149 l 149 74 l 74 74 l 74 149 m 149 74 l 223 74 l 223 0 l 149 0 l 149 74 m 223 74 l 298 74 l 298 0 l 223 0 l 223 74 m 298 74 l 372 74 l 372 0 l 298 0 l 298 74 m 298 149 l 372 149 l 372 74 l 298 74 l 298 149 m 223 149 l 298 149 l 298 74 l 223 74 l 223 149 m 149 149 l 223 149 l 223 74 l 149 74 l 149 149 m 149 744 l 223 744 l 223 670 l 149 670 l 149 744 m 223 744 l 298 744 l 298 670 l 223 670 l 223 744 m 298 744 l 372 744 l 372 670 l 298 670 l 298 744 m 372 744 l 446 744 l 446 670 l 372 670 l 372 744 m 298 670 l 372 670 l 372 595 l 298 595 l 298 670 m 223 670 l 298 670 l 298 595 l 223 595 l 223 670 m 149 670 l 223 670 l 223 595 l 149 595 l 149 670 m 149 372 l 223 372 l 223 298 l 149 298 l 149 372 m 223 446 l 298 446 l 298 372 l 223 372 l 223 446 m 149 446 l 223 446 l 223 372 l 149 372 l 149 446 m 223 372 l 298 372 l 298 298 l 223 298 l 223 372 m 372 670 l 446 670 l 446 595 l 372 595 l 372 670 m 372 149 l 446 149 l 446 74 l 372 74 l 372 149 m 372 74 l 446 74 l 446 0 l 372 0 l 372 74 m 298 446 l 372 446 l 372 372 l 298 372 l 298 446 m 298 372 l 372 372 l 372 298 l 298 298 l 298 372 m 446 0 l 446 -74 l 372 -74 l 372 0 l 446 0 m 372 -74 l 372 -149 l 298 -149 l 298 -74 l 372 -74 m 372 -149 l 372 -223 l 298 -223 l 298 -149 l 372 -149 m 446 -149 l 446 -223 l 372 -223 l 372 -149 l 446 -149 m 298 -223 l 372 -223 l 372 -298 l 298 -298 l 298 -223 m 372 -223 l 446 -223 l 446 -298 l 372 -298 l 372 -223 z "},"F":{"ha":521,"x_min":0,"x_max":446,"o":"m 0 744 l 74 744 l 74 670 l 0 670 l 0 744 m 74 744 l 149 744 l 149 670 l 74 670 l 74 744 m 74 670 l 149 670 l 149 595 l 74 595 l 74 670 m 74 595 l 149 595 l 149 521 l 74 521 l 74 595 m 74 521 l 149 521 l 149 446 l 74 446 l 74 521 m 0 521 l 74 521 l 74 446 l 0 446 l 0 521 m 0 595 l 74 595 l 74 521 l 0 521 l 0 595 m 0 670 l 74 670 l 74 595 l 0 595 l 0 670 m 0 446 l 74 446 l 74 372 l 0 372 l 0 446 m 0 372 l 74 372 l 74 298 l 0 298 l 0 372 m 0 298 l 74 298 l 74 223 l 0 223 l 0 298 m 74 372 l 149 372 l 149 298 l 74 298 l 74 372 m 74 446 l 149 446 l 149 372 l 74 372 l 74 446 m 74 298 l 149 298 l 149 223 l 74 223 l 74 298 m 74 223 l 149 223 l 149 149 l 74 149 l 74 223 m 0 149 l 74 149 l 74 74 l 0 74 l 0 149 m 0 223 l 74 223 l 74 149 l 0 149 l 0 223 m 0 74 l 74 74 l 74 0 l 0 0 l 0 74 m 74 74 l 149 74 l 149 0 l 74 0 l 74 74 m 74 149 l 149 149 l 149 74 l 74 74 l 74 149 m 149 744 l 223 744 l 223 670 l 149 670 l 149 744 m 223 744 l 298 744 l 298 670 l 223 670 l 223 744 m 298 744 l 372 744 l 372 670 l 298 670 l 298 744 m 372 744 l 446 744 l 446 670 l 372 670 l 372 744 m 298 670 l 372 670 l 372 595 l 298 595 l 298 670 m 223 670 l 298 670 l 298 595 l 223 595 l 223 670 m 149 670 l 223 670 l 223 595 l 149 595 l 149 670 m 149 372 l 223 372 l 223 298 l 149 298 l 149 372 m 223 446 l 298 446 l 298 372 l 223 372 l 223 446 m 149 446 l 223 446 l 223 372 l 149 372 l 149 446 m 223 372 l 298 372 l 298 298 l 223 298 l 223 372 m 372 670 l 446 670 l 446 595 l 372 595 l 372 670 m 298 446 l 372 446 l 372 372 l 298 372 l 298 446 m 298 372 l 372 372 l 372 298 l 298 298 l 298 372 z "},"G":{"ha":595,"x_min":0,"x_max":521,"o":"m 149 744 l 223 744 l 223 670 l 149 670 l 149 744 m 74 744 l 149 744 l 149 670 l 74 670 l 74 744 m 74 670 l 149 670 l 149 595 l 74 595 l 74 670 m 149 670 l 223 670 l 223 595 l 149 595 l 149 670 m 223 670 l 298 670 l 298 595 l 223 595 l 223 670 m 223 744 l 298 744 l 298 670 l 223 670 l 223 744 m 298 744 l 372 744 l 372 670 l 298 670 l 298 744 m 372 744 l 446 744 l 446 670 l 372 670 l 372 744 m 372 670 l 446 670 l 446 595 l 372 595 l 372 670 m 298 670 l 372 670 l 372 595 l 298 595 l 298 670 m 372 595 l 446 595 l 446 521 l 372 521 l 372 595 m 446 670 l 521 670 l 521 595 l 446 595 l 446 670 m 446 595 l 521 595 l 521 521 l 446 521 l 446 595 m 446 223 l 521 223 l 521 149 l 446 149 l 446 223 m 446 149 l 521 149 l 521 74 l 446 74 l 446 149 m 372 149 l 446 149 l 446 74 l 372 74 l 372 149 m 372 223 l 446 223 l 446 149 l 372 149 l 372 223 m 298 149 l 372 149 l 372 74 l 298 74 l 298 149 m 372 74 l 446 74 l 446 0 l 372 0 l 372 74 m 298 74 l 372 74 l 372 0 l 298 0 l 298 74 m 223 74 l 298 74 l 298 0 l 223 0 l 223 74 m 223 149 l 298 149 l 298 74 l 223 74 l 223 149 m 149 74 l 223 74 l 223 0 l 149 0 l 149 74 m 74 74 l 149 74 l 149 0 l 74 0 l 74 74 m 74 149 l 149 149 l 149 74 l 74 74 l 74 149 m 149 149 l 223 149 l 223 74 l 149 74 l 149 149 m 149 223 l 223 223 l 223 149 l 149 149 l 149 223 m 74 223 l 149 223 l 149 149 l 74 149 l 74 223 m 0 149 l 74 149 l 74 74 l 0 74 l 0 149 m 0 223 l 74 223 l 74 149 l 0 149 l 0 223 m 0 298 l 74 298 l 74 223 l 0 223 l 0 298 m 0 372 l 74 372 l 74 298 l 0 298 l 0 372 m 0 446 l 74 446 l 74 372 l 0 372 l 0 446 m 0 521 l 74 521 l 74 446 l 0 446 l 0 521 m 0 595 l 74 595 l 74 521 l 0 521 l 0 595 m 74 595 l 149 595 l 149 521 l 74 521 l 74 595 m 0 670 l 74 670 l 74 595 l 0 595 l 0 670 m 149 595 l 223 595 l 223 521 l 149 521 l 149 595 m 74 521 l 149 521 l 149 446 l 74 446 l 74 521 m 74 446 l 149 446 l 149 372 l 74 372 l 74 446 m 74 372 l 149 372 l 149 298 l 74 298 l 74 372 m 74 298 l 149 298 l 149 223 l 74 223 l 74 298 m 446 298 l 521 298 l 521 223 l 446 223 l 446 298 m 372 298 l 446 298 l 446 223 l 372 223 l 372 298 m 372 372 l 446 372 l 446 298 l 372 298 l 372 372 m 446 372 l 521 372 l 521 298 l 446 298 l 446 372 m 446 446 l 521 446 l 521 372 l 446 372 l 446 446 m 372 446 l 446 446 l 446 372 l 372 372 l 372 446 m 298 446 l 372 446 l 372 372 l 298 372 l 298 446 m 223 446 l 298 446 l 298 372 l 223 372 l 223 446 m 223 372 l 298 372 l 298 298 l 223 298 l 223 372 m 298 372 l 372 372 l 372 298 l 298 298 l 298 372 z "},"Ğ":{"ha":595,"x_min":0,"x_max":521,"o":"m 149 744 l 223 744 l 223 670 l 149 670 l 149 744 m 74 744 l 149 744 l 149 670 l 74 670 l 74 744 m 74 670 l 149 670 l 149 595 l 74 595 l 74 670 m 149 670 l 223 670 l 223 595 l 149 595 l 149 670 m 223 670 l 298 670 l 298 595 l 223 595 l 223 670 m 223 744 l 298 744 l 298 670 l 223 670 l 223 744 m 298 744 l 372 744 l 372 670 l 298 670 l 298 744 m 372 744 l 446 744 l 446 670 l 372 670 l 372 744 m 372 670 l 446 670 l 446 595 l 372 595 l 372 670 m 298 670 l 372 670 l 372 595 l 298 595 l 298 670 m 372 595 l 446 595 l 446 521 l 372 521 l 372 595 m 446 670 l 521 670 l 521 595 l 446 595 l 446 670 m 446 595 l 521 595 l 521 521 l 446 521 l 446 595 m 446 223 l 521 223 l 521 149 l 446 149 l 446 223 m 446 149 l 521 149 l 521 74 l 446 74 l 446 149 m 372 149 l 446 149 l 446 74 l 372 74 l 372 149 m 372 223 l 446 223 l 446 149 l 372 149 l 372 223 m 298 149 l 372 149 l 372 74 l 298 74 l 298 149 m 372 74 l 446 74 l 446 0 l 372 0 l 372 74 m 298 74 l 372 74 l 372 0 l 298 0 l 298 74 m 223 74 l 298 74 l 298 0 l 223 0 l 223 74 m 223 149 l 298 149 l 298 74 l 223 74 l 223 149 m 149 74 l 223 74 l 223 0 l 149 0 l 149 74 m 74 74 l 149 74 l 149 0 l 74 0 l 74 74 m 74 149 l 149 149 l 149 74 l 74 74 l 74 149 m 149 149 l 223 149 l 223 74 l 149 74 l 149 149 m 149 223 l 223 223 l 223 149 l 149 149 l 149 223 m 74 223 l 149 223 l 149 149 l 74 149 l 74 223 m 0 149 l 74 149 l 74 74 l 0 74 l 0 149 m 0 223 l 74 223 l 74 149 l 0 149 l 0 223 m 0 298 l 74 298 l 74 223 l 0 223 l 0 298 m 0 372 l 74 372 l 74 298 l 0 298 l 0 372 m 0 446 l 74 446 l 74 372 l 0 372 l 0 446 m 0 521 l 74 521 l 74 446 l 0 446 l 0 521 m 0 595 l 74 595 l 74 521 l 0 521 l 0 595 m 74 595 l 149 595 l 149 521 l 74 521 l 74 595 m 0 670 l 74 670 l 74 595 l 0 595 l 0 670 m 149 595 l 223 595 l 223 521 l 149 521 l 149 595 m 74 521 l 149 521 l 149 446 l 74 446 l 74 521 m 74 446 l 149 446 l 149 372 l 74 372 l 74 446 m 74 372 l 149 372 l 149 298 l 74 298 l 74 372 m 74 298 l 149 298 l 149 223 l 74 223 l 74 298 m 446 298 l 521 298 l 521 223 l 446 223 l 446 298 m 372 298 l 446 298 l 446 223 l 372 223 l 372 298 m 372 372 l 446 372 l 446 298 l 372 298 l 372 372 m 446 372 l 521 372 l 521 298 l 446 298 l 446 372 m 446 446 l 521 446 l 521 372 l 446 372 l 446 446 m 372 446 l 446 446 l 446 372 l 372 372 l 372 446 m 298 446 l 372 446 l 372 372 l 298 372 l 298 446 m 223 446 l 298 446 l 298 372 l 223 372 l 223 446 m 223 372 l 298 372 l 298 298 l 223 298 l 223 372 m 298 372 l 372 372 l 372 298 l 298 298 l 298 372 m 149 893 l 149 967 l 223 967 l 223 893 l 149 893 m 74 967 l 74 1042 l 149 1042 l 149 967 l 74 967 m 298 893 l 298 967 l 372 967 l 372 893 l 298 893 m 74 893 l 74 967 l 149 967 l 149 893 l 74 893 m 223 818 l 223 893 l 298 893 l 298 818 l 223 818 m 149 818 l 149 893 l 223 893 l 223 818 l 149 818 m 372 1042 l 446 1042 l 446 967 l 372 967 l 372 1042 m 372 967 l 446 967 l 446 893 l 372 893 l 372 967 m 298 893 l 372 893 l 372 818 l 298 818 l 298 893 m 223 967 l 298 967 l 298 893 l 223 893 l 223 967 z "},"Ģ":{"ha":595,"x_min":0,"x_max":521,"o":"m 149 744 l 223 744 l 223 670 l 149 670 l 149 744 m 74 744 l 149 744 l 149 670 l 74 670 l 74 744 m 74 670 l 149 670 l 149 595 l 74 595 l 74 670 m 149 670 l 223 670 l 223 595 l 149 595 l 149 670 m 223 670 l 298 670 l 298 595 l 223 595 l 223 670 m 223 744 l 298 744 l 298 670 l 223 670 l 223 744 m 298 744 l 372 744 l 372 670 l 298 670 l 298 744 m 372 744 l 446 744 l 446 670 l 372 670 l 372 744 m 372 670 l 446 670 l 446 595 l 372 595 l 372 670 m 298 670 l 372 670 l 372 595 l 298 595 l 298 670 m 372 595 l 446 595 l 446 521 l 372 521 l 372 595 m 446 670 l 521 670 l 521 595 l 446 595 l 446 670 m 446 595 l 521 595 l 521 521 l 446 521 l 446 595 m 446 223 l 521 223 l 521 149 l 446 149 l 446 223 m 446 149 l 521 149 l 521 74 l 446 74 l 446 149 m 372 149 l 446 149 l 446 74 l 372 74 l 372 149 m 372 223 l 446 223 l 446 149 l 372 149 l 372 223 m 298 149 l 372 149 l 372 74 l 298 74 l 298 149 m 372 74 l 446 74 l 446 0 l 372 0 l 372 74 m 298 74 l 372 74 l 372 0 l 298 0 l 298 74 m 223 74 l 298 74 l 298 0 l 223 0 l 223 74 m 223 149 l 298 149 l 298 74 l 223 74 l 223 149 m 149 74 l 223 74 l 223 0 l 149 0 l 149 74 m 74 74 l 149 74 l 149 0 l 74 0 l 74 74 m 74 149 l 149 149 l 149 74 l 74 74 l 74 149 m 149 149 l 223 149 l 223 74 l 149 74 l 149 149 m 149 223 l 223 223 l 223 149 l 149 149 l 149 223 m 74 223 l 149 223 l 149 149 l 74 149 l 74 223 m 0 149 l 74 149 l 74 74 l 0 74 l 0 149 m 0 223 l 74 223 l 74 149 l 0 149 l 0 223 m 0 298 l 74 298 l 74 223 l 0 223 l 0 298 m 0 372 l 74 372 l 74 298 l 0 298 l 0 372 m 0 446 l 74 446 l 74 372 l 0 372 l 0 446 m 0 521 l 74 521 l 74 446 l 0 446 l 0 521 m 0 595 l 74 595 l 74 521 l 0 521 l 0 595 m 74 595 l 149 595 l 149 521 l 74 521 l 74 595 m 0 670 l 74 670 l 74 595 l 0 595 l 0 670 m 149 595 l 223 595 l 223 521 l 149 521 l 149 595 m 74 521 l 149 521 l 149 446 l 74 446 l 74 521 m 74 446 l 149 446 l 149 372 l 74 372 l 74 446 m 74 372 l 149 372 l 149 298 l 74 298 l 74 372 m 74 298 l 149 298 l 149 223 l 74 223 l 74 298 m 446 298 l 521 298 l 521 223 l 446 223 l 446 298 m 372 298 l 446 298 l 446 223 l 372 223 l 372 298 m 372 372 l 446 372 l 446 298 l 372 298 l 372 372 m 446 372 l 521 372 l 521 298 l 446 298 l 446 372 m 446 446 l 521 446 l 521 372 l 446 372 l 446 446 m 372 446 l 446 446 l 446 372 l 372 372 l 372 446 m 298 446 l 372 446 l 372 372 l 298 372 l 298 446 m 223 446 l 298 446 l 298 372 l 223 372 l 223 446 m 223 372 l 298 372 l 298 298 l 223 298 l 223 372 m 298 372 l 372 372 l 372 298 l 298 298 l 298 372 m 223 -74 l 298 -74 l 298 -149 l 223 -149 l 223 -74 m 298 -74 l 372 -74 l 372 -149 l 298 -149 l 298 -74 m 298 -149 l 372 -149 l 372 -223 l 298 -223 l 298 -149 m 223 -149 l 298 -149 l 298 -223 l 223 -223 l 223 -149 m 298 -223 l 372 -223 l 372 -298 l 298 -298 l 298 -223 m 223 -298 l 298 -298 l 298 -372 l 223 -372 l 223 -298 z "},"Ġ":{"ha":595,"x_min":0,"x_max":521,"o":"m 149 744 l 223 744 l 223 670 l 149 670 l 149 744 m 74 744 l 149 744 l 149 670 l 74 670 l 74 744 m 74 670 l 149 670 l 149 595 l 74 595 l 74 670 m 149 670 l 223 670 l 223 595 l 149 595 l 149 670 m 223 670 l 298 670 l 298 595 l 223 595 l 223 670 m 223 744 l 298 744 l 298 670 l 223 670 l 223 744 m 298 744 l 372 744 l 372 670 l 298 670 l 298 744 m 372 744 l 446 744 l 446 670 l 372 670 l 372 744 m 372 670 l 446 670 l 446 595 l 372 595 l 372 670 m 298 670 l 372 670 l 372 595 l 298 595 l 298 670 m 372 595 l 446 595 l 446 521 l 372 521 l 372 595 m 446 670 l 521 670 l 521 595 l 446 595 l 446 670 m 446 595 l 521 595 l 521 521 l 446 521 l 446 595 m 446 223 l 521 223 l 521 149 l 446 149 l 446 223 m 446 149 l 521 149 l 521 74 l 446 74 l 446 149 m 372 149 l 446 149 l 446 74 l 372 74 l 372 149 m 372 223 l 446 223 l 446 149 l 372 149 l 372 223 m 298 149 l 372 149 l 372 74 l 298 74 l 298 149 m 372 74 l 446 74 l 446 0 l 372 0 l 372 74 m 298 74 l 372 74 l 372 0 l 298 0 l 298 74 m 223 74 l 298 74 l 298 0 l 223 0 l 223 74 m 223 149 l 298 149 l 298 74 l 223 74 l 223 149 m 149 74 l 223 74 l 223 0 l 149 0 l 149 74 m 74 74 l 149 74 l 149 0 l 74 0 l 74 74 m 74 149 l 149 149 l 149 74 l 74 74 l 74 149 m 149 149 l 223 149 l 223 74 l 149 74 l 149 149 m 149 223 l 223 223 l 223 149 l 149 149 l 149 223 m 74 223 l 149 223 l 149 149 l 74 149 l 74 223 m 0 149 l 74 149 l 74 74 l 0 74 l 0 149 m 0 223 l 74 223 l 74 149 l 0 149 l 0 223 m 0 298 l 74 298 l 74 223 l 0 223 l 0 298 m 0 372 l 74 372 l 74 298 l 0 298 l 0 372 m 0 446 l 74 446 l 74 372 l 0 372 l 0 446 m 0 521 l 74 521 l 74 446 l 0 446 l 0 521 m 0 595 l 74 595 l 74 521 l 0 521 l 0 595 m 74 595 l 149 595 l 149 521 l 74 521 l 74 595 m 0 670 l 74 670 l 74 595 l 0 595 l 0 670 m 149 595 l 223 595 l 223 521 l 149 521 l 149 595 m 74 521 l 149 521 l 149 446 l 74 446 l 74 521 m 74 446 l 149 446 l 149 372 l 74 372 l 74 446 m 74 372 l 149 372 l 149 298 l 74 298 l 74 372 m 74 298 l 149 298 l 149 223 l 74 223 l 74 298 m 446 298 l 521 298 l 521 223 l 446 223 l 446 298 m 372 298 l 446 298 l 446 223 l 372 223 l 372 298 m 372 372 l 446 372 l 446 298 l 372 298 l 372 372 m 446 372 l 521 372 l 521 298 l 446 298 l 446 372 m 446 446 l 521 446 l 521 372 l 446 372 l 446 446 m 372 446 l 446 446 l 446 372 l 372 372 l 372 446 m 298 446 l 372 446 l 372 372 l 298 372 l 298 446 m 223 446 l 298 446 l 298 372 l 223 372 l 223 446 m 223 372 l 298 372 l 298 298 l 223 298 l 223 372 m 298 372 l 372 372 l 372 298 l 298 298 l 298 372 m 149 967 l 223 967 l 223 893 l 149 893 l 149 967 m 223 967 l 298 967 l 298 893 l 223 893 l 223 967 m 223 893 l 298 893 l 298 818 l 223 818 l 223 893 m 149 893 l 223 893 l 223 818 l 149 818 l 149 893 z "},"H":{"ha":595,"x_min":0,"x_max":521,"o":"m 0 744 l 74 744 l 74 670 l 0 670 l 0 744 m 74 744 l 149 744 l 149 670 l 74 670 l 74 744 m 74 670 l 149 670 l 149 595 l 74 595 l 74 670 m 74 595 l 149 595 l 149 521 l 74 521 l 74 595 m 74 521 l 149 521 l 149 446 l 74 446 l 74 521 m 0 595 l 74 595 l 74 521 l 0 521 l 0 595 m 0 670 l 74 670 l 74 595 l 0 595 l 0 670 m 0 521 l 74 521 l 74 446 l 0 446 l 0 521 m 0 446 l 74 446 l 74 372 l 0 372 l 0 446 m 0 298 l 74 298 l 74 223 l 0 223 l 0 298 m 0 372 l 74 372 l 74 298 l 0 298 l 0 372 m 74 446 l 149 446 l 149 372 l 74 372 l 74 446 m 74 372 l 149 372 l 149 298 l 74 298 l 74 372 m 74 298 l 149 298 l 149 223 l 74 223 l 74 298 m 74 223 l 149 223 l 149 149 l 74 149 l 74 223 m 0 223 l 74 223 l 74 149 l 0 149 l 0 223 m 0 74 l 74 74 l 74 0 l 0 0 l 0 74 m 74 74 l 149 74 l 149 0 l 74 0 l 74 74 m 74 149 l 149 149 l 149 74 l 74 74 l 74 149 m 0 149 l 74 149 l 74 74 l 0 74 l 0 149 m 446 74 l 521 74 l 521 0 l 446 0 l 446 74 m 446 149 l 521 149 l 521 74 l 446 74 l 446 149 m 446 223 l 521 223 l 521 149 l 446 149 l 446 223 m 446 298 l 521 298 l 521 223 l 446 223 l 446 298 m 446 372 l 521 372 l 521 298 l 446 298 l 446 372 m 446 446 l 521 446 l 521 372 l 446 372 l 446 446 m 446 744 l 521 744 l 521 670 l 446 670 l 446 744 m 372 744 l 446 744 l 446 670 l 372 670 l 372 744 m 372 670 l 446 670 l 446 595 l 372 595 l 372 670 m 372 595 l 446 595 l 446 521 l 372 521 l 372 595 m 372 521 l 446 521 l 446 446 l 372 446 l 372 521 m 446 521 l 521 521 l 521 446 l 446 446 l 446 521 m 446 595 l 521 595 l 521 521 l 446 521 l 446 595 m 446 670 l 521 670 l 521 595 l 446 595 l 446 670 m 372 446 l 446 446 l 446 372 l 372 372 l 372 446 m 372 149 l 446 149 l 446 74 l 372 74 l 372 149 m 372 223 l 446 223 l 446 149 l 372 149 l 372 223 m 372 298 l 446 298 l 446 223 l 372 223 l 372 298 m 372 372 l 446 372 l 446 298 l 372 298 l 372 372 m 372 74 l 446 74 l 446 0 l 372 0 l 372 74 m 298 446 l 372 446 l 372 372 l 298 372 l 298 446 m 223 446 l 298 446 l 298 372 l 223 372 l 223 446 m 149 446 l 223 446 l 223 372 l 149 372 l 149 446 m 149 372 l 223 372 l 223 298 l 149 298 l 149 372 m 223 372 l 298 372 l 298 298 l 223 298 l 223 372 m 298 372 l 372 372 l 372 298 l 298 298 l 298 372 z "},"Ħ":{"ha":744,"x_min":0,"x_max":670,"o":"m 74 744 l 149 744 l 149 670 l 74 670 l 74 744 m 149 744 l 223 744 l 223 670 l 149 670 l 149 744 m 149 670 l 223 670 l 223 595 l 149 595 l 149 670 m 149 595 l 223 595 l 223 521 l 149 521 l 149 595 m 149 521 l 223 521 l 223 446 l 149 446 l 149 521 m 74 595 l 149 595 l 149 521 l 74 521 l 74 595 m 74 670 l 149 670 l 149 595 l 74 595 l 74 670 m 74 521 l 149 521 l 149 446 l 74 446 l 74 521 m 74 446 l 149 446 l 149 372 l 74 372 l 74 446 m 74 298 l 149 298 l 149 223 l 74 223 l 74 298 m 74 372 l 149 372 l 149 298 l 74 298 l 74 372 m 149 446 l 223 446 l 223 372 l 149 372 l 149 446 m 149 372 l 223 372 l 223 298 l 149 298 l 149 372 m 149 298 l 223 298 l 223 223 l 149 223 l 149 298 m 149 223 l 223 223 l 223 149 l 149 149 l 149 223 m 74 223 l 149 223 l 149 149 l 74 149 l 74 223 m 74 74 l 149 74 l 149 0 l 74 0 l 74 74 m 149 74 l 223 74 l 223 0 l 149 0 l 149 74 m 149 149 l 223 149 l 223 74 l 149 74 l 149 149 m 74 149 l 149 149 l 149 74 l 74 74 l 74 149 m 521 74 l 595 74 l 595 0 l 521 0 l 521 74 m 521 149 l 595 149 l 595 74 l 521 74 l 521 149 m 521 223 l 595 223 l 595 149 l 521 149 l 521 223 m 521 298 l 595 298 l 595 223 l 521 223 l 521 298 m 521 372 l 595 372 l 595 298 l 521 298 l 521 372 m 521 446 l 595 446 l 595 372 l 521 372 l 521 446 m 521 744 l 595 744 l 595 670 l 521 670 l 521 744 m 446 744 l 521 744 l 521 670 l 446 670 l 446 744 m 446 670 l 521 670 l 521 595 l 446 595 l 446 670 m 446 595 l 521 595 l 521 521 l 446 521 l 446 595 m 446 521 l 521 521 l 521 446 l 446 446 l 446 521 m 521 521 l 595 521 l 595 446 l 521 446 l 521 521 m 521 595 l 595 595 l 595 521 l 521 521 l 521 595 m 521 670 l 595 670 l 595 595 l 521 595 l 521 670 m 446 446 l 521 446 l 521 372 l 446 372 l 446 446 m 446 149 l 521 149 l 521 74 l 446 74 l 446 149 m 446 223 l 521 223 l 521 149 l 446 149 l 446 223 m 446 298 l 521 298 l 521 223 l 446 223 l 446 298 m 446 372 l 521 372 l 521 298 l 446 298 l 446 372 m 446 74 l 521 74 l 521 0 l 446 0 l 446 74 m 372 446 l 446 446 l 446 372 l 372 372 l 372 446 m 298 446 l 372 446 l 372 372 l 298 372 l 298 446 m 223 446 l 298 446 l 298 372 l 223 372 l 223 446 m 223 372 l 298 372 l 298 298 l 223 298 l 223 372 m 298 372 l 372 372 l 372 298 l 298 298 l 298 372 m 372 372 l 446 372 l 446 298 l 372 298 l 372 372 m 595 595 l 670 595 l 670 521 l 595 521 l 595 595 m 595 670 l 670 670 l 670 595 l 595 595 l 595 670 m 372 670 l 446 670 l 446 595 l 372 595 l 372 670 m 298 670 l 372 670 l 372 595 l 298 595 l 298 670 m 223 670 l 298 670 l 298 595 l 223 595 l 223 670 m 0 670 l 74 670 l 74 595 l 0 595 l 0 670 m 0 595 l 74 595 l 74 521 l 0 521 l 0 595 m 372 595 l 446 595 l 446 521 l 372 521 l 372 595 m 298 595 l 372 595 l 372 521 l 298 521 l 298 595 m 223 595 l 298 595 l 298 521 l 223 521 l 223 595 z "},"I":{"ha":223,"x_min":0,"x_max":149,"o":"m 0 74 l 74 74 l 74 0 l 0 0 l 0 74 m 74 74 l 149 74 l 149 0 l 74 0 l 74 74 m 74 149 l 149 149 l 149 74 l 74 74 l 74 149 m 74 223 l 149 223 l 149 149 l 74 149 l 74 223 m 74 298 l 149 298 l 149 223 l 74 223 l 74 298 m 74 372 l 149 372 l 149 298 l 74 298 l 74 372 m 74 446 l 149 446 l 149 372 l 74 372 l 74 446 m 0 446 l 74 446 l 74 372 l 0 372 l 0 446 m 0 372 l 74 372 l 74 298 l 0 298 l 0 372 m 0 298 l 74 298 l 74 223 l 0 223 l 0 298 m 0 223 l 74 223 l 74 149 l 0 149 l 0 223 m 0 149 l 74 149 l 74 74 l 0 74 l 0 149 m 0 521 l 74 521 l 74 446 l 0 446 l 0 521 m 74 521 l 149 521 l 149 446 l 74 446 l 74 521 m 74 595 l 149 595 l 149 521 l 74 521 l 74 595 m 74 670 l 149 670 l 149 595 l 74 595 l 74 670 m 74 744 l 149 744 l 149 670 l 74 670 l 74 744 m 0 744 l 74 744 l 74 670 l 0 670 l 0 744 m 0 670 l 74 670 l 74 595 l 0 595 l 0 670 m 0 595 l 74 595 l 74 521 l 0 521 l 0 595 z "},"Ĳ":{"ha":744,"x_min":0,"x_max":670,"o":"m 0 74 l 74 74 l 74 0 l 0 0 l 0 74 m 74 74 l 149 74 l 149 0 l 74 0 l 74 74 m 74 149 l 149 149 l 149 74 l 74 74 l 74 149 m 74 223 l 149 223 l 149 149 l 74 149 l 74 223 m 74 298 l 149 298 l 149 223 l 74 223 l 74 298 m 74 372 l 149 372 l 149 298 l 74 298 l 74 372 m 74 446 l 149 446 l 149 372 l 74 372 l 74 446 m 0 446 l 74 446 l 74 372 l 0 372 l 0 446 m 0 372 l 74 372 l 74 298 l 0 298 l 0 372 m 0 298 l 74 298 l 74 223 l 0 223 l 0 298 m 0 223 l 74 223 l 74 149 l 0 149 l 0 223 m 0 149 l 74 149 l 74 74 l 0 74 l 0 149 m 0 521 l 74 521 l 74 446 l 0 446 l 0 521 m 74 521 l 149 521 l 149 446 l 74 446 l 74 521 m 74 595 l 149 595 l 149 521 l 74 521 l 74 595 m 74 670 l 149 670 l 149 595 l 74 595 l 74 670 m 74 744 l 149 744 l 149 670 l 74 670 l 74 744 m 0 744 l 74 744 l 74 670 l 0 670 l 0 744 m 0 670 l 74 670 l 74 595 l 0 595 l 0 670 m 0 595 l 74 595 l 74 521 l 0 521 l 0 595 m 595 744 l 670 744 l 670 670 l 595 670 l 595 744 m 521 744 l 595 744 l 595 670 l 521 670 l 521 744 m 521 670 l 595 670 l 595 595 l 521 595 l 521 670 m 521 595 l 595 595 l 595 521 l 521 521 l 521 595 m 521 521 l 595 521 l 595 446 l 521 446 l 521 521 m 521 446 l 595 446 l 595 372 l 521 372 l 521 446 m 595 446 l 670 446 l 670 372 l 595 372 l 595 446 m 595 521 l 670 521 l 670 446 l 595 446 l 595 521 m 595 595 l 670 595 l 670 521 l 595 521 l 595 595 m 595 670 l 670 670 l 670 595 l 595 595 l 595 670 m 595 372 l 670 372 l 670 298 l 595 298 l 595 372 m 595 298 l 670 298 l 670 223 l 595 223 l 595 298 m 595 223 l 670 223 l 670 149 l 595 149 l 595 223 m 595 149 l 670 149 l 670 74 l 595 74 l 595 149 m 521 149 l 595 149 l 595 74 l 521 74 l 521 149 m 521 74 l 595 74 l 595 0 l 521 0 l 521 74 m 446 74 l 521 74 l 521 0 l 446 0 l 446 74 m 446 149 l 521 149 l 521 74 l 446 74 l 446 149 m 521 223 l 595 223 l 595 149 l 521 149 l 521 223 m 521 298 l 595 298 l 595 223 l 521 223 l 521 298 m 521 372 l 595 372 l 595 298 l 521 298 l 521 372 m 372 74 l 446 74 l 446 0 l 372 0 l 372 74 m 298 74 l 372 74 l 372 0 l 298 0 l 298 74 m 223 149 l 298 149 l 298 74 l 223 74 l 223 149 m 223 223 l 298 223 l 298 149 l 223 149 l 223 223 m 298 223 l 372 223 l 372 149 l 298 149 l 298 223 m 298 149 l 372 149 l 372 74 l 298 74 l 298 149 m 372 149 l 446 149 l 446 74 l 372 74 l 372 149 m 446 223 l 521 223 l 521 149 l 446 149 l 446 223 z "},"Í":{"ha":223,"x_min":0,"x_max":223,"o":"m 0 74 l 74 74 l 74 0 l 0 0 l 0 74 m 74 74 l 149 74 l 149 0 l 74 0 l 74 74 m 74 149 l 149 149 l 149 74 l 74 74 l 74 149 m 74 223 l 149 223 l 149 149 l 74 149 l 74 223 m 74 298 l 149 298 l 149 223 l 74 223 l 74 298 m 74 372 l 149 372 l 149 298 l 74 298 l 74 372 m 74 446 l 149 446 l 149 372 l 74 372 l 74 446 m 0 446 l 74 446 l 74 372 l 0 372 l 0 446 m 0 372 l 74 372 l 74 298 l 0 298 l 0 372 m 0 298 l 74 298 l 74 223 l 0 223 l 0 298 m 0 223 l 74 223 l 74 149 l 0 149 l 0 223 m 0 149 l 74 149 l 74 74 l 0 74 l 0 149 m 0 521 l 74 521 l 74 446 l 0 446 l 0 521 m 74 521 l 149 521 l 149 446 l 74 446 l 74 521 m 74 595 l 149 595 l 149 521 l 74 521 l 74 595 m 74 670 l 149 670 l 149 595 l 74 595 l 74 670 m 74 744 l 149 744 l 149 670 l 74 670 l 74 744 m 0 744 l 74 744 l 74 670 l 0 670 l 0 744 m 0 670 l 74 670 l 74 595 l 0 595 l 0 670 m 0 595 l 74 595 l 74 521 l 0 521 l 0 595 m 149 967 l 149 893 l 74 893 l 74 967 l 149 967 m 149 893 l 149 818 l 74 818 l 74 893 l 149 893 m 223 967 l 223 893 l 149 893 l 149 967 l 223 967 m 223 1042 l 223 967 l 149 967 l 149 1042 l 223 1042 z "},"Î":{"ha":298,"x_min":0,"x_max":298,"o":"m 0 967 l 74 967 l 74 1042 l 223 1042 l 223 967 l 298 967 l 298 818 l 223 818 l 223 893 l 74 893 l 74 818 l 0 818 l 0 967 m 74 744 l 223 744 l 223 0 l 74 0 l 74 744 z "},"Ï":{"ha":298,"x_min":-74,"x_max":372,"o":"m 223 967 l 372 967 l 372 818 l 223 818 l 223 967 m -74 967 l 74 967 l 74 818 l -74 818 l -74 967 m 74 744 l 223 744 l 223 0 l 74 0 l 74 744 z "},"İ":{"ha":223,"x_min":0,"x_max":149,"o":"m 0 74 l 74 74 l 74 0 l 0 0 l 0 74 m 74 74 l 149 74 l 149 0 l 74 0 l 74 74 m 74 149 l 149 149 l 149 74 l 74 74 l 74 149 m 74 223 l 149 223 l 149 149 l 74 149 l 74 223 m 74 298 l 149 298 l 149 223 l 74 223 l 74 298 m 74 372 l 149 372 l 149 298 l 74 298 l 74 372 m 74 446 l 149 446 l 149 372 l 74 372 l 74 446 m 0 446 l 74 446 l 74 372 l 0 372 l 0 446 m 0 372 l 74 372 l 74 298 l 0 298 l 0 372 m 0 298 l 74 298 l 74 223 l 0 223 l 0 298 m 0 223 l 74 223 l 74 149 l 0 149 l 0 223 m 0 149 l 74 149 l 74 74 l 0 74 l 0 149 m 0 521 l 74 521 l 74 446 l 0 446 l 0 521 m 74 521 l 149 521 l 149 446 l 74 446 l 74 521 m 74 595 l 149 595 l 149 521 l 74 521 l 74 595 m 74 670 l 149 670 l 149 595 l 74 595 l 74 670 m 74 744 l 149 744 l 149 670 l 74 670 l 74 744 m 0 744 l 74 744 l 74 670 l 0 670 l 0 744 m 0 670 l 74 670 l 74 595 l 0 595 l 0 670 m 0 595 l 74 595 l 74 521 l 0 521 l 0 595 m 0 967 l 74 967 l 74 893 l 0 893 l 0 967 m 74 967 l 149 967 l 149 893 l 74 893 l 74 967 m 74 893 l 149 893 l 149 818 l 74 818 l 74 893 m 0 893 l 74 893 l 74 818 l 0 818 l 0 893 z "},"Ì":{"ha":223,"x_min":0,"x_max":223,"o":"m 0 74 l 74 74 l 74 0 l 0 0 l 0 74 m 74 74 l 149 74 l 149 0 l 74 0 l 74 74 m 74 149 l 149 149 l 149 74 l 74 74 l 74 149 m 74 223 l 149 223 l 149 149 l 74 149 l 74 223 m 74 298 l 149 298 l 149 223 l 74 223 l 74 298 m 74 372 l 149 372 l 149 298 l 74 298 l 74 372 m 74 446 l 149 446 l 149 372 l 74 372 l 74 446 m 0 446 l 74 446 l 74 372 l 0 372 l 0 446 m 0 372 l 74 372 l 74 298 l 0 298 l 0 372 m 0 298 l 74 298 l 74 223 l 0 223 l 0 298 m 0 223 l 74 223 l 74 149 l 0 149 l 0 223 m 0 149 l 74 149 l 74 74 l 0 74 l 0 149 m 0 521 l 74 521 l 74 446 l 0 446 l 0 521 m 74 521 l 149 521 l 149 446 l 74 446 l 74 521 m 74 595 l 149 595 l 149 521 l 74 521 l 74 595 m 74 670 l 149 670 l 149 595 l 74 595 l 74 670 m 74 744 l 149 744 l 149 670 l 74 670 l 74 744 m 0 744 l 74 744 l 74 670 l 0 670 l 0 744 m 0 670 l 74 670 l 74 595 l 0 595 l 0 670 m 0 595 l 74 595 l 74 521 l 0 521 l 0 595 m 74 967 l 149 967 l 149 893 l 74 893 l 74 967 m 74 893 l 149 893 l 149 818 l 74 818 l 74 893 m 0 967 l 74 967 l 74 893 l 0 893 l 0 967 m 149 893 l 223 893 l 223 818 l 149 818 l 149 893 m 0 1042 l 74 1042 l 74 967 l 0 967 l 0 1042 z "},"Ī":{"ha":298,"x_min":0,"x_max":298,"o":"m 0 967 l 298 967 l 298 818 l 0 818 l 0 967 m 74 744 l 223 744 l 223 0 l 74 0 l 74 744 z "},"Į":{"ha":223,"x_min":0,"x_max":149,"o":"m 0 74 l 74 74 l 74 0 l 0 0 l 0 74 m 74 74 l 149 74 l 149 0 l 74 0 l 74 74 m 74 149 l 149 149 l 149 74 l 74 74 l 74 149 m 74 223 l 149 223 l 149 149 l 74 149 l 74 223 m 74 298 l 149 298 l 149 223 l 74 223 l 74 298 m 74 372 l 149 372 l 149 298 l 74 298 l 74 372 m 74 446 l 149 446 l 149 372 l 74 372 l 74 446 m 0 446 l 74 446 l 74 372 l 0 372 l 0 446 m 0 372 l 74 372 l 74 298 l 0 298 l 0 372 m 0 298 l 74 298 l 74 223 l 0 223 l 0 298 m 0 223 l 74 223 l 74 149 l 0 149 l 0 223 m 0 149 l 74 149 l 74 74 l 0 74 l 0 149 m 0 521 l 74 521 l 74 446 l 0 446 l 0 521 m 74 521 l 149 521 l 149 446 l 74 446 l 74 521 m 74 595 l 149 595 l 149 521 l 74 521 l 74 595 m 74 670 l 149 670 l 149 595 l 74 595 l 74 670 m 74 744 l 149 744 l 149 670 l 74 670 l 74 744 m 0 744 l 74 744 l 74 670 l 0 670 l 0 744 m 0 670 l 74 670 l 74 595 l 0 595 l 0 670 m 0 595 l 74 595 l 74 521 l 0 521 l 0 595 m 149 0 l 149 -74 l 74 -74 l 74 0 l 149 0 m 74 -74 l 74 -149 l 0 -149 l 0 -74 l 74 -74 m 74 -149 l 74 -223 l 0 -223 l 0 -149 l 74 -149 m 149 -149 l 149 -223 l 74 -223 l 74 -149 l 149 -149 m 0 -223 l 74 -223 l 74 -298 l 0 -298 l 0 -223 m 74 -223 l 149 -223 l 149 -298 l 74 -298 l 74 -223 z "},"J":{"ha":521,"x_min":0,"x_max":446,"o":"m 372 744 l 446 744 l 446 670 l 372 670 l 372 744 m 298 744 l 372 744 l 372 670 l 298 670 l 298 744 m 298 670 l 372 670 l 372 595 l 298 595 l 298 670 m 298 595 l 372 595 l 372 521 l 298 521 l 298 595 m 298 521 l 372 521 l 372 446 l 298 446 l 298 521 m 298 446 l 372 446 l 372 372 l 298 372 l 298 446 m 372 446 l 446 446 l 446 372 l 372 372 l 372 446 m 372 521 l 446 521 l 446 446 l 372 446 l 372 521 m 372 595 l 446 595 l 446 521 l 372 521 l 372 595 m 372 670 l 446 670 l 446 595 l 372 595 l 372 670 m 372 372 l 446 372 l 446 298 l 372 298 l 372 372 m 372 298 l 446 298 l 446 223 l 372 223 l 372 298 m 372 223 l 446 223 l 446 149 l 372 149 l 372 223 m 372 149 l 446 149 l 446 74 l 372 74 l 372 149 m 298 149 l 372 149 l 372 74 l 298 74 l 298 149 m 298 74 l 372 74 l 372 0 l 298 0 l 298 74 m 223 74 l 298 74 l 298 0 l 223 0 l 223 74 m 223 149 l 298 149 l 298 74 l 223 74 l 223 149 m 298 223 l 372 223 l 372 149 l 298 149 l 298 223 m 298 298 l 372 298 l 372 223 l 298 223 l 298 298 m 298 372 l 372 372 l 372 298 l 298 298 l 298 372 m 149 74 l 223 74 l 223 0 l 149 0 l 149 74 m 74 74 l 149 74 l 149 0 l 74 0 l 74 74 m 0 149 l 74 149 l 74 74 l 0 74 l 0 149 m 0 223 l 74 223 l 74 149 l 0 149 l 0 223 m 74 223 l 149 223 l 149 149 l 74 149 l 74 223 m 74 149 l 149 149 l 149 74 l 74 74 l 74 149 m 149 149 l 223 149 l 223 74 l 149 74 l 149 149 m 223 223 l 298 223 l 298 149 l 223 149 l 223 223 z "},"K":{"ha":521,"x_min":0,"x_max":446,"o":"m 74 744 l 149 744 l 149 670 l 74 670 l 74 744 m 0 744 l 74 744 l 74 670 l 0 670 l 0 744 m 0 670 l 74 670 l 74 595 l 0 595 l 0 670 m 0 595 l 74 595 l 74 521 l 0 521 l 0 595 m 0 521 l 74 521 l 74 446 l 0 446 l 0 521 m 0 446 l 74 446 l 74 372 l 0 372 l 0 446 m 0 372 l 74 372 l 74 298 l 0 298 l 0 372 m 0 298 l 74 298 l 74 223 l 0 223 l 0 298 m 0 223 l 74 223 l 74 149 l 0 149 l 0 223 m 0 149 l 74 149 l 74 74 l 0 74 l 0 149 m 0 74 l 74 74 l 74 0 l 0 0 l 0 74 m 74 74 l 149 74 l 149 0 l 74 0 l 74 74 m 74 149 l 149 149 l 149 74 l 74 74 l 74 149 m 74 223 l 149 223 l 149 149 l 74 149 l 74 223 m 74 298 l 149 298 l 149 223 l 74 223 l 74 298 m 74 372 l 149 372 l 149 298 l 74 298 l 74 372 m 74 446 l 149 446 l 149 372 l 74 372 l 74 446 m 74 521 l 149 521 l 149 446 l 74 446 l 74 521 m 74 595 l 149 595 l 149 521 l 74 521 l 74 595 m 74 670 l 149 670 l 149 595 l 74 595 l 74 670 m 149 372 l 223 372 l 223 298 l 149 298 l 149 372 m 223 372 l 298 372 l 298 298 l 223 298 l 223 372 m 223 446 l 298 446 l 298 372 l 223 372 l 223 446 m 149 446 l 223 446 l 223 372 l 149 372 l 149 446 m 223 521 l 298 521 l 298 446 l 223 446 l 223 521 m 298 521 l 372 521 l 372 446 l 298 446 l 298 521 m 298 595 l 372 595 l 372 521 l 298 521 l 298 595 m 298 670 l 372 670 l 372 595 l 298 595 l 298 670 m 298 744 l 372 744 l 372 670 l 298 670 l 298 744 m 372 744 l 446 744 l 446 670 l 372 670 l 372 744 m 372 670 l 446 670 l 446 595 l 372 595 l 372 670 m 372 595 l 446 595 l 446 521 l 372 521 l 372 595 m 223 298 l 298 298 l 298 223 l 223 223 l 223 298 m 298 298 l 372 298 l 372 223 l 298 223 l 298 298 m 298 223 l 372 223 l 372 149 l 298 149 l 298 223 m 298 149 l 372 149 l 372 74 l 298 74 l 298 149 m 298 74 l 372 74 l 372 0 l 298 0 l 298 74 m 372 74 l 446 74 l 446 0 l 372 0 l 372 74 m 372 149 l 446 149 l 446 74 l 372 74 l 372 149 m 372 223 l 446 223 l 446 149 l 372 149 l 372 223 m 372 298 l 446 298 l 446 223 l 372 223 l 372 298 m 298 372 l 372 372 l 372 298 l 298 298 l 298 372 z "},"Ķ":{"ha":521,"x_min":0,"x_max":446,"o":"m 74 744 l 149 744 l 149 670 l 74 670 l 74 744 m 0 744 l 74 744 l 74 670 l 0 670 l 0 744 m 0 670 l 74 670 l 74 595 l 0 595 l 0 670 m 0 595 l 74 595 l 74 521 l 0 521 l 0 595 m 0 521 l 74 521 l 74 446 l 0 446 l 0 521 m 0 446 l 74 446 l 74 372 l 0 372 l 0 446 m 0 372 l 74 372 l 74 298 l 0 298 l 0 372 m 0 298 l 74 298 l 74 223 l 0 223 l 0 298 m 0 223 l 74 223 l 74 149 l 0 149 l 0 223 m 0 149 l 74 149 l 74 74 l 0 74 l 0 149 m 0 74 l 74 74 l 74 0 l 0 0 l 0 74 m 74 74 l 149 74 l 149 0 l 74 0 l 74 74 m 74 149 l 149 149 l 149 74 l 74 74 l 74 149 m 74 223 l 149 223 l 149 149 l 74 149 l 74 223 m 74 298 l 149 298 l 149 223 l 74 223 l 74 298 m 74 372 l 149 372 l 149 298 l 74 298 l 74 372 m 74 446 l 149 446 l 149 372 l 74 372 l 74 446 m 74 521 l 149 521 l 149 446 l 74 446 l 74 521 m 74 595 l 149 595 l 149 521 l 74 521 l 74 595 m 74 670 l 149 670 l 149 595 l 74 595 l 74 670 m 149 372 l 223 372 l 223 298 l 149 298 l 149 372 m 223 372 l 298 372 l 298 298 l 223 298 l 223 372 m 223 446 l 298 446 l 298 372 l 223 372 l 223 446 m 149 446 l 223 446 l 223 372 l 149 372 l 149 446 m 223 521 l 298 521 l 298 446 l 223 446 l 223 521 m 298 521 l 372 521 l 372 446 l 298 446 l 298 521 m 298 595 l 372 595 l 372 521 l 298 521 l 298 595 m 298 670 l 372 670 l 372 595 l 298 595 l 298 670 m 298 744 l 372 744 l 372 670 l 298 670 l 298 744 m 372 744 l 446 744 l 446 670 l 372 670 l 372 744 m 372 670 l 446 670 l 446 595 l 372 595 l 372 670 m 372 595 l 446 595 l 446 521 l 372 521 l 372 595 m 223 298 l 298 298 l 298 223 l 223 223 l 223 298 m 298 298 l 372 298 l 372 223 l 298 223 l 298 298 m 298 223 l 372 223 l 372 149 l 298 149 l 298 223 m 298 149 l 372 149 l 372 74 l 298 74 l 298 149 m 298 74 l 372 74 l 372 0 l 298 0 l 298 74 m 372 74 l 446 74 l 446 0 l 372 0 l 372 74 m 372 149 l 446 149 l 446 74 l 372 74 l 372 149 m 372 223 l 446 223 l 446 149 l 372 149 l 372 223 m 372 298 l 446 298 l 446 223 l 372 223 l 372 298 m 298 372 l 372 372 l 372 298 l 298 298 l 298 372 m 149 -74 l 223 -74 l 223 -149 l 149 -149 l 149 -74 m 223 -74 l 298 -74 l 298 -149 l 223 -149 l 223 -74 m 223 -149 l 298 -149 l 298 -223 l 223 -223 l 223 -149 m 149 -149 l 223 -149 l 223 -223 l 149 -223 l 149 -149 m 223 -223 l 298 -223 l 298 -298 l 223 -298 l 223 -223 m 149 -298 l 223 -298 l 223 -372 l 149 -372 l 149 -298 z "},"L":{"ha":446,"x_min":0,"x_max":372,"o":"m 0 744 l 74 744 l 74 670 l 0 670 l 0 744 m 74 744 l 149 744 l 149 670 l 74 670 l 74 744 m 74 670 l 149 670 l 149 595 l 74 595 l 74 670 m 74 595 l 149 595 l 149 521 l 74 521 l 74 595 m 74 521 l 149 521 l 149 446 l 74 446 l 74 521 m 0 521 l 74 521 l 74 446 l 0 446 l 0 521 m 0 595 l 74 595 l 74 521 l 0 521 l 0 595 m 0 670 l 74 670 l 74 595 l 0 595 l 0 670 m 0 446 l 74 446 l 74 372 l 0 372 l 0 446 m 0 372 l 74 372 l 74 298 l 0 298 l 0 372 m 0 298 l 74 298 l 74 223 l 0 223 l 0 298 m 74 372 l 149 372 l 149 298 l 74 298 l 74 372 m 74 446 l 149 446 l 149 372 l 74 372 l 74 446 m 74 298 l 149 298 l 149 223 l 74 223 l 74 298 m 74 223 l 149 223 l 149 149 l 74 149 l 74 223 m 0 149 l 74 149 l 74 74 l 0 74 l 0 149 m 0 223 l 74 223 l 74 149 l 0 149 l 0 223 m 0 74 l 74 74 l 74 0 l 0 0 l 0 74 m 74 74 l 149 74 l 149 0 l 74 0 l 74 74 m 74 149 l 149 149 l 149 74 l 74 74 l 74 149 m 149 74 l 223 74 l 223 0 l 149 0 l 149 74 m 223 74 l 298 74 l 298 0 l 223 0 l 223 74 m 298 74 l 372 74 l 372 0 l 298 0 l 298 74 m 298 149 l 372 149 l 372 74 l 298 74 l 298 149 m 223 149 l 298 149 l 298 74 l 223 74 l 223 149 m 149 149 l 223 149 l 223 74 l 149 74 l 149 149 z "},"Ĺ":{"ha":446,"x_min":0,"x_max":372,"o":"m 0 744 l 74 744 l 74 670 l 0 670 l 0 744 m 74 744 l 149 744 l 149 670 l 74 670 l 74 744 m 74 670 l 149 670 l 149 595 l 74 595 l 74 670 m 74 595 l 149 595 l 149 521 l 74 521 l 74 595 m 74 521 l 149 521 l 149 446 l 74 446 l 74 521 m 0 521 l 74 521 l 74 446 l 0 446 l 0 521 m 0 595 l 74 595 l 74 521 l 0 521 l 0 595 m 0 670 l 74 670 l 74 595 l 0 595 l 0 670 m 0 446 l 74 446 l 74 372 l 0 372 l 0 446 m 0 372 l 74 372 l 74 298 l 0 298 l 0 372 m 0 298 l 74 298 l 74 223 l 0 223 l 0 298 m 74 372 l 149 372 l 149 298 l 74 298 l 74 372 m 74 446 l 149 446 l 149 372 l 74 372 l 74 446 m 74 298 l 149 298 l 149 223 l 74 223 l 74 298 m 74 223 l 149 223 l 149 149 l 74 149 l 74 223 m 0 149 l 74 149 l 74 74 l 0 74 l 0 149 m 0 223 l 74 223 l 74 149 l 0 149 l 0 223 m 0 74 l 74 74 l 74 0 l 0 0 l 0 74 m 74 74 l 149 74 l 149 0 l 74 0 l 74 74 m 74 149 l 149 149 l 149 74 l 74 74 l 74 149 m 149 74 l 223 74 l 223 0 l 149 0 l 149 74 m 223 74 l 298 74 l 298 0 l 223 0 l 223 74 m 298 74 l 372 74 l 372 0 l 298 0 l 298 74 m 298 149 l 372 149 l 372 74 l 298 74 l 298 149 m 223 149 l 298 149 l 298 74 l 223 74 l 223 149 m 149 149 l 223 149 l 223 74 l 149 74 l 149 149 m 149 967 l 149 893 l 74 893 l 74 967 l 149 967 m 149 893 l 149 818 l 74 818 l 74 893 l 149 893 m 223 967 l 223 893 l 149 893 l 149 967 l 223 967 m 223 1042 l 223 967 l 149 967 l 149 1042 l 223 1042 z "},"Ľ":{"ha":521,"x_min":0,"x_max":446,"o":"m 0 744 l 74 744 l 74 670 l 0 670 l 0 744 m 74 744 l 149 744 l 149 670 l 74 670 l 74 744 m 74 670 l 149 670 l 149 595 l 74 595 l 74 670 m 74 595 l 149 595 l 149 521 l 74 521 l 74 595 m 74 521 l 149 521 l 149 446 l 74 446 l 74 521 m 0 521 l 74 521 l 74 446 l 0 446 l 0 521 m 0 595 l 74 595 l 74 521 l 0 521 l 0 595 m 0 670 l 74 670 l 74 595 l 0 595 l 0 670 m 0 446 l 74 446 l 74 372 l 0 372 l 0 446 m 0 372 l 74 372 l 74 298 l 0 298 l 0 372 m 0 298 l 74 298 l 74 223 l 0 223 l 0 298 m 74 372 l 149 372 l 149 298 l 74 298 l 74 372 m 74 446 l 149 446 l 149 372 l 74 372 l 74 446 m 74 298 l 149 298 l 149 223 l 74 223 l 74 298 m 74 223 l 149 223 l 149 149 l 74 149 l 74 223 m 0 149 l 74 149 l 74 74 l 0 74 l 0 149 m 0 223 l 74 223 l 74 149 l 0 149 l 0 223 m 0 74 l 74 74 l 74 0 l 0 0 l 0 74 m 74 74 l 149 74 l 149 0 l 74 0 l 74 74 m 74 149 l 149 149 l 149 74 l 74 74 l 74 149 m 149 74 l 223 74 l 223 0 l 149 0 l 149 74 m 223 74 l 298 74 l 298 0 l 223 0 l 223 74 m 298 74 l 372 74 l 372 0 l 298 0 l 298 74 m 298 149 l 372 149 l 372 74 l 298 74 l 298 149 m 223 149 l 298 149 l 298 74 l 223 74 l 223 149 m 149 149 l 223 149 l 223 74 l 149 74 l 149 149 m 298 744 l 372 744 l 372 670 l 298 670 l 298 744 m 372 744 l 446 744 l 446 670 l 372 670 l 372 744 m 372 670 l 446 670 l 446 595 l 372 595 l 372 670 m 298 818 l 372 818 l 372 744 l 298 744 l 298 818 m 372 818 l 446 818 l 446 744 l 372 744 l 372 818 z "},"Ļ":{"ha":446,"x_min":0,"x_max":372,"o":"m 0 744 l 74 744 l 74 670 l 0 670 l 0 744 m 74 744 l 149 744 l 149 670 l 74 670 l 74 744 m 74 670 l 149 670 l 149 595 l 74 595 l 74 670 m 74 595 l 149 595 l 149 521 l 74 521 l 74 595 m 74 521 l 149 521 l 149 446 l 74 446 l 74 521 m 0 521 l 74 521 l 74 446 l 0 446 l 0 521 m 0 595 l 74 595 l 74 521 l 0 521 l 0 595 m 0 670 l 74 670 l 74 595 l 0 595 l 0 670 m 0 446 l 74 446 l 74 372 l 0 372 l 0 446 m 0 372 l 74 372 l 74 298 l 0 298 l 0 372 m 0 298 l 74 298 l 74 223 l 0 223 l 0 298 m 74 372 l 149 372 l 149 298 l 74 298 l 74 372 m 74 446 l 149 446 l 149 372 l 74 372 l 74 446 m 74 298 l 149 298 l 149 223 l 74 223 l 74 298 m 74 223 l 149 223 l 149 149 l 74 149 l 74 223 m 0 149 l 74 149 l 74 74 l 0 74 l 0 149 m 0 223 l 74 223 l 74 149 l 0 149 l 0 223 m 0 74 l 74 74 l 74 0 l 0 0 l 0 74 m 74 74 l 149 74 l 149 0 l 74 0 l 74 74 m 74 149 l 149 149 l 149 74 l 74 74 l 74 149 m 149 74 l 223 74 l 223 0 l 149 0 l 149 74 m 223 74 l 298 74 l 298 0 l 223 0 l 223 74 m 298 74 l 372 74 l 372 0 l 298 0 l 298 74 m 298 149 l 372 149 l 372 74 l 298 74 l 298 149 m 223 149 l 298 149 l 298 74 l 223 74 l 223 149 m 149 149 l 223 149 l 223 74 l 149 74 l 149 149 m 149 -74 l 223 -74 l 223 -149 l 149 -149 l 149 -74 m 223 -74 l 298 -74 l 298 -149 l 223 -149 l 223 -74 m 223 -149 l 298 -149 l 298 -223 l 223 -223 l 223 -149 m 149 -149 l 223 -149 l 223 -223 l 149 -223 l 149 -149 m 223 -223 l 298 -223 l 298 -298 l 223 -298 l 223 -223 m 149 -298 l 223 -298 l 223 -372 l 149 -372 l 149 -298 z "},"Ł":{"ha":521,"x_min":0,"x_max":446,"o":"m 74 744 l 149 744 l 149 670 l 74 670 l 74 744 m 149 744 l 223 744 l 223 670 l 149 670 l 149 744 m 149 670 l 223 670 l 223 595 l 149 595 l 149 670 m 149 595 l 223 595 l 223 521 l 149 521 l 149 595 m 149 521 l 223 521 l 223 446 l 149 446 l 149 521 m 74 521 l 149 521 l 149 446 l 74 446 l 74 521 m 74 595 l 149 595 l 149 521 l 74 521 l 74 595 m 74 670 l 149 670 l 149 595 l 74 595 l 74 670 m 74 446 l 149 446 l 149 372 l 74 372 l 74 446 m 74 372 l 149 372 l 149 298 l 74 298 l 74 372 m 74 298 l 149 298 l 149 223 l 74 223 l 74 298 m 149 372 l 223 372 l 223 298 l 149 298 l 149 372 m 149 446 l 223 446 l 223 372 l 149 372 l 149 446 m 149 298 l 223 298 l 223 223 l 149 223 l 149 298 m 149 223 l 223 223 l 223 149 l 149 149 l 149 223 m 74 149 l 149 149 l 149 74 l 74 74 l 74 149 m 74 223 l 149 223 l 149 149 l 74 149 l 74 223 m 74 74 l 149 74 l 149 0 l 74 0 l 74 74 m 149 74 l 223 74 l 223 0 l 149 0 l 149 74 m 149 149 l 223 149 l 223 74 l 149 74 l 149 149 m 223 74 l 298 74 l 298 0 l 223 0 l 223 74 m 298 74 l 372 74 l 372 0 l 298 0 l 298 74 m 372 74 l 446 74 l 446 0 l 372 0 l 372 74 m 372 149 l 446 149 l 446 74 l 372 74 l 372 149 m 298 149 l 372 149 l 372 74 l 298 74 l 298 149 m 223 149 l 298 149 l 298 74 l 223 74 l 223 149 m 298 521 l 372 521 l 372 446 l 298 446 l 298 521 m 223 446 l 298 446 l 298 372 l 223 372 l 223 446 m 0 223 l 74 223 l 74 149 l 0 149 l 0 223 m 0 298 l 74 298 l 74 223 l 0 223 l 0 298 m 223 521 l 298 521 l 298 446 l 223 446 l 223 521 m 298 595 l 372 595 l 372 521 l 298 521 l 298 595 z "},"M":{"ha":744,"x_min":0,"x_max":670,"o":"m 0 74 l 74 74 l 74 0 l 0 0 l 0 74 m 0 149 l 74 149 l 74 74 l 0 74 l 0 149 m 0 223 l 74 223 l 74 149 l 0 149 l 0 223 m 0 298 l 74 298 l 74 223 l 0 223 l 0 298 m 0 372 l 74 372 l 74 298 l 0 298 l 0 372 m 0 446 l 74 446 l 74 372 l 0 372 l 0 446 m 74 446 l 149 446 l 149 372 l 74 372 l 74 446 m 74 521 l 149 521 l 149 446 l 74 446 l 74 521 m 74 595 l 149 595 l 149 521 l 74 521 l 74 595 m 74 670 l 149 670 l 149 595 l 74 595 l 74 670 m 0 670 l 74 670 l 74 595 l 0 595 l 0 670 m 0 744 l 74 744 l 74 670 l 0 670 l 0 744 m 0 595 l 74 595 l 74 521 l 0 521 l 0 595 m 0 521 l 74 521 l 74 446 l 0 446 l 0 521 m 74 744 l 149 744 l 149 670 l 74 670 l 74 744 m 74 372 l 149 372 l 149 298 l 74 298 l 74 372 m 74 298 l 149 298 l 149 223 l 74 223 l 74 298 m 74 223 l 149 223 l 149 149 l 74 149 l 74 223 m 74 149 l 149 149 l 149 74 l 74 74 l 74 149 m 74 74 l 149 74 l 149 0 l 74 0 l 74 74 m 149 595 l 223 595 l 223 521 l 149 521 l 149 595 m 149 521 l 223 521 l 223 446 l 149 446 l 149 521 m 223 521 l 298 521 l 298 446 l 223 446 l 223 521 m 223 446 l 298 446 l 298 372 l 223 372 l 223 446 m 298 446 l 372 446 l 372 372 l 298 372 l 298 446 m 298 372 l 372 372 l 372 298 l 298 298 l 298 372 m 372 446 l 446 446 l 446 372 l 372 372 l 372 446 m 372 521 l 446 521 l 446 446 l 372 446 l 372 521 m 446 521 l 521 521 l 521 446 l 446 446 l 446 521 m 446 595 l 521 595 l 521 521 l 446 521 l 446 595 m 521 744 l 595 744 l 595 670 l 521 670 l 521 744 m 521 670 l 595 670 l 595 595 l 521 595 l 521 670 m 521 595 l 595 595 l 595 521 l 521 521 l 521 595 m 521 521 l 595 521 l 595 446 l 521 446 l 521 521 m 521 446 l 595 446 l 595 372 l 521 372 l 521 446 m 521 372 l 595 372 l 595 298 l 521 298 l 521 372 m 521 298 l 595 298 l 595 223 l 521 223 l 521 298 m 521 223 l 595 223 l 595 149 l 521 149 l 521 223 m 521 149 l 595 149 l 595 74 l 521 74 l 521 149 m 521 74 l 595 74 l 595 0 l 521 0 l 521 74 m 595 74 l 670 74 l 670 0 l 595 0 l 595 74 m 595 149 l 670 149 l 670 74 l 595 74 l 595 149 m 595 223 l 670 223 l 670 149 l 595 149 l 595 223 m 595 298 l 670 298 l 670 223 l 595 223 l 595 298 m 595 372 l 670 372 l 670 298 l 595 298 l 595 372 m 595 446 l 670 446 l 670 372 l 595 372 l 595 446 m 595 521 l 670 521 l 670 446 l 595 446 l 595 521 m 595 595 l 670 595 l 670 521 l 595 521 l 595 595 m 595 670 l 670 670 l 670 595 l 595 595 l 595 670 m 595 744 l 670 744 l 670 670 l 595 670 l 595 744 m 149 670 l 223 670 l 223 595 l 149 595 l 149 670 m 223 595 l 298 595 l 298 521 l 223 521 l 223 595 m 298 521 l 372 521 l 372 446 l 298 446 l 298 521 m 372 595 l 446 595 l 446 521 l 372 521 l 372 595 m 446 670 l 521 670 l 521 595 l 446 595 l 446 670 z "},"N":{"ha":670,"x_min":0,"x_max":595,"o":"m 223 372 l 298 372 l 298 298 l 223 298 l 223 372 m 223 446 l 298 446 l 298 372 l 223 372 l 223 446 m 298 446 l 372 446 l 372 372 l 298 372 l 298 446 m 298 372 l 372 372 l 372 298 l 298 298 l 298 372 m 298 298 l 372 298 l 372 223 l 298 223 l 298 298 m 223 298 l 298 298 l 298 223 l 223 223 l 223 298 m 223 595 l 298 595 l 298 521 l 223 521 l 223 595 m 223 521 l 298 521 l 298 446 l 223 446 l 223 521 m 149 446 l 223 446 l 223 372 l 149 372 l 149 446 m 149 521 l 223 521 l 223 446 l 149 446 l 149 521 m 149 595 l 223 595 l 223 521 l 149 521 l 149 595 m 0 744 l 74 744 l 74 670 l 0 670 l 0 744 m 74 744 l 149 744 l 149 670 l 74 670 l 74 744 m 149 744 l 223 744 l 223 670 l 149 670 l 149 744 m 149 670 l 223 670 l 223 595 l 149 595 l 149 670 m 74 670 l 149 670 l 149 595 l 74 595 l 74 670 m 0 670 l 74 670 l 74 595 l 0 595 l 0 670 m 0 595 l 74 595 l 74 521 l 0 521 l 0 595 m 74 595 l 149 595 l 149 521 l 74 521 l 74 595 m 74 521 l 149 521 l 149 446 l 74 446 l 74 521 m 74 446 l 149 446 l 149 372 l 74 372 l 74 446 m 0 446 l 74 446 l 74 372 l 0 372 l 0 446 m 0 521 l 74 521 l 74 446 l 0 446 l 0 521 m 0 372 l 74 372 l 74 298 l 0 298 l 0 372 m 74 372 l 149 372 l 149 298 l 74 298 l 74 372 m 74 298 l 149 298 l 149 223 l 74 223 l 74 298 m 74 223 l 149 223 l 149 149 l 74 149 l 74 223 m 74 149 l 149 149 l 149 74 l 74 74 l 74 149 m 74 74 l 149 74 l 149 0 l 74 0 l 74 74 m 0 74 l 74 74 l 74 0 l 0 0 l 0 74 m 0 149 l 74 149 l 74 74 l 0 74 l 0 149 m 0 223 l 74 223 l 74 149 l 0 149 l 0 223 m 0 298 l 74 298 l 74 223 l 0 223 l 0 298 m 298 223 l 372 223 l 372 149 l 298 149 l 298 223 m 298 149 l 372 149 l 372 74 l 298 74 l 298 149 m 372 223 l 446 223 l 446 149 l 372 149 l 372 223 m 372 298 l 446 298 l 446 223 l 372 223 l 372 298 m 372 149 l 446 149 l 446 74 l 372 74 l 372 149 m 372 74 l 446 74 l 446 0 l 372 0 l 372 74 m 446 74 l 521 74 l 521 0 l 446 0 l 446 74 m 521 74 l 595 74 l 595 0 l 521 0 l 521 74 m 521 149 l 595 149 l 595 74 l 521 74 l 521 149 m 521 223 l 595 223 l 595 149 l 521 149 l 521 223 m 446 223 l 521 223 l 521 149 l 446 149 l 446 223 m 446 149 l 521 149 l 521 74 l 446 74 l 446 149 m 446 298 l 521 298 l 521 223 l 446 223 l 446 298 m 521 372 l 595 372 l 595 298 l 521 298 l 521 372 m 521 446 l 595 446 l 595 372 l 521 372 l 521 446 m 521 298 l 595 298 l 595 223 l 521 223 l 521 298 m 446 372 l 521 372 l 521 298 l 446 298 l 446 372 m 446 446 l 521 446 l 521 372 l 446 372 l 446 446 m 446 521 l 521 521 l 521 446 l 446 446 l 446 521 m 521 521 l 595 521 l 595 446 l 521 446 l 521 521 m 521 595 l 595 595 l 595 521 l 521 521 l 521 595 m 446 744 l 521 744 l 521 670 l 446 670 l 446 744 m 521 744 l 595 744 l 595 670 l 521 670 l 521 744 m 521 670 l 595 670 l 595 595 l 521 595 l 521 670 m 446 670 l 521 670 l 521 595 l 446 595 l 446 670 m 446 595 l 521 595 l 521 521 l 446 521 l 446 595 z "},"Ń":{"ha":670,"x_min":0,"x_max":595,"o":"m 223 372 l 298 372 l 298 298 l 223 298 l 223 372 m 223 446 l 298 446 l 298 372 l 223 372 l 223 446 m 298 446 l 372 446 l 372 372 l 298 372 l 298 446 m 298 372 l 372 372 l 372 298 l 298 298 l 298 372 m 298 298 l 372 298 l 372 223 l 298 223 l 298 298 m 223 298 l 298 298 l 298 223 l 223 223 l 223 298 m 223 595 l 298 595 l 298 521 l 223 521 l 223 595 m 223 521 l 298 521 l 298 446 l 223 446 l 223 521 m 149 446 l 223 446 l 223 372 l 149 372 l 149 446 m 149 521 l 223 521 l 223 446 l 149 446 l 149 521 m 149 595 l 223 595 l 223 521 l 149 521 l 149 595 m 0 744 l 74 744 l 74 670 l 0 670 l 0 744 m 74 744 l 149 744 l 149 670 l 74 670 l 74 744 m 149 744 l 223 744 l 223 670 l 149 670 l 149 744 m 149 670 l 223 670 l 223 595 l 149 595 l 149 670 m 74 670 l 149 670 l 149 595 l 74 595 l 74 670 m 0 670 l 74 670 l 74 595 l 0 595 l 0 670 m 0 595 l 74 595 l 74 521 l 0 521 l 0 595 m 74 595 l 149 595 l 149 521 l 74 521 l 74 595 m 74 521 l 149 521 l 149 446 l 74 446 l 74 521 m 74 446 l 149 446 l 149 372 l 74 372 l 74 446 m 0 446 l 74 446 l 74 372 l 0 372 l 0 446 m 0 521 l 74 521 l 74 446 l 0 446 l 0 521 m 0 372 l 74 372 l 74 298 l 0 298 l 0 372 m 74 372 l 149 372 l 149 298 l 74 298 l 74 372 m 74 298 l 149 298 l 149 223 l 74 223 l 74 298 m 74 223 l 149 223 l 149 149 l 74 149 l 74 223 m 74 149 l 149 149 l 149 74 l 74 74 l 74 149 m 74 74 l 149 74 l 149 0 l 74 0 l 74 74 m 0 74 l 74 74 l 74 0 l 0 0 l 0 74 m 0 149 l 74 149 l 74 74 l 0 74 l 0 149 m 0 223 l 74 223 l 74 149 l 0 149 l 0 223 m 0 298 l 74 298 l 74 223 l 0 223 l 0 298 m 298 223 l 372 223 l 372 149 l 298 149 l 298 223 m 298 149 l 372 149 l 372 74 l 298 74 l 298 149 m 372 223 l 446 223 l 446 149 l 372 149 l 372 223 m 372 298 l 446 298 l 446 223 l 372 223 l 372 298 m 372 149 l 446 149 l 446 74 l 372 74 l 372 149 m 372 74 l 446 74 l 446 0 l 372 0 l 372 74 m 446 74 l 521 74 l 521 0 l 446 0 l 446 74 m 521 74 l 595 74 l 595 0 l 521 0 l 521 74 m 521 149 l 595 149 l 595 74 l 521 74 l 521 149 m 521 223 l 595 223 l 595 149 l 521 149 l 521 223 m 446 223 l 521 223 l 521 149 l 446 149 l 446 223 m 446 149 l 521 149 l 521 74 l 446 74 l 446 149 m 446 298 l 521 298 l 521 223 l 446 223 l 446 298 m 521 372 l 595 372 l 595 298 l 521 298 l 521 372 m 521 446 l 595 446 l 595 372 l 521 372 l 521 446 m 521 298 l 595 298 l 595 223 l 521 223 l 521 298 m 446 372 l 521 372 l 521 298 l 446 298 l 446 372 m 446 446 l 521 446 l 521 372 l 446 372 l 446 446 m 446 521 l 521 521 l 521 446 l 446 446 l 446 521 m 521 521 l 595 521 l 595 446 l 521 446 l 521 521 m 521 595 l 595 595 l 595 521 l 521 521 l 521 595 m 446 744 l 521 744 l 521 670 l 446 670 l 446 744 m 521 744 l 595 744 l 595 670 l 521 670 l 521 744 m 521 670 l 595 670 l 595 595 l 521 595 l 521 670 m 446 670 l 521 670 l 521 595 l 446 595 l 446 670 m 446 595 l 521 595 l 521 521 l 446 521 l 446 595 m 372 967 l 372 893 l 298 893 l 298 967 l 372 967 m 372 893 l 372 818 l 298 818 l 298 893 l 372 893 m 446 967 l 446 893 l 372 893 l 372 967 l 446 967 m 446 1042 l 446 967 l 372 967 l 372 1042 l 446 1042 z "},"Ň":{"ha":670,"x_min":0,"x_max":595,"o":"m 223 372 l 298 372 l 298 298 l 223 298 l 223 372 m 223 446 l 298 446 l 298 372 l 223 372 l 223 446 m 298 446 l 372 446 l 372 372 l 298 372 l 298 446 m 298 372 l 372 372 l 372 298 l 298 298 l 298 372 m 298 298 l 372 298 l 372 223 l 298 223 l 298 298 m 223 298 l 298 298 l 298 223 l 223 223 l 223 298 m 223 595 l 298 595 l 298 521 l 223 521 l 223 595 m 223 521 l 298 521 l 298 446 l 223 446 l 223 521 m 149 446 l 223 446 l 223 372 l 149 372 l 149 446 m 149 521 l 223 521 l 223 446 l 149 446 l 149 521 m 149 595 l 223 595 l 223 521 l 149 521 l 149 595 m 0 744 l 74 744 l 74 670 l 0 670 l 0 744 m 74 744 l 149 744 l 149 670 l 74 670 l 74 744 m 149 744 l 223 744 l 223 670 l 149 670 l 149 744 m 149 670 l 223 670 l 223 595 l 149 595 l 149 670 m 74 670 l 149 670 l 149 595 l 74 595 l 74 670 m 0 670 l 74 670 l 74 595 l 0 595 l 0 670 m 0 595 l 74 595 l 74 521 l 0 521 l 0 595 m 74 595 l 149 595 l 149 521 l 74 521 l 74 595 m 74 521 l 149 521 l 149 446 l 74 446 l 74 521 m 74 446 l 149 446 l 149 372 l 74 372 l 74 446 m 0 446 l 74 446 l 74 372 l 0 372 l 0 446 m 0 521 l 74 521 l 74 446 l 0 446 l 0 521 m 0 372 l 74 372 l 74 298 l 0 298 l 0 372 m 74 372 l 149 372 l 149 298 l 74 298 l 74 372 m 74 298 l 149 298 l 149 223 l 74 223 l 74 298 m 74 223 l 149 223 l 149 149 l 74 149 l 74 223 m 74 149 l 149 149 l 149 74 l 74 74 l 74 149 m 74 74 l 149 74 l 149 0 l 74 0 l 74 74 m 0 74 l 74 74 l 74 0 l 0 0 l 0 74 m 0 149 l 74 149 l 74 74 l 0 74 l 0 149 m 0 223 l 74 223 l 74 149 l 0 149 l 0 223 m 0 298 l 74 298 l 74 223 l 0 223 l 0 298 m 298 223 l 372 223 l 372 149 l 298 149 l 298 223 m 298 149 l 372 149 l 372 74 l 298 74 l 298 149 m 372 223 l 446 223 l 446 149 l 372 149 l 372 223 m 372 298 l 446 298 l 446 223 l 372 223 l 372 298 m 372 149 l 446 149 l 446 74 l 372 74 l 372 149 m 372 74 l 446 74 l 446 0 l 372 0 l 372 74 m 446 74 l 521 74 l 521 0 l 446 0 l 446 74 m 521 74 l 595 74 l 595 0 l 521 0 l 521 74 m 521 149 l 595 149 l 595 74 l 521 74 l 521 149 m 521 223 l 595 223 l 595 149 l 521 149 l 521 223 m 446 223 l 521 223 l 521 149 l 446 149 l 446 223 m 446 149 l 521 149 l 521 74 l 446 74 l 446 149 m 446 298 l 521 298 l 521 223 l 446 223 l 446 298 m 521 372 l 595 372 l 595 298 l 521 298 l 521 372 m 521 446 l 595 446 l 595 372 l 521 372 l 521 446 m 521 298 l 595 298 l 595 223 l 521 223 l 521 298 m 446 372 l 521 372 l 521 298 l 446 298 l 446 372 m 446 446 l 521 446 l 521 372 l 446 372 l 446 446 m 446 521 l 521 521 l 521 446 l 446 446 l 446 521 m 521 521 l 595 521 l 595 446 l 521 446 l 521 521 m 521 595 l 595 595 l 595 521 l 521 521 l 521 595 m 446 744 l 521 744 l 521 670 l 446 670 l 446 744 m 521 744 l 595 744 l 595 670 l 521 670 l 521 744 m 521 670 l 595 670 l 595 595 l 521 595 l 521 670 m 446 670 l 521 670 l 521 595 l 446 595 l 446 670 m 446 595 l 521 595 l 521 521 l 446 521 l 446 595 m 223 967 l 223 1042 l 298 1042 l 298 967 l 223 967 m 372 967 l 372 1042 l 446 1042 l 446 967 l 372 967 m 149 967 l 149 1042 l 223 1042 l 223 967 l 149 967 m 298 893 l 298 967 l 372 967 l 372 893 l 298 893 m 223 893 l 223 967 l 298 967 l 298 893 l 223 893 m 446 1042 l 521 1042 l 521 967 l 446 967 l 446 1042 m 372 967 l 446 967 l 446 893 l 372 893 l 372 967 m 298 893 l 372 893 l 372 818 l 298 818 l 298 893 z "},"Ņ":{"ha":670,"x_min":0,"x_max":595,"o":"m 223 372 l 298 372 l 298 298 l 223 298 l 223 372 m 223 446 l 298 446 l 298 372 l 223 372 l 223 446 m 298 446 l 372 446 l 372 372 l 298 372 l 298 446 m 298 372 l 372 372 l 372 298 l 298 298 l 298 372 m 298 298 l 372 298 l 372 223 l 298 223 l 298 298 m 223 298 l 298 298 l 298 223 l 223 223 l 223 298 m 223 595 l 298 595 l 298 521 l 223 521 l 223 595 m 223 521 l 298 521 l 298 446 l 223 446 l 223 521 m 149 446 l 223 446 l 223 372 l 149 372 l 149 446 m 149 521 l 223 521 l 223 446 l 149 446 l 149 521 m 149 595 l 223 595 l 223 521 l 149 521 l 149 595 m 0 744 l 74 744 l 74 670 l 0 670 l 0 744 m 74 744 l 149 744 l 149 670 l 74 670 l 74 744 m 149 744 l 223 744 l 223 670 l 149 670 l 149 744 m 149 670 l 223 670 l 223 595 l 149 595 l 149 670 m 74 670 l 149 670 l 149 595 l 74 595 l 74 670 m 0 670 l 74 670 l 74 595 l 0 595 l 0 670 m 0 595 l 74 595 l 74 521 l 0 521 l 0 595 m 74 595 l 149 595 l 149 521 l 74 521 l 74 595 m 74 521 l 149 521 l 149 446 l 74 446 l 74 521 m 74 446 l 149 446 l 149 372 l 74 372 l 74 446 m 0 446 l 74 446 l 74 372 l 0 372 l 0 446 m 0 521 l 74 521 l 74 446 l 0 446 l 0 521 m 0 372 l 74 372 l 74 298 l 0 298 l 0 372 m 74 372 l 149 372 l 149 298 l 74 298 l 74 372 m 74 298 l 149 298 l 149 223 l 74 223 l 74 298 m 74 223 l 149 223 l 149 149 l 74 149 l 74 223 m 74 149 l 149 149 l 149 74 l 74 74 l 74 149 m 74 74 l 149 74 l 149 0 l 74 0 l 74 74 m 0 74 l 74 74 l 74 0 l 0 0 l 0 74 m 0 149 l 74 149 l 74 74 l 0 74 l 0 149 m 0 223 l 74 223 l 74 149 l 0 149 l 0 223 m 0 298 l 74 298 l 74 223 l 0 223 l 0 298 m 298 223 l 372 223 l 372 149 l 298 149 l 298 223 m 298 149 l 372 149 l 372 74 l 298 74 l 298 149 m 372 223 l 446 223 l 446 149 l 372 149 l 372 223 m 372 298 l 446 298 l 446 223 l 372 223 l 372 298 m 372 149 l 446 149 l 446 74 l 372 74 l 372 149 m 372 74 l 446 74 l 446 0 l 372 0 l 372 74 m 446 74 l 521 74 l 521 0 l 446 0 l 446 74 m 521 74 l 595 74 l 595 0 l 521 0 l 521 74 m 521 149 l 595 149 l 595 74 l 521 74 l 521 149 m 521 223 l 595 223 l 595 149 l 521 149 l 521 223 m 446 223 l 521 223 l 521 149 l 446 149 l 446 223 m 446 149 l 521 149 l 521 74 l 446 74 l 446 149 m 446 298 l 521 298 l 521 223 l 446 223 l 446 298 m 521 372 l 595 372 l 595 298 l 521 298 l 521 372 m 521 446 l 595 446 l 595 372 l 521 372 l 521 446 m 521 298 l 595 298 l 595 223 l 521 223 l 521 298 m 446 372 l 521 372 l 521 298 l 446 298 l 446 372 m 446 446 l 521 446 l 521 372 l 446 372 l 446 446 m 446 521 l 521 521 l 521 446 l 446 446 l 446 521 m 521 521 l 595 521 l 595 446 l 521 446 l 521 521 m 521 595 l 595 595 l 595 521 l 521 521 l 521 595 m 446 744 l 521 744 l 521 670 l 446 670 l 446 744 m 521 744 l 595 744 l 595 670 l 521 670 l 521 744 m 521 670 l 595 670 l 595 595 l 521 595 l 521 670 m 446 670 l 521 670 l 521 595 l 446 595 l 446 670 m 446 595 l 521 595 l 521 521 l 446 521 l 446 595 m 223 -74 l 298 -74 l 298 -149 l 223 -149 l 223 -74 m 298 -74 l 372 -74 l 372 -149 l 298 -149 l 298 -74 m 298 -149 l 372 -149 l 372 -223 l 298 -223 l 298 -149 m 223 -149 l 298 -149 l 298 -223 l 223 -223 l 223 -149 m 298 -223 l 372 -223 l 372 -298 l 298 -298 l 298 -223 m 223 -298 l 298 -298 l 298 -372 l 223 -372 l 223 -298 z "},"Ñ":{"ha":670,"x_min":0,"x_max":595,"o":"m 223 372 l 298 372 l 298 298 l 223 298 l 223 372 m 223 446 l 298 446 l 298 372 l 223 372 l 223 446 m 298 446 l 372 446 l 372 372 l 298 372 l 298 446 m 298 372 l 372 372 l 372 298 l 298 298 l 298 372 m 298 298 l 372 298 l 372 223 l 298 223 l 298 298 m 223 298 l 298 298 l 298 223 l 223 223 l 223 298 m 223 595 l 298 595 l 298 521 l 223 521 l 223 595 m 223 521 l 298 521 l 298 446 l 223 446 l 223 521 m 149 446 l 223 446 l 223 372 l 149 372 l 149 446 m 149 521 l 223 521 l 223 446 l 149 446 l 149 521 m 149 595 l 223 595 l 223 521 l 149 521 l 149 595 m 0 744 l 74 744 l 74 670 l 0 670 l 0 744 m 74 744 l 149 744 l 149 670 l 74 670 l 74 744 m 149 744 l 223 744 l 223 670 l 149 670 l 149 744 m 149 670 l 223 670 l 223 595 l 149 595 l 149 670 m 74 670 l 149 670 l 149 595 l 74 595 l 74 670 m 0 670 l 74 670 l 74 595 l 0 595 l 0 670 m 0 595 l 74 595 l 74 521 l 0 521 l 0 595 m 74 595 l 149 595 l 149 521 l 74 521 l 74 595 m 74 521 l 149 521 l 149 446 l 74 446 l 74 521 m 74 446 l 149 446 l 149 372 l 74 372 l 74 446 m 0 446 l 74 446 l 74 372 l 0 372 l 0 446 m 0 521 l 74 521 l 74 446 l 0 446 l 0 521 m 0 372 l 74 372 l 74 298 l 0 298 l 0 372 m 74 372 l 149 372 l 149 298 l 74 298 l 74 372 m 74 298 l 149 298 l 149 223 l 74 223 l 74 298 m 74 223 l 149 223 l 149 149 l 74 149 l 74 223 m 74 149 l 149 149 l 149 74 l 74 74 l 74 149 m 74 74 l 149 74 l 149 0 l 74 0 l 74 74 m 0 74 l 74 74 l 74 0 l 0 0 l 0 74 m 0 149 l 74 149 l 74 74 l 0 74 l 0 149 m 0 223 l 74 223 l 74 149 l 0 149 l 0 223 m 0 298 l 74 298 l 74 223 l 0 223 l 0 298 m 298 223 l 372 223 l 372 149 l 298 149 l 298 223 m 298 149 l 372 149 l 372 74 l 298 74 l 298 149 m 372 223 l 446 223 l 446 149 l 372 149 l 372 223 m 372 298 l 446 298 l 446 223 l 372 223 l 372 298 m 372 149 l 446 149 l 446 74 l 372 74 l 372 149 m 372 74 l 446 74 l 446 0 l 372 0 l 372 74 m 446 74 l 521 74 l 521 0 l 446 0 l 446 74 m 521 74 l 595 74 l 595 0 l 521 0 l 521 74 m 521 149 l 595 149 l 595 74 l 521 74 l 521 149 m 521 223 l 595 223 l 595 149 l 521 149 l 521 223 m 446 223 l 521 223 l 521 149 l 446 149 l 446 223 m 446 149 l 521 149 l 521 74 l 446 74 l 446 149 m 446 298 l 521 298 l 521 223 l 446 223 l 446 298 m 521 372 l 595 372 l 595 298 l 521 298 l 521 372 m 521 446 l 595 446 l 595 372 l 521 372 l 521 446 m 521 298 l 595 298 l 595 223 l 521 223 l 521 298 m 446 372 l 521 372 l 521 298 l 446 298 l 446 372 m 446 446 l 521 446 l 521 372 l 446 372 l 446 446 m 446 521 l 521 521 l 521 446 l 446 446 l 446 521 m 521 521 l 595 521 l 595 446 l 521 446 l 521 521 m 521 595 l 595 595 l 595 521 l 521 521 l 521 595 m 446 744 l 521 744 l 521 670 l 446 670 l 446 744 m 521 744 l 595 744 l 595 670 l 521 670 l 521 744 m 521 670 l 595 670 l 595 595 l 521 595 l 521 670 m 446 670 l 521 670 l 521 595 l 446 595 l 446 670 m 446 595 l 521 595 l 521 521 l 446 521 l 446 595 m 298 967 l 372 967 l 372 893 l 298 893 l 298 967 m 149 1042 l 223 1042 l 223 967 l 149 967 l 149 1042 m 223 1042 l 298 1042 l 298 967 l 223 967 l 223 1042 m 372 967 l 446 967 l 446 893 l 372 893 l 372 967 m 446 967 l 521 967 l 521 893 l 446 893 l 446 967 m 446 1042 l 521 1042 l 521 967 l 446 967 l 446 1042 m 372 893 l 446 893 l 446 818 l 372 818 l 372 893 m 298 1042 l 372 1042 l 372 967 l 298 967 l 298 1042 m 223 1116 l 298 1116 l 298 1042 l 223 1042 l 223 1116 m 149 967 l 223 967 l 223 893 l 149 893 l 149 967 z "},"Ŋ":{"ha":670,"x_min":0,"x_max":595,"o":"m 223 372 l 298 372 l 298 298 l 223 298 l 223 372 m 223 446 l 298 446 l 298 372 l 223 372 l 223 446 m 298 446 l 372 446 l 372 372 l 298 372 l 298 446 m 298 372 l 372 372 l 372 298 l 298 298 l 298 372 m 298 298 l 372 298 l 372 223 l 298 223 l 298 298 m 223 298 l 298 298 l 298 223 l 223 223 l 223 298 m 223 595 l 298 595 l 298 521 l 223 521 l 223 595 m 223 521 l 298 521 l 298 446 l 223 446 l 223 521 m 149 446 l 223 446 l 223 372 l 149 372 l 149 446 m 149 521 l 223 521 l 223 446 l 149 446 l 149 521 m 149 595 l 223 595 l 223 521 l 149 521 l 149 595 m 0 744 l 74 744 l 74 670 l 0 670 l 0 744 m 74 744 l 149 744 l 149 670 l 74 670 l 74 744 m 149 744 l 223 744 l 223 670 l 149 670 l 149 744 m 149 670 l 223 670 l 223 595 l 149 595 l 149 670 m 74 670 l 149 670 l 149 595 l 74 595 l 74 670 m 0 670 l 74 670 l 74 595 l 0 595 l 0 670 m 0 595 l 74 595 l 74 521 l 0 521 l 0 595 m 74 595 l 149 595 l 149 521 l 74 521 l 74 595 m 74 521 l 149 521 l 149 446 l 74 446 l 74 521 m 74 446 l 149 446 l 149 372 l 74 372 l 74 446 m 0 446 l 74 446 l 74 372 l 0 372 l 0 446 m 0 521 l 74 521 l 74 446 l 0 446 l 0 521 m 0 372 l 74 372 l 74 298 l 0 298 l 0 372 m 74 372 l 149 372 l 149 298 l 74 298 l 74 372 m 74 298 l 149 298 l 149 223 l 74 223 l 74 298 m 74 223 l 149 223 l 149 149 l 74 149 l 74 223 m 74 149 l 149 149 l 149 74 l 74 74 l 74 149 m 74 74 l 149 74 l 149 0 l 74 0 l 74 74 m 0 74 l 74 74 l 74 0 l 0 0 l 0 74 m 0 149 l 74 149 l 74 74 l 0 74 l 0 149 m 0 223 l 74 223 l 74 149 l 0 149 l 0 223 m 0 298 l 74 298 l 74 223 l 0 223 l 0 298 m 298 223 l 372 223 l 372 149 l 298 149 l 298 223 m 298 149 l 372 149 l 372 74 l 298 74 l 298 149 m 372 223 l 446 223 l 446 149 l 372 149 l 372 223 m 372 298 l 446 298 l 446 223 l 372 223 l 372 298 m 372 149 l 446 149 l 446 74 l 372 74 l 372 149 m 372 74 l 446 74 l 446 0 l 372 0 l 372 74 m 446 74 l 521 74 l 521 0 l 446 0 l 446 74 m 521 74 l 595 74 l 595 0 l 521 0 l 521 74 m 521 149 l 595 149 l 595 74 l 521 74 l 521 149 m 521 223 l 595 223 l 595 149 l 521 149 l 521 223 m 446 223 l 521 223 l 521 149 l 446 149 l 446 223 m 446 149 l 521 149 l 521 74 l 446 74 l 446 149 m 446 298 l 521 298 l 521 223 l 446 223 l 446 298 m 521 372 l 595 372 l 595 298 l 521 298 l 521 372 m 521 446 l 595 446 l 595 372 l 521 372 l 521 446 m 521 298 l 595 298 l 595 223 l 521 223 l 521 298 m 446 372 l 521 372 l 521 298 l 446 298 l 446 372 m 446 446 l 521 446 l 521 372 l 446 372 l 446 446 m 446 521 l 521 521 l 521 446 l 446 446 l 446 521 m 521 521 l 595 521 l 595 446 l 521 446 l 521 521 m 521 595 l 595 595 l 595 521 l 521 521 l 521 595 m 446 744 l 521 744 l 521 670 l 446 670 l 446 744 m 521 744 l 595 744 l 595 670 l 521 670 l 521 744 m 521 670 l 595 670 l 595 595 l 521 595 l 521 670 m 446 670 l 521 670 l 521 595 l 446 595 l 446 670 m 446 595 l 521 595 l 521 521 l 446 521 l 446 595 m 521 0 l 595 0 l 595 -74 l 521 -74 l 521 0 m 521 -74 l 595 -74 l 595 -149 l 521 -149 l 521 -74 m 446 0 l 521 0 l 521 -74 l 446 -74 l 446 0 m 446 -149 l 521 -149 l 521 -223 l 446 -223 l 446 -149 m 446 -74 l 521 -74 l 521 -149 l 446 -149 l 446 -74 m 372 -149 l 446 -149 l 446 -223 l 372 -223 l 372 -149 z "},"O":{"ha":595,"x_min":0,"x_max":521,"o":"m 149 744 l 223 744 l 223 670 l 149 670 l 149 744 m 74 744 l 149 744 l 149 670 l 74 670 l 74 744 m 74 670 l 149 670 l 149 595 l 74 595 l 74 670 m 149 670 l 223 670 l 223 595 l 149 595 l 149 670 m 223 670 l 298 670 l 298 595 l 223 595 l 223 670 m 223 744 l 298 744 l 298 670 l 223 670 l 223 744 m 298 744 l 372 744 l 372 670 l 298 670 l 298 744 m 372 744 l 446 744 l 446 670 l 372 670 l 372 744 m 372 670 l 446 670 l 446 595 l 372 595 l 372 670 m 298 670 l 372 670 l 372 595 l 298 595 l 298 670 m 298 595 l 372 595 l 372 521 l 298 521 l 298 595 m 372 595 l 446 595 l 446 521 l 372 521 l 372 595 m 446 670 l 521 670 l 521 595 l 446 595 l 446 670 m 446 595 l 521 595 l 521 521 l 446 521 l 446 595 m 446 521 l 521 521 l 521 446 l 446 446 l 446 521 m 446 446 l 521 446 l 521 372 l 446 372 l 446 446 m 446 372 l 521 372 l 521 298 l 446 298 l 446 372 m 446 298 l 521 298 l 521 223 l 446 223 l 446 298 m 446 223 l 521 223 l 521 149 l 446 149 l 446 223 m 446 149 l 521 149 l 521 74 l 446 74 l 446 149 m 372 149 l 446 149 l 446 74 l 372 74 l 372 149 m 372 223 l 446 223 l 446 149 l 372 149 l 372 223 m 372 298 l 446 298 l 446 223 l 372 223 l 372 298 m 372 372 l 446 372 l 446 298 l 372 298 l 372 372 m 372 446 l 446 446 l 446 372 l 372 372 l 372 446 m 372 521 l 446 521 l 446 446 l 372 446 l 372 521 m 298 223 l 372 223 l 372 149 l 298 149 l 298 223 m 298 149 l 372 149 l 372 74 l 298 74 l 298 149 m 372 74 l 446 74 l 446 0 l 372 0 l 372 74 m 298 74 l 372 74 l 372 0 l 298 0 l 298 74 m 223 74 l 298 74 l 298 0 l 223 0 l 223 74 m 223 149 l 298 149 l 298 74 l 223 74 l 223 149 m 149 74 l 223 74 l 223 0 l 149 0 l 149 74 m 74 74 l 149 74 l 149 0 l 74 0 l 74 74 m 74 149 l 149 149 l 149 74 l 74 74 l 74 149 m 149 149 l 223 149 l 223 74 l 149 74 l 149 149 m 149 223 l 223 223 l 223 149 l 149 149 l 149 223 m 74 223 l 149 223 l 149 149 l 74 149 l 74 223 m 0 149 l 74 149 l 74 74 l 0 74 l 0 149 m 0 223 l 74 223 l 74 149 l 0 149 l 0 223 m 0 298 l 74 298 l 74 223 l 0 223 l 0 298 m 0 372 l 74 372 l 74 298 l 0 298 l 0 372 m 0 446 l 74 446 l 74 372 l 0 372 l 0 446 m 0 521 l 74 521 l 74 446 l 0 446 l 0 521 m 0 595 l 74 595 l 74 521 l 0 521 l 0 595 m 74 595 l 149 595 l 149 521 l 74 521 l 74 595 m 0 670 l 74 670 l 74 595 l 0 595 l 0 670 m 149 595 l 223 595 l 223 521 l 149 521 l 149 595 m 74 521 l 149 521 l 149 446 l 74 446 l 74 521 m 74 446 l 149 446 l 149 372 l 74 372 l 74 446 m 74 372 l 149 372 l 149 298 l 74 298 l 74 372 m 74 298 l 149 298 l 149 223 l 74 223 l 74 298 z "},"Ó":{"ha":595,"x_min":0,"x_max":521,"o":"m 149 744 l 223 744 l 223 670 l 149 670 l 149 744 m 74 744 l 149 744 l 149 670 l 74 670 l 74 744 m 74 670 l 149 670 l 149 595 l 74 595 l 74 670 m 149 670 l 223 670 l 223 595 l 149 595 l 149 670 m 223 670 l 298 670 l 298 595 l 223 595 l 223 670 m 223 744 l 298 744 l 298 670 l 223 670 l 223 744 m 298 744 l 372 744 l 372 670 l 298 670 l 298 744 m 372 744 l 446 744 l 446 670 l 372 670 l 372 744 m 372 670 l 446 670 l 446 595 l 372 595 l 372 670 m 298 670 l 372 670 l 372 595 l 298 595 l 298 670 m 298 595 l 372 595 l 372 521 l 298 521 l 298 595 m 372 595 l 446 595 l 446 521 l 372 521 l 372 595 m 446 670 l 521 670 l 521 595 l 446 595 l 446 670 m 446 595 l 521 595 l 521 521 l 446 521 l 446 595 m 446 521 l 521 521 l 521 446 l 446 446 l 446 521 m 446 446 l 521 446 l 521 372 l 446 372 l 446 446 m 446 372 l 521 372 l 521 298 l 446 298 l 446 372 m 446 298 l 521 298 l 521 223 l 446 223 l 446 298 m 446 223 l 521 223 l 521 149 l 446 149 l 446 223 m 446 149 l 521 149 l 521 74 l 446 74 l 446 149 m 372 149 l 446 149 l 446 74 l 372 74 l 372 149 m 372 223 l 446 223 l 446 149 l 372 149 l 372 223 m 372 298 l 446 298 l 446 223 l 372 223 l 372 298 m 372 372 l 446 372 l 446 298 l 372 298 l 372 372 m 372 446 l 446 446 l 446 372 l 372 372 l 372 446 m 372 521 l 446 521 l 446 446 l 372 446 l 372 521 m 298 223 l 372 223 l 372 149 l 298 149 l 298 223 m 298 149 l 372 149 l 372 74 l 298 74 l 298 149 m 372 74 l 446 74 l 446 0 l 372 0 l 372 74 m 298 74 l 372 74 l 372 0 l 298 0 l 298 74 m 223 74 l 298 74 l 298 0 l 223 0 l 223 74 m 223 149 l 298 149 l 298 74 l 223 74 l 223 149 m 149 74 l 223 74 l 223 0 l 149 0 l 149 74 m 74 74 l 149 74 l 149 0 l 74 0 l 74 74 m 74 149 l 149 149 l 149 74 l 74 74 l 74 149 m 149 149 l 223 149 l 223 74 l 149 74 l 149 149 m 149 223 l 223 223 l 223 149 l 149 149 l 149 223 m 74 223 l 149 223 l 149 149 l 74 149 l 74 223 m 0 149 l 74 149 l 74 74 l 0 74 l 0 149 m 0 223 l 74 223 l 74 149 l 0 149 l 0 223 m 0 298 l 74 298 l 74 223 l 0 223 l 0 298 m 0 372 l 74 372 l 74 298 l 0 298 l 0 372 m 0 446 l 74 446 l 74 372 l 0 372 l 0 446 m 0 521 l 74 521 l 74 446 l 0 446 l 0 521 m 0 595 l 74 595 l 74 521 l 0 521 l 0 595 m 74 595 l 149 595 l 149 521 l 74 521 l 74 595 m 0 670 l 74 670 l 74 595 l 0 595 l 0 670 m 149 595 l 223 595 l 223 521 l 149 521 l 149 595 m 74 521 l 149 521 l 149 446 l 74 446 l 74 521 m 74 446 l 149 446 l 149 372 l 74 372 l 74 446 m 74 372 l 149 372 l 149 298 l 74 298 l 74 372 m 74 298 l 149 298 l 149 223 l 74 223 l 74 298 m 298 967 l 298 893 l 223 893 l 223 967 l 298 967 m 298 893 l 298 818 l 223 818 l 223 893 l 298 893 m 372 967 l 372 893 l 298 893 l 298 967 l 372 967 m 372 1042 l 372 967 l 298 967 l 298 1042 l 372 1042 z "},"Ô":{"ha":595,"x_min":0,"x_max":521,"o":"m 149 744 l 223 744 l 223 670 l 149 670 l 149 744 m 74 744 l 149 744 l 149 670 l 74 670 l 74 744 m 74 670 l 149 670 l 149 595 l 74 595 l 74 670 m 149 670 l 223 670 l 223 595 l 149 595 l 149 670 m 223 670 l 298 670 l 298 595 l 223 595 l 223 670 m 223 744 l 298 744 l 298 670 l 223 670 l 223 744 m 298 744 l 372 744 l 372 670 l 298 670 l 298 744 m 372 744 l 446 744 l 446 670 l 372 670 l 372 744 m 372 670 l 446 670 l 446 595 l 372 595 l 372 670 m 298 670 l 372 670 l 372 595 l 298 595 l 298 670 m 298 595 l 372 595 l 372 521 l 298 521 l 298 595 m 372 595 l 446 595 l 446 521 l 372 521 l 372 595 m 446 670 l 521 670 l 521 595 l 446 595 l 446 670 m 446 595 l 521 595 l 521 521 l 446 521 l 446 595 m 446 521 l 521 521 l 521 446 l 446 446 l 446 521 m 446 446 l 521 446 l 521 372 l 446 372 l 446 446 m 446 372 l 521 372 l 521 298 l 446 298 l 446 372 m 446 298 l 521 298 l 521 223 l 446 223 l 446 298 m 446 223 l 521 223 l 521 149 l 446 149 l 446 223 m 446 149 l 521 149 l 521 74 l 446 74 l 446 149 m 372 149 l 446 149 l 446 74 l 372 74 l 372 149 m 372 223 l 446 223 l 446 149 l 372 149 l 372 223 m 372 298 l 446 298 l 446 223 l 372 223 l 372 298 m 372 372 l 446 372 l 446 298 l 372 298 l 372 372 m 372 446 l 446 446 l 446 372 l 372 372 l 372 446 m 372 521 l 446 521 l 446 446 l 372 446 l 372 521 m 298 223 l 372 223 l 372 149 l 298 149 l 298 223 m 298 149 l 372 149 l 372 74 l 298 74 l 298 149 m 372 74 l 446 74 l 446 0 l 372 0 l 372 74 m 298 74 l 372 74 l 372 0 l 298 0 l 298 74 m 223 74 l 298 74 l 298 0 l 223 0 l 223 74 m 223 149 l 298 149 l 298 74 l 223 74 l 223 149 m 149 74 l 223 74 l 223 0 l 149 0 l 149 74 m 74 74 l 149 74 l 149 0 l 74 0 l 74 74 m 74 149 l 149 149 l 149 74 l 74 74 l 74 149 m 149 149 l 223 149 l 223 74 l 149 74 l 149 149 m 149 223 l 223 223 l 223 149 l 149 149 l 149 223 m 74 223 l 149 223 l 149 149 l 74 149 l 74 223 m 0 149 l 74 149 l 74 74 l 0 74 l 0 149 m 0 223 l 74 223 l 74 149 l 0 149 l 0 223 m 0 298 l 74 298 l 74 223 l 0 223 l 0 298 m 0 372 l 74 372 l 74 298 l 0 298 l 0 372 m 0 446 l 74 446 l 74 372 l 0 372 l 0 446 m 0 521 l 74 521 l 74 446 l 0 446 l 0 521 m 0 595 l 74 595 l 74 521 l 0 521 l 0 595 m 74 595 l 149 595 l 149 521 l 74 521 l 74 595 m 0 670 l 74 670 l 74 595 l 0 595 l 0 670 m 149 595 l 223 595 l 223 521 l 149 521 l 149 595 m 74 521 l 149 521 l 149 446 l 74 446 l 74 521 m 74 446 l 149 446 l 149 372 l 74 372 l 74 446 m 74 372 l 149 372 l 149 298 l 74 298 l 74 372 m 74 298 l 149 298 l 149 223 l 74 223 l 74 298 m 149 893 l 223 893 l 223 818 l 149 818 l 149 893 m 298 893 l 372 893 l 372 818 l 298 818 l 298 893 m 74 893 l 149 893 l 149 818 l 74 818 l 74 893 m 223 967 l 298 967 l 298 893 l 223 893 l 223 967 m 149 967 l 223 967 l 223 893 l 149 893 l 149 967 m 372 893 l 446 893 l 446 818 l 372 818 l 372 893 m 298 967 l 372 967 l 372 893 l 298 893 l 298 967 m 223 1042 l 298 1042 l 298 967 l 223 967 l 223 1042 z "},"Ö":{"ha":595,"x_min":0,"x_max":521,"o":"m 149 744 l 223 744 l 223 670 l 149 670 l 149 744 m 74 744 l 149 744 l 149 670 l 74 670 l 74 744 m 74 670 l 149 670 l 149 595 l 74 595 l 74 670 m 149 670 l 223 670 l 223 595 l 149 595 l 149 670 m 223 670 l 298 670 l 298 595 l 223 595 l 223 670 m 223 744 l 298 744 l 298 670 l 223 670 l 223 744 m 298 744 l 372 744 l 372 670 l 298 670 l 298 744 m 372 744 l 446 744 l 446 670 l 372 670 l 372 744 m 372 670 l 446 670 l 446 595 l 372 595 l 372 670 m 298 670 l 372 670 l 372 595 l 298 595 l 298 670 m 298 595 l 372 595 l 372 521 l 298 521 l 298 595 m 372 595 l 446 595 l 446 521 l 372 521 l 372 595 m 446 670 l 521 670 l 521 595 l 446 595 l 446 670 m 446 595 l 521 595 l 521 521 l 446 521 l 446 595 m 446 521 l 521 521 l 521 446 l 446 446 l 446 521 m 446 446 l 521 446 l 521 372 l 446 372 l 446 446 m 446 372 l 521 372 l 521 298 l 446 298 l 446 372 m 446 298 l 521 298 l 521 223 l 446 223 l 446 298 m 446 223 l 521 223 l 521 149 l 446 149 l 446 223 m 446 149 l 521 149 l 521 74 l 446 74 l 446 149 m 372 149 l 446 149 l 446 74 l 372 74 l 372 149 m 372 223 l 446 223 l 446 149 l 372 149 l 372 223 m 372 298 l 446 298 l 446 223 l 372 223 l 372 298 m 372 372 l 446 372 l 446 298 l 372 298 l 372 372 m 372 446 l 446 446 l 446 372 l 372 372 l 372 446 m 372 521 l 446 521 l 446 446 l 372 446 l 372 521 m 298 223 l 372 223 l 372 149 l 298 149 l 298 223 m 298 149 l 372 149 l 372 74 l 298 74 l 298 149 m 372 74 l 446 74 l 446 0 l 372 0 l 372 74 m 298 74 l 372 74 l 372 0 l 298 0 l 298 74 m 223 74 l 298 74 l 298 0 l 223 0 l 223 74 m 223 149 l 298 149 l 298 74 l 223 74 l 223 149 m 149 74 l 223 74 l 223 0 l 149 0 l 149 74 m 74 74 l 149 74 l 149 0 l 74 0 l 74 74 m 74 149 l 149 149 l 149 74 l 74 74 l 74 149 m 149 149 l 223 149 l 223 74 l 149 74 l 149 149 m 149 223 l 223 223 l 223 149 l 149 149 l 149 223 m 74 223 l 149 223 l 149 149 l 74 149 l 74 223 m 0 149 l 74 149 l 74 74 l 0 74 l 0 149 m 0 223 l 74 223 l 74 149 l 0 149 l 0 223 m 0 298 l 74 298 l 74 223 l 0 223 l 0 298 m 0 372 l 74 372 l 74 298 l 0 298 l 0 372 m 0 446 l 74 446 l 74 372 l 0 372 l 0 446 m 0 521 l 74 521 l 74 446 l 0 446 l 0 521 m 0 595 l 74 595 l 74 521 l 0 521 l 0 595 m 74 595 l 149 595 l 149 521 l 74 521 l 74 595 m 0 670 l 74 670 l 74 595 l 0 595 l 0 670 m 149 595 l 223 595 l 223 521 l 149 521 l 149 595 m 74 521 l 149 521 l 149 446 l 74 446 l 74 521 m 74 446 l 149 446 l 149 372 l 74 372 l 74 446 m 74 372 l 149 372 l 149 298 l 74 298 l 74 372 m 74 298 l 149 298 l 149 223 l 74 223 l 74 298 m 298 967 l 372 967 l 372 893 l 298 893 l 298 967 m 372 967 l 446 967 l 446 893 l 372 893 l 372 967 m 372 893 l 446 893 l 446 818 l 372 818 l 372 893 m 298 893 l 372 893 l 372 818 l 298 818 l 298 893 m 74 893 l 149 893 l 149 818 l 74 818 l 74 893 m 149 893 l 223 893 l 223 818 l 149 818 l 149 893 m 149 967 l 223 967 l 223 893 l 149 893 l 149 967 m 74 967 l 149 967 l 149 893 l 74 893 l 74 967 z "},"Ò":{"ha":595,"x_min":0,"x_max":521,"o":"m 149 744 l 223 744 l 223 670 l 149 670 l 149 744 m 74 744 l 149 744 l 149 670 l 74 670 l 74 744 m 74 670 l 149 670 l 149 595 l 74 595 l 74 670 m 149 670 l 223 670 l 223 595 l 149 595 l 149 670 m 223 670 l 298 670 l 298 595 l 223 595 l 223 670 m 223 744 l 298 744 l 298 670 l 223 670 l 223 744 m 298 744 l 372 744 l 372 670 l 298 670 l 298 744 m 372 744 l 446 744 l 446 670 l 372 670 l 372 744 m 372 670 l 446 670 l 446 595 l 372 595 l 372 670 m 298 670 l 372 670 l 372 595 l 298 595 l 298 670 m 298 595 l 372 595 l 372 521 l 298 521 l 298 595 m 372 595 l 446 595 l 446 521 l 372 521 l 372 595 m 446 670 l 521 670 l 521 595 l 446 595 l 446 670 m 446 595 l 521 595 l 521 521 l 446 521 l 446 595 m 446 521 l 521 521 l 521 446 l 446 446 l 446 521 m 446 446 l 521 446 l 521 372 l 446 372 l 446 446 m 446 372 l 521 372 l 521 298 l 446 298 l 446 372 m 446 298 l 521 298 l 521 223 l 446 223 l 446 298 m 446 223 l 521 223 l 521 149 l 446 149 l 446 223 m 446 149 l 521 149 l 521 74 l 446 74 l 446 149 m 372 149 l 446 149 l 446 74 l 372 74 l 372 149 m 372 223 l 446 223 l 446 149 l 372 149 l 372 223 m 372 298 l 446 298 l 446 223 l 372 223 l 372 298 m 372 372 l 446 372 l 446 298 l 372 298 l 372 372 m 372 446 l 446 446 l 446 372 l 372 372 l 372 446 m 372 521 l 446 521 l 446 446 l 372 446 l 372 521 m 298 223 l 372 223 l 372 149 l 298 149 l 298 223 m 298 149 l 372 149 l 372 74 l 298 74 l 298 149 m 372 74 l 446 74 l 446 0 l 372 0 l 372 74 m 298 74 l 372 74 l 372 0 l 298 0 l 298 74 m 223 74 l 298 74 l 298 0 l 223 0 l 223 74 m 223 149 l 298 149 l 298 74 l 223 74 l 223 149 m 149 74 l 223 74 l 223 0 l 149 0 l 149 74 m 74 74 l 149 74 l 149 0 l 74 0 l 74 74 m 74 149 l 149 149 l 149 74 l 74 74 l 74 149 m 149 149 l 223 149 l 223 74 l 149 74 l 149 149 m 149 223 l 223 223 l 223 149 l 149 149 l 149 223 m 74 223 l 149 223 l 149 149 l 74 149 l 74 223 m 0 149 l 74 149 l 74 74 l 0 74 l 0 149 m 0 223 l 74 223 l 74 149 l 0 149 l 0 223 m 0 298 l 74 298 l 74 223 l 0 223 l 0 298 m 0 372 l 74 372 l 74 298 l 0 298 l 0 372 m 0 446 l 74 446 l 74 372 l 0 372 l 0 446 m 0 521 l 74 521 l 74 446 l 0 446 l 0 521 m 0 595 l 74 595 l 74 521 l 0 521 l 0 595 m 74 595 l 149 595 l 149 521 l 74 521 l 74 595 m 0 670 l 74 670 l 74 595 l 0 595 l 0 670 m 149 595 l 223 595 l 223 521 l 149 521 l 149 595 m 74 521 l 149 521 l 149 446 l 74 446 l 74 521 m 74 446 l 149 446 l 149 372 l 74 372 l 74 446 m 74 372 l 149 372 l 149 298 l 74 298 l 74 372 m 74 298 l 149 298 l 149 223 l 74 223 l 74 298 m 223 967 l 298 967 l 298 893 l 223 893 l 223 967 m 223 893 l 298 893 l 298 818 l 223 818 l 223 893 m 149 967 l 223 967 l 223 893 l 149 893 l 149 967 m 298 893 l 372 893 l 372 818 l 298 818 l 298 893 m 149 1042 l 223 1042 l 223 967 l 149 967 l 149 1042 z "},"Ő":{"ha":595,"x_min":0,"x_max":521,"o":"m 149 744 l 223 744 l 223 670 l 149 670 l 149 744 m 74 744 l 149 744 l 149 670 l 74 670 l 74 744 m 74 670 l 149 670 l 149 595 l 74 595 l 74 670 m 149 670 l 223 670 l 223 595 l 149 595 l 149 670 m 223 670 l 298 670 l 298 595 l 223 595 l 223 670 m 223 744 l 298 744 l 298 670 l 223 670 l 223 744 m 298 744 l 372 744 l 372 670 l 298 670 l 298 744 m 372 744 l 446 744 l 446 670 l 372 670 l 372 744 m 372 670 l 446 670 l 446 595 l 372 595 l 372 670 m 298 670 l 372 670 l 372 595 l 298 595 l 298 670 m 298 595 l 372 595 l 372 521 l 298 521 l 298 595 m 372 595 l 446 595 l 446 521 l 372 521 l 372 595 m 446 670 l 521 670 l 521 595 l 446 595 l 446 670 m 446 595 l 521 595 l 521 521 l 446 521 l 446 595 m 446 521 l 521 521 l 521 446 l 446 446 l 446 521 m 446 446 l 521 446 l 521 372 l 446 372 l 446 446 m 446 372 l 521 372 l 521 298 l 446 298 l 446 372 m 446 298 l 521 298 l 521 223 l 446 223 l 446 298 m 446 223 l 521 223 l 521 149 l 446 149 l 446 223 m 446 149 l 521 149 l 521 74 l 446 74 l 446 149 m 372 149 l 446 149 l 446 74 l 372 74 l 372 149 m 372 223 l 446 223 l 446 149 l 372 149 l 372 223 m 372 298 l 446 298 l 446 223 l 372 223 l 372 298 m 372 372 l 446 372 l 446 298 l 372 298 l 372 372 m 372 446 l 446 446 l 446 372 l 372 372 l 372 446 m 372 521 l 446 521 l 446 446 l 372 446 l 372 521 m 298 223 l 372 223 l 372 149 l 298 149 l 298 223 m 298 149 l 372 149 l 372 74 l 298 74 l 298 149 m 372 74 l 446 74 l 446 0 l 372 0 l 372 74 m 298 74 l 372 74 l 372 0 l 298 0 l 298 74 m 223 74 l 298 74 l 298 0 l 223 0 l 223 74 m 223 149 l 298 149 l 298 74 l 223 74 l 223 149 m 149 74 l 223 74 l 223 0 l 149 0 l 149 74 m 74 74 l 149 74 l 149 0 l 74 0 l 74 74 m 74 149 l 149 149 l 149 74 l 74 74 l 74 149 m 149 149 l 223 149 l 223 74 l 149 74 l 149 149 m 149 223 l 223 223 l 223 149 l 149 149 l 149 223 m 74 223 l 149 223 l 149 149 l 74 149 l 74 223 m 0 149 l 74 149 l 74 74 l 0 74 l 0 149 m 0 223 l 74 223 l 74 149 l 0 149 l 0 223 m 0 298 l 74 298 l 74 223 l 0 223 l 0 298 m 0 372 l 74 372 l 74 298 l 0 298 l 0 372 m 0 446 l 74 446 l 74 372 l 0 372 l 0 446 m 0 521 l 74 521 l 74 446 l 0 446 l 0 521 m 0 595 l 74 595 l 74 521 l 0 521 l 0 595 m 74 595 l 149 595 l 149 521 l 74 521 l 74 595 m 0 670 l 74 670 l 74 595 l 0 595 l 0 670 m 149 595 l 223 595 l 223 521 l 149 521 l 149 595 m 74 521 l 149 521 l 149 446 l 74 446 l 74 521 m 74 446 l 149 446 l 149 372 l 74 372 l 74 446 m 74 372 l 149 372 l 149 298 l 74 298 l 74 372 m 74 298 l 149 298 l 149 223 l 74 223 l 74 298 m 149 967 l 149 893 l 74 893 l 74 967 l 149 967 m 149 893 l 149 818 l 74 818 l 74 893 l 149 893 m 223 967 l 223 893 l 149 893 l 149 967 l 223 967 m 74 893 l 74 818 l 0 818 l 0 893 l 74 893 m 223 1042 l 223 967 l 149 967 l 149 1042 l 223 1042 m 372 967 l 372 893 l 298 893 l 298 967 l 372 967 m 372 893 l 372 818 l 298 818 l 298 893 l 372 893 m 446 967 l 446 893 l 372 893 l 372 967 l 446 967 m 298 893 l 298 818 l 223 818 l 223 893 l 298 893 m 446 1042 l 446 967 l 372 967 l 372 1042 l 446 1042 z "},"Ō":{"ha":595,"x_min":0,"x_max":521,"o":"m 149 744 l 223 744 l 223 670 l 149 670 l 149 744 m 74 744 l 149 744 l 149 670 l 74 670 l 74 744 m 74 670 l 149 670 l 149 595 l 74 595 l 74 670 m 149 670 l 223 670 l 223 595 l 149 595 l 149 670 m 223 670 l 298 670 l 298 595 l 223 595 l 223 670 m 223 744 l 298 744 l 298 670 l 223 670 l 223 744 m 298 744 l 372 744 l 372 670 l 298 670 l 298 744 m 372 744 l 446 744 l 446 670 l 372 670 l 372 744 m 372 670 l 446 670 l 446 595 l 372 595 l 372 670 m 298 670 l 372 670 l 372 595 l 298 595 l 298 670 m 298 595 l 372 595 l 372 521 l 298 521 l 298 595 m 372 595 l 446 595 l 446 521 l 372 521 l 372 595 m 446 670 l 521 670 l 521 595 l 446 595 l 446 670 m 446 595 l 521 595 l 521 521 l 446 521 l 446 595 m 446 521 l 521 521 l 521 446 l 446 446 l 446 521 m 446 446 l 521 446 l 521 372 l 446 372 l 446 446 m 446 372 l 521 372 l 521 298 l 446 298 l 446 372 m 446 298 l 521 298 l 521 223 l 446 223 l 446 298 m 446 223 l 521 223 l 521 149 l 446 149 l 446 223 m 446 149 l 521 149 l 521 74 l 446 74 l 446 149 m 372 149 l 446 149 l 446 74 l 372 74 l 372 149 m 372 223 l 446 223 l 446 149 l 372 149 l 372 223 m 372 298 l 446 298 l 446 223 l 372 223 l 372 298 m 372 372 l 446 372 l 446 298 l 372 298 l 372 372 m 372 446 l 446 446 l 446 372 l 372 372 l 372 446 m 372 521 l 446 521 l 446 446 l 372 446 l 372 521 m 298 223 l 372 223 l 372 149 l 298 149 l 298 223 m 298 149 l 372 149 l 372 74 l 298 74 l 298 149 m 372 74 l 446 74 l 446 0 l 372 0 l 372 74 m 298 74 l 372 74 l 372 0 l 298 0 l 298 74 m 223 74 l 298 74 l 298 0 l 223 0 l 223 74 m 223 149 l 298 149 l 298 74 l 223 74 l 223 149 m 149 74 l 223 74 l 223 0 l 149 0 l 149 74 m 74 74 l 149 74 l 149 0 l 74 0 l 74 74 m 74 149 l 149 149 l 149 74 l 74 74 l 74 149 m 149 149 l 223 149 l 223 74 l 149 74 l 149 149 m 149 223 l 223 223 l 223 149 l 149 149 l 149 223 m 74 223 l 149 223 l 149 149 l 74 149 l 74 223 m 0 149 l 74 149 l 74 74 l 0 74 l 0 149 m 0 223 l 74 223 l 74 149 l 0 149 l 0 223 m 0 298 l 74 298 l 74 223 l 0 223 l 0 298 m 0 372 l 74 372 l 74 298 l 0 298 l 0 372 m 0 446 l 74 446 l 74 372 l 0 372 l 0 446 m 0 521 l 74 521 l 74 446 l 0 446 l 0 521 m 0 595 l 74 595 l 74 521 l 0 521 l 0 595 m 74 595 l 149 595 l 149 521 l 74 521 l 74 595 m 0 670 l 74 670 l 74 595 l 0 595 l 0 670 m 149 595 l 223 595 l 223 521 l 149 521 l 149 595 m 74 521 l 149 521 l 149 446 l 74 446 l 74 521 m 74 446 l 149 446 l 149 372 l 74 372 l 74 446 m 74 372 l 149 372 l 149 298 l 74 298 l 74 372 m 74 298 l 149 298 l 149 223 l 74 223 l 74 298 m 149 967 l 223 967 l 223 893 l 149 893 l 149 967 m 223 967 l 298 967 l 298 893 l 223 893 l 223 967 m 223 893 l 298 893 l 298 818 l 223 818 l 223 893 m 149 893 l 223 893 l 223 818 l 149 818 l 149 893 m 74 967 l 149 967 l 149 893 l 74 893 l 74 967 m 74 893 l 149 893 l 149 818 l 74 818 l 74 893 m 298 967 l 372 967 l 372 893 l 298 893 l 298 967 m 298 893 l 372 893 l 372 818 l 298 818 l 298 893 m 372 967 l 446 967 l 446 893 l 372 893 l 372 967 m 372 893 l 446 893 l 446 818 l 372 818 l 372 893 z "},"Ø":{"ha":893,"x_min":0,"x_max":818,"o":"m 298 744 l 372 744 l 372 670 l 298 670 l 298 744 m 223 744 l 298 744 l 298 670 l 223 670 l 223 744 m 223 670 l 298 670 l 298 595 l 223 595 l 223 670 m 298 670 l 372 670 l 372 595 l 298 595 l 298 670 m 372 670 l 446 670 l 446 595 l 372 595 l 372 670 m 372 744 l 446 744 l 446 670 l 372 670 l 372 744 m 446 744 l 521 744 l 521 670 l 446 670 l 446 744 m 521 744 l 595 744 l 595 670 l 521 670 l 521 744 m 521 670 l 595 670 l 595 595 l 521 595 l 521 670 m 446 670 l 521 670 l 521 595 l 446 595 l 446 670 m 446 595 l 521 595 l 521 521 l 446 521 l 446 595 m 521 595 l 595 595 l 595 521 l 521 521 l 521 595 m 595 670 l 670 670 l 670 595 l 595 595 l 595 670 m 595 595 l 670 595 l 670 521 l 595 521 l 595 595 m 595 521 l 670 521 l 670 446 l 595 446 l 595 521 m 595 446 l 670 446 l 670 372 l 595 372 l 595 446 m 595 372 l 670 372 l 670 298 l 595 298 l 595 372 m 595 298 l 670 298 l 670 223 l 595 223 l 595 298 m 595 223 l 670 223 l 670 149 l 595 149 l 595 223 m 595 149 l 670 149 l 670 74 l 595 74 l 595 149 m 521 149 l 595 149 l 595 74 l 521 74 l 521 149 m 521 223 l 595 223 l 595 149 l 521 149 l 521 223 m 521 298 l 595 298 l 595 223 l 521 223 l 521 298 m 521 372 l 595 372 l 595 298 l 521 298 l 521 372 m 521 446 l 595 446 l 595 372 l 521 372 l 521 446 m 521 521 l 595 521 l 595 446 l 521 446 l 521 521 m 446 223 l 521 223 l 521 149 l 446 149 l 446 223 m 446 149 l 521 149 l 521 74 l 446 74 l 446 149 m 521 74 l 595 74 l 595 0 l 521 0 l 521 74 m 446 74 l 521 74 l 521 0 l 446 0 l 446 74 m 372 74 l 446 74 l 446 0 l 372 0 l 372 74 m 372 149 l 446 149 l 446 74 l 372 74 l 372 149 m 298 74 l 372 74 l 372 0 l 298 0 l 298 74 m 223 74 l 298 74 l 298 0 l 223 0 l 223 74 m 223 149 l 298 149 l 298 74 l 223 74 l 223 149 m 298 149 l 372 149 l 372 74 l 298 74 l 298 149 m 298 223 l 372 223 l 372 149 l 298 149 l 298 223 m 223 223 l 298 223 l 298 149 l 223 149 l 223 223 m 149 149 l 223 149 l 223 74 l 149 74 l 149 149 m 149 223 l 223 223 l 223 149 l 149 149 l 149 223 m 149 298 l 223 298 l 223 223 l 149 223 l 149 298 m 149 372 l 223 372 l 223 298 l 149 298 l 149 372 m 149 446 l 223 446 l 223 372 l 149 372 l 149 446 m 149 521 l 223 521 l 223 446 l 149 446 l 149 521 m 149 595 l 223 595 l 223 521 l 149 521 l 149 595 m 223 595 l 298 595 l 298 521 l 223 521 l 223 595 m 149 670 l 223 670 l 223 595 l 149 595 l 149 670 m 298 595 l 372 595 l 372 521 l 298 521 l 298 595 m 223 521 l 298 521 l 298 446 l 223 446 l 223 521 m 223 446 l 298 446 l 298 372 l 223 372 l 223 446 m 223 372 l 298 372 l 298 298 l 223 298 l 223 372 m 223 298 l 298 298 l 298 223 l 223 223 l 223 298 m 298 372 l 372 372 l 372 298 l 298 298 l 298 372 m 372 446 l 446 446 l 446 372 l 372 372 l 372 446 m 446 446 l 521 446 l 521 372 l 446 372 l 446 446 m 372 372 l 446 372 l 446 298 l 372 298 l 372 372 m 670 521 l 744 521 l 744 446 l 670 446 l 670 521 m 74 298 l 149 298 l 149 223 l 74 223 l 74 298 m 74 223 l 149 223 l 149 149 l 74 149 l 74 223 m 670 595 l 744 595 l 744 521 l 670 521 l 670 595 m 744 595 l 818 595 l 818 521 l 744 521 l 744 595 m 0 223 l 74 223 l 74 149 l 0 149 l 0 223 z "},"Õ":{"ha":595,"x_min":0,"x_max":521,"o":"m 149 744 l 223 744 l 223 670 l 149 670 l 149 744 m 74 744 l 149 744 l 149 670 l 74 670 l 74 744 m 74 670 l 149 670 l 149 595 l 74 595 l 74 670 m 149 670 l 223 670 l 223 595 l 149 595 l 149 670 m 223 670 l 298 670 l 298 595 l 223 595 l 223 670 m 223 744 l 298 744 l 298 670 l 223 670 l 223 744 m 298 744 l 372 744 l 372 670 l 298 670 l 298 744 m 372 744 l 446 744 l 446 670 l 372 670 l 372 744 m 372 670 l 446 670 l 446 595 l 372 595 l 372 670 m 298 670 l 372 670 l 372 595 l 298 595 l 298 670 m 298 595 l 372 595 l 372 521 l 298 521 l 298 595 m 372 595 l 446 595 l 446 521 l 372 521 l 372 595 m 446 670 l 521 670 l 521 595 l 446 595 l 446 670 m 446 595 l 521 595 l 521 521 l 446 521 l 446 595 m 446 521 l 521 521 l 521 446 l 446 446 l 446 521 m 446 446 l 521 446 l 521 372 l 446 372 l 446 446 m 446 372 l 521 372 l 521 298 l 446 298 l 446 372 m 446 298 l 521 298 l 521 223 l 446 223 l 446 298 m 446 223 l 521 223 l 521 149 l 446 149 l 446 223 m 446 149 l 521 149 l 521 74 l 446 74 l 446 149 m 372 149 l 446 149 l 446 74 l 372 74 l 372 149 m 372 223 l 446 223 l 446 149 l 372 149 l 372 223 m 372 298 l 446 298 l 446 223 l 372 223 l 372 298 m 372 372 l 446 372 l 446 298 l 372 298 l 372 372 m 372 446 l 446 446 l 446 372 l 372 372 l 372 446 m 372 521 l 446 521 l 446 446 l 372 446 l 372 521 m 298 223 l 372 223 l 372 149 l 298 149 l 298 223 m 298 149 l 372 149 l 372 74 l 298 74 l 298 149 m 372 74 l 446 74 l 446 0 l 372 0 l 372 74 m 298 74 l 372 74 l 372 0 l 298 0 l 298 74 m 223 74 l 298 74 l 298 0 l 223 0 l 223 74 m 223 149 l 298 149 l 298 74 l 223 74 l 223 149 m 149 74 l 223 74 l 223 0 l 149 0 l 149 74 m 74 74 l 149 74 l 149 0 l 74 0 l 74 74 m 74 149 l 149 149 l 149 74 l 74 74 l 74 149 m 149 149 l 223 149 l 223 74 l 149 74 l 149 149 m 149 223 l 223 223 l 223 149 l 149 149 l 149 223 m 74 223 l 149 223 l 149 149 l 74 149 l 74 223 m 0 149 l 74 149 l 74 74 l 0 74 l 0 149 m 0 223 l 74 223 l 74 149 l 0 149 l 0 223 m 0 298 l 74 298 l 74 223 l 0 223 l 0 298 m 0 372 l 74 372 l 74 298 l 0 298 l 0 372 m 0 446 l 74 446 l 74 372 l 0 372 l 0 446 m 0 521 l 74 521 l 74 446 l 0 446 l 0 521 m 0 595 l 74 595 l 74 521 l 0 521 l 0 595 m 74 595 l 149 595 l 149 521 l 74 521 l 74 595 m 0 670 l 74 670 l 74 595 l 0 595 l 0 670 m 149 595 l 223 595 l 223 521 l 149 521 l 149 595 m 74 521 l 149 521 l 149 446 l 74 446 l 74 521 m 74 446 l 149 446 l 149 372 l 74 372 l 74 446 m 74 372 l 149 372 l 149 298 l 74 298 l 74 372 m 74 298 l 149 298 l 149 223 l 74 223 l 74 298 m 223 967 l 298 967 l 298 893 l 223 893 l 223 967 m 74 1042 l 149 1042 l 149 967 l 74 967 l 74 1042 m 149 1042 l 223 1042 l 223 967 l 149 967 l 149 1042 m 298 967 l 372 967 l 372 893 l 298 893 l 298 967 m 372 967 l 446 967 l 446 893 l 372 893 l 372 967 m 372 1042 l 446 1042 l 446 967 l 372 967 l 372 1042 m 298 893 l 372 893 l 372 818 l 298 818 l 298 893 m 223 1042 l 298 1042 l 298 967 l 223 967 l 223 1042 m 149 1116 l 223 1116 l 223 1042 l 149 1042 l 149 1116 m 74 967 l 149 967 l 149 893 l 74 893 l 74 967 z "},"Œ":{"ha":818,"x_min":0,"x_max":744,"o":"m 149 744 l 223 744 l 223 670 l 149 670 l 149 744 m 74 744 l 149 744 l 149 670 l 74 670 l 74 744 m 74 670 l 149 670 l 149 595 l 74 595 l 74 670 m 149 670 l 223 670 l 223 595 l 149 595 l 149 670 m 223 670 l 298 670 l 298 595 l 223 595 l 223 670 m 223 744 l 298 744 l 298 670 l 223 670 l 223 744 m 298 744 l 372 744 l 372 670 l 298 670 l 298 744 m 298 670 l 372 670 l 372 595 l 298 595 l 298 670 m 298 595 l 372 595 l 372 521 l 298 521 l 298 595 m 298 223 l 372 223 l 372 149 l 298 149 l 298 223 m 298 149 l 372 149 l 372 74 l 298 74 l 298 149 m 298 74 l 372 74 l 372 0 l 298 0 l 298 74 m 223 74 l 298 74 l 298 0 l 223 0 l 223 74 m 223 149 l 298 149 l 298 74 l 223 74 l 223 149 m 149 74 l 223 74 l 223 0 l 149 0 l 149 74 m 74 74 l 149 74 l 149 0 l 74 0 l 74 74 m 74 149 l 149 149 l 149 74 l 74 74 l 74 149 m 149 149 l 223 149 l 223 74 l 149 74 l 149 149 m 149 223 l 223 223 l 223 149 l 149 149 l 149 223 m 74 223 l 149 223 l 149 149 l 74 149 l 74 223 m 0 149 l 74 149 l 74 74 l 0 74 l 0 149 m 0 223 l 74 223 l 74 149 l 0 149 l 0 223 m 0 298 l 74 298 l 74 223 l 0 223 l 0 298 m 0 372 l 74 372 l 74 298 l 0 298 l 0 372 m 0 446 l 74 446 l 74 372 l 0 372 l 0 446 m 0 521 l 74 521 l 74 446 l 0 446 l 0 521 m 0 595 l 74 595 l 74 521 l 0 521 l 0 595 m 74 595 l 149 595 l 149 521 l 74 521 l 74 595 m 0 670 l 74 670 l 74 595 l 0 595 l 0 670 m 149 595 l 223 595 l 223 521 l 149 521 l 149 595 m 74 521 l 149 521 l 149 446 l 74 446 l 74 521 m 74 446 l 149 446 l 149 372 l 74 372 l 74 446 m 74 372 l 149 372 l 149 298 l 74 298 l 74 372 m 74 298 l 149 298 l 149 223 l 74 223 l 74 298 m 446 744 l 521 744 l 521 670 l 446 670 l 446 744 m 446 670 l 521 670 l 521 595 l 446 595 l 446 670 m 446 595 l 521 595 l 521 521 l 446 521 l 446 595 m 446 521 l 521 521 l 521 446 l 446 446 l 446 521 m 372 521 l 446 521 l 446 446 l 372 446 l 372 521 m 372 595 l 446 595 l 446 521 l 372 521 l 372 595 m 372 670 l 446 670 l 446 595 l 372 595 l 372 670 m 372 446 l 446 446 l 446 372 l 372 372 l 372 446 m 372 372 l 446 372 l 446 298 l 372 298 l 372 372 m 372 298 l 446 298 l 446 223 l 372 223 l 372 298 m 446 372 l 521 372 l 521 298 l 446 298 l 446 372 m 446 446 l 521 446 l 521 372 l 446 372 l 446 446 m 446 298 l 521 298 l 521 223 l 446 223 l 446 298 m 446 223 l 521 223 l 521 149 l 446 149 l 446 223 m 372 223 l 446 223 l 446 149 l 372 149 l 372 223 m 446 74 l 521 74 l 521 0 l 446 0 l 446 74 m 446 149 l 521 149 l 521 74 l 446 74 l 446 149 m 521 74 l 595 74 l 595 0 l 521 0 l 521 74 m 595 74 l 670 74 l 670 0 l 595 0 l 595 74 m 670 74 l 744 74 l 744 0 l 670 0 l 670 74 m 670 149 l 744 149 l 744 74 l 670 74 l 670 149 m 595 149 l 670 149 l 670 74 l 595 74 l 595 149 m 521 149 l 595 149 l 595 74 l 521 74 l 521 149 m 521 744 l 595 744 l 595 670 l 521 670 l 521 744 m 595 744 l 670 744 l 670 670 l 595 670 l 595 744 m 670 744 l 744 744 l 744 670 l 670 670 l 670 744 m 595 670 l 670 670 l 670 595 l 595 595 l 595 670 m 521 670 l 595 670 l 595 595 l 521 595 l 521 670 m 521 372 l 595 372 l 595 298 l 521 298 l 521 372 m 595 446 l 670 446 l 670 372 l 595 372 l 595 446 m 521 446 l 595 446 l 595 372 l 521 372 l 521 446 m 595 372 l 670 372 l 670 298 l 595 298 l 595 372 m 670 670 l 744 670 l 744 595 l 670 595 l 670 670 m 372 149 l 446 149 l 446 74 l 372 74 l 372 149 m 372 74 l 446 74 l 446 0 l 372 0 l 372 74 m 372 744 l 446 744 l 446 670 l 372 670 l 372 744 z "},"P":{"ha":595,"x_min":0,"x_max":521,"o":"m 0 744 l 74 744 l 74 670 l 0 670 l 0 744 m 74 744 l 149 744 l 149 670 l 74 670 l 74 744 m 149 744 l 223 744 l 223 670 l 149 670 l 149 744 m 223 744 l 298 744 l 298 670 l 223 670 l 223 744 m 298 744 l 372 744 l 372 670 l 298 670 l 298 744 m 372 744 l 446 744 l 446 670 l 372 670 l 372 744 m 372 670 l 446 670 l 446 595 l 372 595 l 372 670 m 298 670 l 372 670 l 372 595 l 298 595 l 298 670 m 223 670 l 298 670 l 298 595 l 223 595 l 223 670 m 149 670 l 223 670 l 223 595 l 149 595 l 149 670 m 74 670 l 149 670 l 149 595 l 74 595 l 74 670 m 0 670 l 74 670 l 74 595 l 0 595 l 0 670 m 446 670 l 521 670 l 521 595 l 446 595 l 446 670 m 372 595 l 446 595 l 446 521 l 372 521 l 372 595 m 446 595 l 521 595 l 521 521 l 446 521 l 446 595 m 446 521 l 521 521 l 521 446 l 446 446 l 446 521 m 446 446 l 521 446 l 521 372 l 446 372 l 446 446 m 372 446 l 446 446 l 446 372 l 372 372 l 372 446 m 372 521 l 446 521 l 446 446 l 372 446 l 372 521 m 372 372 l 446 372 l 446 298 l 372 298 l 372 372 m 372 298 l 446 298 l 446 223 l 372 223 l 372 298 m 298 298 l 372 298 l 372 223 l 298 223 l 298 298 m 298 372 l 372 372 l 372 298 l 298 298 l 298 372 m 223 372 l 298 372 l 298 298 l 223 298 l 223 372 m 223 298 l 298 298 l 298 223 l 223 223 l 223 298 m 149 298 l 223 298 l 223 223 l 149 223 l 149 298 m 149 372 l 223 372 l 223 298 l 149 298 l 149 372 m 74 372 l 149 372 l 149 298 l 74 298 l 74 372 m 0 372 l 74 372 l 74 298 l 0 298 l 0 372 m 0 298 l 74 298 l 74 223 l 0 223 l 0 298 m 74 298 l 149 298 l 149 223 l 74 223 l 74 298 m 0 595 l 74 595 l 74 521 l 0 521 l 0 595 m 74 595 l 149 595 l 149 521 l 74 521 l 74 595 m 74 521 l 149 521 l 149 446 l 74 446 l 74 521 m 74 446 l 149 446 l 149 372 l 74 372 l 74 446 m 0 521 l 74 521 l 74 446 l 0 446 l 0 521 m 0 446 l 74 446 l 74 372 l 0 372 l 0 446 m 0 223 l 74 223 l 74 149 l 0 149 l 0 223 m 74 223 l 149 223 l 149 149 l 74 149 l 74 223 m 74 149 l 149 149 l 149 74 l 74 74 l 74 149 m 74 74 l 149 74 l 149 0 l 74 0 l 74 74 m 0 74 l 74 74 l 74 0 l 0 0 l 0 74 m 0 149 l 74 149 l 74 74 l 0 74 l 0 149 m 446 372 l 521 372 l 521 298 l 446 298 l 446 372 z "},"Þ":{"ha":595,"x_min":0,"x_max":521,"o":"m 0 744 l 74 744 l 74 670 l 0 670 l 0 744 m 74 744 l 149 744 l 149 670 l 74 670 l 74 744 m 149 595 l 223 595 l 223 521 l 149 521 l 149 595 m 223 595 l 298 595 l 298 521 l 223 521 l 223 595 m 298 595 l 372 595 l 372 521 l 298 521 l 298 595 m 372 595 l 446 595 l 446 521 l 372 521 l 372 595 m 372 521 l 446 521 l 446 446 l 372 446 l 372 521 m 298 521 l 372 521 l 372 446 l 298 446 l 298 521 m 223 521 l 298 521 l 298 446 l 223 446 l 223 521 m 149 521 l 223 521 l 223 446 l 149 446 l 149 521 m 74 670 l 149 670 l 149 595 l 74 595 l 74 670 m 0 670 l 74 670 l 74 595 l 0 595 l 0 670 m 446 521 l 521 521 l 521 446 l 446 446 l 446 521 m 446 446 l 521 446 l 521 372 l 446 372 l 446 446 m 446 372 l 521 372 l 521 298 l 446 298 l 446 372 m 372 372 l 446 372 l 446 298 l 372 298 l 372 372 m 372 446 l 446 446 l 446 372 l 372 372 l 372 446 m 372 298 l 446 298 l 446 223 l 372 223 l 372 298 m 372 223 l 446 223 l 446 149 l 372 149 l 372 223 m 298 223 l 372 223 l 372 149 l 298 149 l 298 223 m 298 298 l 372 298 l 372 223 l 298 223 l 298 298 m 223 298 l 298 298 l 298 223 l 223 223 l 223 298 m 223 223 l 298 223 l 298 149 l 223 149 l 223 223 m 149 223 l 223 223 l 223 149 l 149 149 l 149 223 m 149 298 l 223 298 l 223 223 l 149 223 l 149 298 m 74 372 l 149 372 l 149 298 l 74 298 l 74 372 m 0 372 l 74 372 l 74 298 l 0 298 l 0 372 m 0 298 l 74 298 l 74 223 l 0 223 l 0 298 m 74 298 l 149 298 l 149 223 l 74 223 l 74 298 m 0 595 l 74 595 l 74 521 l 0 521 l 0 595 m 74 595 l 149 595 l 149 521 l 74 521 l 74 595 m 74 521 l 149 521 l 149 446 l 74 446 l 74 521 m 74 446 l 149 446 l 149 372 l 74 372 l 74 446 m 0 521 l 74 521 l 74 446 l 0 446 l 0 521 m 0 446 l 74 446 l 74 372 l 0 372 l 0 446 m 0 223 l 74 223 l 74 149 l 0 149 l 0 223 m 74 223 l 149 223 l 149 149 l 74 149 l 74 223 m 74 149 l 149 149 l 149 74 l 74 74 l 74 149 m 74 74 l 149 74 l 149 0 l 74 0 l 74 74 m 0 74 l 74 74 l 74 0 l 0 0 l 0 74 m 0 149 l 74 149 l 74 74 l 0 74 l 0 149 z "},"Q":{"ha":595,"x_min":0,"x_max":521,"o":"m 149 744 l 223 744 l 223 670 l 149 670 l 149 744 m 74 744 l 149 744 l 149 670 l 74 670 l 74 744 m 74 670 l 149 670 l 149 595 l 74 595 l 74 670 m 149 670 l 223 670 l 223 595 l 149 595 l 149 670 m 223 670 l 298 670 l 298 595 l 223 595 l 223 670 m 223 744 l 298 744 l 298 670 l 223 670 l 223 744 m 298 744 l 372 744 l 372 670 l 298 670 l 298 744 m 372 744 l 446 744 l 446 670 l 372 670 l 372 744 m 372 670 l 446 670 l 446 595 l 372 595 l 372 670 m 298 670 l 372 670 l 372 595 l 298 595 l 298 670 m 298 595 l 372 595 l 372 521 l 298 521 l 298 595 m 372 595 l 446 595 l 446 521 l 372 521 l 372 595 m 446 670 l 521 670 l 521 595 l 446 595 l 446 670 m 446 595 l 521 595 l 521 521 l 446 521 l 446 595 m 446 521 l 521 521 l 521 446 l 446 446 l 446 521 m 446 446 l 521 446 l 521 372 l 446 372 l 446 446 m 446 372 l 521 372 l 521 298 l 446 298 l 446 372 m 446 298 l 521 298 l 521 223 l 446 223 l 446 298 m 446 223 l 521 223 l 521 149 l 446 149 l 446 223 m 446 149 l 521 149 l 521 74 l 446 74 l 446 149 m 372 149 l 446 149 l 446 74 l 372 74 l 372 149 m 372 223 l 446 223 l 446 149 l 372 149 l 372 223 m 372 298 l 446 298 l 446 223 l 372 223 l 372 298 m 372 372 l 446 372 l 446 298 l 372 298 l 372 372 m 372 446 l 446 446 l 446 372 l 372 372 l 372 446 m 372 521 l 446 521 l 446 446 l 372 446 l 372 521 m 298 223 l 372 223 l 372 149 l 298 149 l 298 223 m 298 149 l 372 149 l 372 74 l 298 74 l 298 149 m 298 74 l 372 74 l 372 0 l 298 0 l 298 74 m 223 74 l 298 74 l 298 0 l 223 0 l 223 74 m 223 149 l 298 149 l 298 74 l 223 74 l 223 149 m 149 74 l 223 74 l 223 0 l 149 0 l 149 74 m 74 74 l 149 74 l 149 0 l 74 0 l 74 74 m 74 149 l 149 149 l 149 74 l 74 74 l 74 149 m 149 149 l 223 149 l 223 74 l 149 74 l 149 149 m 149 223 l 223 223 l 223 149 l 149 149 l 149 223 m 74 223 l 149 223 l 149 149 l 74 149 l 74 223 m 0 149 l 74 149 l 74 74 l 0 74 l 0 149 m 0 223 l 74 223 l 74 149 l 0 149 l 0 223 m 0 298 l 74 298 l 74 223 l 0 223 l 0 298 m 0 372 l 74 372 l 74 298 l 0 298 l 0 372 m 0 446 l 74 446 l 74 372 l 0 372 l 0 446 m 0 521 l 74 521 l 74 446 l 0 446 l 0 521 m 0 595 l 74 595 l 74 521 l 0 521 l 0 595 m 74 595 l 149 595 l 149 521 l 74 521 l 74 595 m 0 670 l 74 670 l 74 595 l 0 595 l 0 670 m 149 595 l 223 595 l 223 521 l 149 521 l 149 595 m 74 521 l 149 521 l 149 446 l 74 446 l 74 521 m 74 446 l 149 446 l 149 372 l 74 372 l 74 446 m 74 372 l 149 372 l 149 298 l 74 298 l 74 372 m 74 298 l 149 298 l 149 223 l 74 223 l 74 298 m 223 0 l 298 0 l 298 -74 l 223 -74 l 223 0 m 298 0 l 372 0 l 372 -74 l 298 -74 l 298 0 m 372 0 l 446 0 l 446 -74 l 372 -74 l 372 0 m 298 -74 l 372 -74 l 372 -149 l 298 -149 l 298 -74 m 372 -74 l 446 -74 l 446 -149 l 372 -149 l 372 -74 m 446 -74 l 521 -74 l 521 -149 l 446 -149 l 446 -74 m 446 0 l 521 0 l 521 -74 l 446 -74 l 446 0 z "},"R":{"ha":595,"x_min":0,"x_max":521,"o":"m 74 372 l 149 372 l 149 298 l 74 298 l 74 372 m 149 372 l 223 372 l 223 298 l 149 298 l 149 372 m 223 372 l 298 372 l 298 298 l 223 298 l 223 372 m 298 372 l 372 372 l 372 298 l 298 298 l 298 372 m 149 298 l 223 298 l 223 223 l 149 223 l 149 298 m 74 298 l 149 298 l 149 223 l 74 223 l 74 298 m 223 298 l 298 298 l 298 223 l 223 223 l 223 298 m 298 298 l 372 298 l 372 223 l 298 223 l 298 298 m 372 223 l 446 223 l 446 149 l 372 149 l 372 223 m 446 298 l 521 298 l 521 223 l 446 223 l 446 298 m 372 298 l 446 298 l 446 223 l 372 223 l 372 298 m 446 223 l 521 223 l 521 149 l 446 149 l 446 223 m 372 149 l 446 149 l 446 74 l 372 74 l 372 149 m 446 149 l 521 149 l 521 74 l 446 74 l 446 149 m 446 74 l 521 74 l 521 0 l 446 0 l 446 74 m 372 74 l 446 74 l 446 0 l 372 0 l 372 74 m 74 74 l 149 74 l 149 0 l 74 0 l 74 74 m 0 74 l 74 74 l 74 0 l 0 0 l 0 74 m 0 149 l 74 149 l 74 74 l 0 74 l 0 149 m 74 149 l 149 149 l 149 74 l 74 74 l 74 149 m 74 223 l 149 223 l 149 149 l 74 149 l 74 223 m 0 223 l 74 223 l 74 149 l 0 149 l 0 223 m 0 298 l 74 298 l 74 223 l 0 223 l 0 298 m 0 372 l 74 372 l 74 298 l 0 298 l 0 372 m 0 446 l 74 446 l 74 372 l 0 372 l 0 446 m 74 446 l 149 446 l 149 372 l 74 372 l 74 446 m 0 744 l 74 744 l 74 670 l 0 670 l 0 744 m 74 744 l 149 744 l 149 670 l 74 670 l 74 744 m 149 744 l 223 744 l 223 670 l 149 670 l 149 744 m 223 744 l 298 744 l 298 670 l 223 670 l 223 744 m 298 744 l 372 744 l 372 670 l 298 670 l 298 744 m 372 744 l 446 744 l 446 670 l 372 670 l 372 744 m 372 670 l 446 670 l 446 595 l 372 595 l 372 670 m 298 670 l 372 670 l 372 595 l 298 595 l 298 670 m 223 670 l 298 670 l 298 595 l 223 595 l 223 670 m 149 670 l 223 670 l 223 595 l 149 595 l 149 670 m 74 670 l 149 670 l 149 595 l 74 595 l 74 670 m 0 670 l 74 670 l 74 595 l 0 595 l 0 670 m 0 595 l 74 595 l 74 521 l 0 521 l 0 595 m 0 521 l 74 521 l 74 446 l 0 446 l 0 521 m 74 521 l 149 521 l 149 446 l 74 446 l 74 521 m 74 595 l 149 595 l 149 521 l 74 521 l 74 595 m 372 595 l 446 595 l 446 521 l 372 521 l 372 595 m 446 595 l 521 595 l 521 521 l 446 521 l 446 595 m 446 670 l 521 670 l 521 595 l 446 595 l 446 670 m 446 521 l 521 521 l 521 446 l 446 446 l 446 521 m 372 521 l 446 521 l 446 446 l 372 446 l 372 521 m 372 446 l 446 446 l 446 372 l 372 372 l 372 446 m 446 446 l 521 446 l 521 372 l 446 372 l 446 446 m 372 372 l 446 372 l 446 298 l 372 298 l 372 372 z "},"Ŕ":{"ha":595,"x_min":0,"x_max":521,"o":"m 74 372 l 149 372 l 149 298 l 74 298 l 74 372 m 149 372 l 223 372 l 223 298 l 149 298 l 149 372 m 223 372 l 298 372 l 298 298 l 223 298 l 223 372 m 298 372 l 372 372 l 372 298 l 298 298 l 298 372 m 149 298 l 223 298 l 223 223 l 149 223 l 149 298 m 74 298 l 149 298 l 149 223 l 74 223 l 74 298 m 223 298 l 298 298 l 298 223 l 223 223 l 223 298 m 298 298 l 372 298 l 372 223 l 298 223 l 298 298 m 372 223 l 446 223 l 446 149 l 372 149 l 372 223 m 446 298 l 521 298 l 521 223 l 446 223 l 446 298 m 372 298 l 446 298 l 446 223 l 372 223 l 372 298 m 446 223 l 521 223 l 521 149 l 446 149 l 446 223 m 372 149 l 446 149 l 446 74 l 372 74 l 372 149 m 446 149 l 521 149 l 521 74 l 446 74 l 446 149 m 446 74 l 521 74 l 521 0 l 446 0 l 446 74 m 372 74 l 446 74 l 446 0 l 372 0 l 372 74 m 74 74 l 149 74 l 149 0 l 74 0 l 74 74 m 0 74 l 74 74 l 74 0 l 0 0 l 0 74 m 0 149 l 74 149 l 74 74 l 0 74 l 0 149 m 74 149 l 149 149 l 149 74 l 74 74 l 74 149 m 74 223 l 149 223 l 149 149 l 74 149 l 74 223 m 0 223 l 74 223 l 74 149 l 0 149 l 0 223 m 0 298 l 74 298 l 74 223 l 0 223 l 0 298 m 0 372 l 74 372 l 74 298 l 0 298 l 0 372 m 0 446 l 74 446 l 74 372 l 0 372 l 0 446 m 74 446 l 149 446 l 149 372 l 74 372 l 74 446 m 0 744 l 74 744 l 74 670 l 0 670 l 0 744 m 74 744 l 149 744 l 149 670 l 74 670 l 74 744 m 149 744 l 223 744 l 223 670 l 149 670 l 149 744 m 223 744 l 298 744 l 298 670 l 223 670 l 223 744 m 298 744 l 372 744 l 372 670 l 298 670 l 298 744 m 372 744 l 446 744 l 446 670 l 372 670 l 372 744 m 372 670 l 446 670 l 446 595 l 372 595 l 372 670 m 298 670 l 372 670 l 372 595 l 298 595 l 298 670 m 223 670 l 298 670 l 298 595 l 223 595 l 223 670 m 149 670 l 223 670 l 223 595 l 149 595 l 149 670 m 74 670 l 149 670 l 149 595 l 74 595 l 74 670 m 0 670 l 74 670 l 74 595 l 0 595 l 0 670 m 0 595 l 74 595 l 74 521 l 0 521 l 0 595 m 0 521 l 74 521 l 74 446 l 0 446 l 0 521 m 74 521 l 149 521 l 149 446 l 74 446 l 74 521 m 74 595 l 149 595 l 149 521 l 74 521 l 74 595 m 372 595 l 446 595 l 446 521 l 372 521 l 372 595 m 446 595 l 521 595 l 521 521 l 446 521 l 446 595 m 446 670 l 521 670 l 521 595 l 446 595 l 446 670 m 446 521 l 521 521 l 521 446 l 446 446 l 446 521 m 372 521 l 446 521 l 446 446 l 372 446 l 372 521 m 372 446 l 446 446 l 446 372 l 372 372 l 372 446 m 446 446 l 521 446 l 521 372 l 446 372 l 446 446 m 372 372 l 446 372 l 446 298 l 372 298 l 372 372 m 298 967 l 298 893 l 223 893 l 223 967 l 298 967 m 298 893 l 298 818 l 223 818 l 223 893 l 298 893 m 372 967 l 372 893 l 298 893 l 298 967 l 372 967 m 372 1042 l 372 967 l 298 967 l 298 1042 l 372 1042 z "},"Ř":{"ha":595,"x_min":0,"x_max":521,"o":"m 74 372 l 149 372 l 149 298 l 74 298 l 74 372 m 149 372 l 223 372 l 223 298 l 149 298 l 149 372 m 223 372 l 298 372 l 298 298 l 223 298 l 223 372 m 298 372 l 372 372 l 372 298 l 298 298 l 298 372 m 149 298 l 223 298 l 223 223 l 149 223 l 149 298 m 74 298 l 149 298 l 149 223 l 74 223 l 74 298 m 223 298 l 298 298 l 298 223 l 223 223 l 223 298 m 298 298 l 372 298 l 372 223 l 298 223 l 298 298 m 372 223 l 446 223 l 446 149 l 372 149 l 372 223 m 446 298 l 521 298 l 521 223 l 446 223 l 446 298 m 372 298 l 446 298 l 446 223 l 372 223 l 372 298 m 446 223 l 521 223 l 521 149 l 446 149 l 446 223 m 372 149 l 446 149 l 446 74 l 372 74 l 372 149 m 446 149 l 521 149 l 521 74 l 446 74 l 446 149 m 446 74 l 521 74 l 521 0 l 446 0 l 446 74 m 372 74 l 446 74 l 446 0 l 372 0 l 372 74 m 74 74 l 149 74 l 149 0 l 74 0 l 74 74 m 0 74 l 74 74 l 74 0 l 0 0 l 0 74 m 0 149 l 74 149 l 74 74 l 0 74 l 0 149 m 74 149 l 149 149 l 149 74 l 74 74 l 74 149 m 74 223 l 149 223 l 149 149 l 74 149 l 74 223 m 0 223 l 74 223 l 74 149 l 0 149 l 0 223 m 0 298 l 74 298 l 74 223 l 0 223 l 0 298 m 0 372 l 74 372 l 74 298 l 0 298 l 0 372 m 0 446 l 74 446 l 74 372 l 0 372 l 0 446 m 74 446 l 149 446 l 149 372 l 74 372 l 74 446 m 0 744 l 74 744 l 74 670 l 0 670 l 0 744 m 74 744 l 149 744 l 149 670 l 74 670 l 74 744 m 149 744 l 223 744 l 223 670 l 149 670 l 149 744 m 223 744 l 298 744 l 298 670 l 223 670 l 223 744 m 298 744 l 372 744 l 372 670 l 298 670 l 298 744 m 372 744 l 446 744 l 446 670 l 372 670 l 372 744 m 372 670 l 446 670 l 446 595 l 372 595 l 372 670 m 298 670 l 372 670 l 372 595 l 298 595 l 298 670 m 223 670 l 298 670 l 298 595 l 223 595 l 223 670 m 149 670 l 223 670 l 223 595 l 149 595 l 149 670 m 74 670 l 149 670 l 149 595 l 74 595 l 74 670 m 0 670 l 74 670 l 74 595 l 0 595 l 0 670 m 0 595 l 74 595 l 74 521 l 0 521 l 0 595 m 0 521 l 74 521 l 74 446 l 0 446 l 0 521 m 74 521 l 149 521 l 149 446 l 74 446 l 74 521 m 74 595 l 149 595 l 149 521 l 74 521 l 74 595 m 372 595 l 446 595 l 446 521 l 372 521 l 372 595 m 446 595 l 521 595 l 521 521 l 446 521 l 446 595 m 446 670 l 521 670 l 521 595 l 446 595 l 446 670 m 446 521 l 521 521 l 521 446 l 446 446 l 446 521 m 372 521 l 446 521 l 446 446 l 372 446 l 372 521 m 372 446 l 446 446 l 446 372 l 372 372 l 372 446 m 446 446 l 521 446 l 521 372 l 446 372 l 446 446 m 372 372 l 446 372 l 446 298 l 372 298 l 372 372 m 149 967 l 149 1042 l 223 1042 l 223 967 l 149 967 m 298 967 l 298 1042 l 372 1042 l 372 967 l 298 967 m 74 967 l 74 1042 l 149 1042 l 149 967 l 74 967 m 223 893 l 223 967 l 298 967 l 298 893 l 223 893 m 149 893 l 149 967 l 223 967 l 223 893 l 149 893 m 372 1042 l 446 1042 l 446 967 l 372 967 l 372 1042 m 298 967 l 372 967 l 372 893 l 298 893 l 298 967 m 223 893 l 298 893 l 298 818 l 223 818 l 223 893 z "}}}
